<?xml version="1.0" encoding="UTF-8" standalone="no"?>
<!-- Creator: CorelDRAW -->

<svg
   xmlns:dc="http://purl.org/dc/elements/1.1/"
   xmlns:cc="http://creativecommons.org/ns#"
   xmlns:rdf="http://www.w3.org/1999/02/22-rdf-syntax-ns#"
   xmlns:svg="http://www.w3.org/2000/svg"
   xmlns="http://www.w3.org/2000/svg"
   xmlns:sodipodi="http://sodipodi.sourceforge.net/DTD/sodipodi-0.dtd"
   xmlns:inkscape="http://www.inkscape.org/namespaces/inkscape"
   xml:space="preserve"
   width="6mm"
   height="4mm"
   style="fill-rule:evenodd;image-rendering:optimizeQuality;shape-rendering:geometricPrecision;text-rendering:geometricPrecision"
   viewBox="0 0 236.22847 157.4682"
   version="1.1"
   id="svg25"
   sodipodi:docname="0805_L.SVG"
   inkscape:version="0.92.4 (5da689c313, 2019-01-14)"><metadata
   id="metadata29"><rdf:RDF><cc:Work
       rdf:about=""><dc:format>image/svg+xml</dc:format><dc:type
         rdf:resource="http://purl.org/dc/dcmitype/StillImage" /><dc:title></dc:title></cc:Work></rdf:RDF></metadata><sodipodi:namedview
   pagecolor="#ffffff"
   bordercolor="#666666"
   borderopacity="1"
   objecttolerance="10"
   gridtolerance="10"
   guidetolerance="10"
   inkscape:pageopacity="0"
   inkscape:pageshadow="2"
   inkscape:window-width="3840"
   inkscape:window-height="2097"
   id="namedview27"
   showgrid="false"
   units="mm"
   inkscape:zoom="38.057785"
   inkscape:cx="5.0592196"
   inkscape:cy="0.42285317"
   inkscape:window-x="-8"
   inkscape:window-y="-8"
   inkscape:window-maximized="1"
   inkscape:current-layer="svg25" />
 <defs
   id="defs4">
  <style
   type="text/css"
   id="style2">
   <![CDATA[
    .str0 {stroke:#FF6633;stroke-width:3}
    .fil5 {fill:none}
    .fil4 {fill:#9900CC}
    .fil1 {fill:#CCCCCC}
    .fil0 {fill:#E5E5E5}
    .fil2 {fill:#FF9933}
    .fil3 {fill:#FFCC00}
   ]]>
  </style>
 
  
  
  
  
  
  
  
  
  
 </defs>
 <path
   style="fill:#e5e5e5;stroke-width:1.00203013"
   inkscape:connector-curvature="0"
   id="path6"
   d="M -5.8e-6,-0.0084138 H 236.22847 V 39.112225 H 203.19652 V 118.3566 h 33.03195 v 39.12063 H -5.8e-6 V 118.3566 H 33.031942 V 39.112225 H -5.8e-6 Z"
   class="fil0" /><rect
   style="fill:#cccccc;stroke-width:1.00464463"
   id="rect8"
   height="157.48564"
   width="157.97314"
   y="-0.0084138"
   x="39.03775"
   class="fil1" /><path
   style="fill:#ff9933;stroke-width:1.00203013"
   inkscape:connector-curvature="0"
   id="path10"
   d="M 39.03775,10.022519 H -5.8e-6 v 39.120639 c 16.0154898,0 30.0290428,13.040213 30.0290428,29.089706 0,17.052586 -14.013553,30.092796 -30.0290428,30.092796 V 147.4463 H 39.03775 c 0,-160.494927 0,22.06805 0,-137.423781 z"
   class="fil2" /><path
   style="fill:#ff9933;stroke-width:1.00203013"
   inkscape:connector-curvature="0"
   id="path12"
   d="m 197.19071,10.022519 h 39.03776 v 39.120639 c -16.01549,0 -29.02808,13.040213 -29.02808,29.089706 0,17.052586 13.01259,30.092796 29.02808,30.092796 v 39.12064 h -39.03776 c 0,-76.23509 0,-61.18869 0,-137.423781 z"
   class="fil2" /><path
   style="fill:#ffcc00;stroke-width:1.00203013"
   inkscape:connector-curvature="0"
   id="path14"
   d="M 148.14327,49.143158 H 89.086155 V 59.174091 H 39.03775 V 98.29473 h 50.048405 v 10.03093 h 59.057115 z"
   class="fil3" /><rect
   style="fill:#9900cc;stroke-width:1.00203013"
   id="rect16"
   height="31.095892"
   width="31.03001"
   y="63.186462"
   x="102.09874"
   class="fil4" /><rect
   style="fill:#ffcc00;stroke-width:1.00203013"
   id="rect18"
   height="39.12064"
   width="39.037754"
   y="59.174091"
   x="158.15295"
   class="fil3" /><ellipse
   style="fill:#cccccc;stroke-width:1.00203013"
   id="circle20"
   cy="78.232864"
   cx="118.11423"
   class="fil1"
   rx="10.009681"
   ry="10.030933" /><path
   style="fill:none;stroke:#ff6633;stroke-width:3.0060904"
   inkscape:connector-curvature="0"
   id="path22"
   d="m 177.17135,78.232864 c -20.01936,-26.080426 -39.03776,-26.080426 -59.05712,0"
   class="fil5 str0" />
</svg>