<?xml version="1.0" encoding="UTF-8"?>
<svg xmlns="http://www.w3.org/2000/svg" xmlns:xlink="http://www.w3.org/1999/xlink" width="29mm" height="29mm" viewBox="0 0 29 29" version="1.1">
<g id="surface251">
<path style=" stroke:none;fill-rule:nonzero;fill:rgb(89.453125%,89.453125%,89.453125%);fill-opacity:1;" d="M 1.648438 0 L 1.847656 0 L 1.847656 29 L 1.648438 29 Z M 1.648438 0 "/>
<path style=" stroke:none;fill-rule:nonzero;fill:rgb(89.453125%,89.453125%,89.453125%);fill-opacity:1;" d="M 2.148438 0 L 2.347656 0 L 2.347656 29 L 2.148438 29 Z M 2.148438 0 "/>
<path style=" stroke:none;fill-rule:nonzero;fill:rgb(89.453125%,89.453125%,89.453125%);fill-opacity:1;" d="M 2.648438 0 L 2.847656 0 L 2.847656 29 L 2.648438 29 Z M 2.648438 0 "/>
<path style=" stroke:none;fill-rule:nonzero;fill:rgb(89.453125%,89.453125%,89.453125%);fill-opacity:1;" d="M 3.148438 0 L 3.347656 0 L 3.347656 29 L 3.148438 29 Z M 3.148438 0 "/>
<path style=" stroke:none;fill-rule:nonzero;fill:rgb(89.453125%,89.453125%,89.453125%);fill-opacity:1;" d="M 3.648438 0 L 3.847656 0 L 3.847656 29 L 3.648438 29 Z M 3.648438 0 "/>
<path style=" stroke:none;fill-rule:nonzero;fill:rgb(89.453125%,89.453125%,89.453125%);fill-opacity:1;" d="M 4.148438 0 L 4.347656 0 L 4.347656 29 L 4.148438 29 Z M 4.148438 0 "/>
<path style=" stroke:none;fill-rule:nonzero;fill:rgb(89.453125%,89.453125%,89.453125%);fill-opacity:1;" d="M 4.648438 0 L 4.847656 0 L 4.847656 29 L 4.648438 29 Z M 4.648438 0 "/>
<path style=" stroke:none;fill-rule:nonzero;fill:rgb(89.453125%,89.453125%,89.453125%);fill-opacity:1;" d="M 5.148438 0 L 5.347656 0 L 5.347656 29 L 5.148438 29 Z M 5.148438 0 "/>
<path style=" stroke:none;fill-rule:nonzero;fill:rgb(89.453125%,89.453125%,89.453125%);fill-opacity:1;" d="M 5.648438 0 L 5.847656 0 L 5.847656 29 L 5.648438 29 Z M 5.648438 0 "/>
<path style=" stroke:none;fill-rule:nonzero;fill:rgb(89.453125%,89.453125%,89.453125%);fill-opacity:1;" d="M 6.148438 0 L 6.347656 0 L 6.347656 29 L 6.148438 29 Z M 6.148438 0 "/>
<path style=" stroke:none;fill-rule:nonzero;fill:rgb(89.453125%,89.453125%,89.453125%);fill-opacity:1;" d="M 6.648438 0 L 6.847656 0 L 6.847656 29 L 6.648438 29 Z M 6.648438 0 "/>
<path style=" stroke:none;fill-rule:nonzero;fill:rgb(89.453125%,89.453125%,89.453125%);fill-opacity:1;" d="M 7.148438 0 L 7.347656 0 L 7.347656 29 L 7.148438 29 Z M 7.148438 0 "/>
<path style=" stroke:none;fill-rule:nonzero;fill:rgb(89.453125%,89.453125%,89.453125%);fill-opacity:1;" d="M 7.648438 0 L 7.847656 0 L 7.847656 29 L 7.648438 29 Z M 7.648438 0 "/>
<path style=" stroke:none;fill-rule:nonzero;fill:rgb(89.453125%,89.453125%,89.453125%);fill-opacity:1;" d="M 8.148438 0 L 8.347656 0 L 8.347656 29 L 8.148438 29 Z M 8.148438 0 "/>
<path style=" stroke:none;fill-rule:nonzero;fill:rgb(89.453125%,89.453125%,89.453125%);fill-opacity:1;" d="M 8.648438 0 L 8.847656 0 L 8.847656 29 L 8.648438 29 Z M 8.648438 0 "/>
<path style=" stroke:none;fill-rule:nonzero;fill:rgb(89.453125%,89.453125%,89.453125%);fill-opacity:1;" d="M 9.148438 0 L 9.347656 0 L 9.347656 29 L 9.148438 29 Z M 9.148438 0 "/>
<path style=" stroke:none;fill-rule:nonzero;fill:rgb(89.453125%,89.453125%,89.453125%);fill-opacity:1;" d="M 9.648438 0 L 9.847656 0 L 9.847656 29 L 9.648438 29 Z M 9.648438 0 "/>
<path style=" stroke:none;fill-rule:nonzero;fill:rgb(89.453125%,89.453125%,89.453125%);fill-opacity:1;" d="M 10.148438 0 L 10.347656 0 L 10.347656 29 L 10.148438 29 Z M 10.148438 0 "/>
<path style=" stroke:none;fill-rule:nonzero;fill:rgb(89.453125%,89.453125%,89.453125%);fill-opacity:1;" d="M 10.648438 0 L 10.847656 0 L 10.847656 29 L 10.648438 29 Z M 10.648438 0 "/>
<path style=" stroke:none;fill-rule:nonzero;fill:rgb(89.453125%,89.453125%,89.453125%);fill-opacity:1;" d="M 11.148438 0 L 11.347656 0 L 11.347656 29 L 11.148438 29 Z M 11.148438 0 "/>
<path style=" stroke:none;fill-rule:nonzero;fill:rgb(89.453125%,89.453125%,89.453125%);fill-opacity:1;" d="M 11.648438 0 L 11.847656 0 L 11.847656 29 L 11.648438 29 Z M 11.648438 0 "/>
<path style=" stroke:none;fill-rule:nonzero;fill:rgb(89.453125%,89.453125%,89.453125%);fill-opacity:1;" d="M 12.148438 0 L 12.347656 0 L 12.347656 29 L 12.148438 29 Z M 12.148438 0 "/>
<path style=" stroke:none;fill-rule:nonzero;fill:rgb(89.453125%,89.453125%,89.453125%);fill-opacity:1;" d="M 12.648438 0 L 12.847656 0 L 12.847656 29 L 12.648438 29 Z M 12.648438 0 "/>
<path style=" stroke:none;fill-rule:nonzero;fill:rgb(89.453125%,89.453125%,89.453125%);fill-opacity:1;" d="M 13.148438 0 L 13.347656 0 L 13.347656 29 L 13.148438 29 Z M 13.148438 0 "/>
<path style=" stroke:none;fill-rule:nonzero;fill:rgb(89.453125%,89.453125%,89.453125%);fill-opacity:1;" d="M 13.648438 0 L 13.847656 0 L 13.847656 29 L 13.648438 29 Z M 13.648438 0 "/>
<path style=" stroke:none;fill-rule:nonzero;fill:rgb(89.453125%,89.453125%,89.453125%);fill-opacity:1;" d="M 14.148438 0 L 14.347656 0 L 14.347656 29 L 14.148438 29 Z M 14.148438 0 "/>
<path style=" stroke:none;fill-rule:nonzero;fill:rgb(89.453125%,89.453125%,89.453125%);fill-opacity:1;" d="M 14.648438 0 L 14.847656 0 L 14.847656 29 L 14.648438 29 Z M 14.648438 0 "/>
<path style=" stroke:none;fill-rule:nonzero;fill:rgb(89.453125%,89.453125%,89.453125%);fill-opacity:1;" d="M 15.148438 0 L 15.347656 0 L 15.347656 29 L 15.148438 29 Z M 15.148438 0 "/>
<path style=" stroke:none;fill-rule:nonzero;fill:rgb(89.453125%,89.453125%,89.453125%);fill-opacity:1;" d="M 15.648438 0 L 15.847656 0 L 15.847656 29 L 15.648438 29 Z M 15.648438 0 "/>
<path style=" stroke:none;fill-rule:nonzero;fill:rgb(89.453125%,89.453125%,89.453125%);fill-opacity:1;" d="M 16.148438 0 L 16.347656 0 L 16.347656 29 L 16.148438 29 Z M 16.148438 0 "/>
<path style=" stroke:none;fill-rule:nonzero;fill:rgb(89.453125%,89.453125%,89.453125%);fill-opacity:1;" d="M 16.648438 0 L 16.847656 0 L 16.847656 29 L 16.648438 29 Z M 16.648438 0 "/>
<path style=" stroke:none;fill-rule:nonzero;fill:rgb(89.453125%,89.453125%,89.453125%);fill-opacity:1;" d="M 17.148438 0 L 17.347656 0 L 17.347656 29 L 17.148438 29 Z M 17.148438 0 "/>
<path style=" stroke:none;fill-rule:nonzero;fill:rgb(89.453125%,89.453125%,89.453125%);fill-opacity:1;" d="M 17.648438 0 L 17.847656 0 L 17.847656 29 L 17.648438 29 Z M 17.648438 0 "/>
<path style=" stroke:none;fill-rule:nonzero;fill:rgb(89.453125%,89.453125%,89.453125%);fill-opacity:1;" d="M 18.148438 0 L 18.347656 0 L 18.347656 29 L 18.148438 29 Z M 18.148438 0 "/>
<path style=" stroke:none;fill-rule:nonzero;fill:rgb(89.453125%,89.453125%,89.453125%);fill-opacity:1;" d="M 18.648438 0 L 18.847656 0 L 18.847656 29 L 18.648438 29 Z M 18.648438 0 "/>
<path style=" stroke:none;fill-rule:nonzero;fill:rgb(89.453125%,89.453125%,89.453125%);fill-opacity:1;" d="M 19.148438 0 L 19.347656 0 L 19.347656 29 L 19.148438 29 Z M 19.148438 0 "/>
<path style=" stroke:none;fill-rule:nonzero;fill:rgb(89.453125%,89.453125%,89.453125%);fill-opacity:1;" d="M 19.648438 0 L 19.847656 0 L 19.847656 29 L 19.648438 29 Z M 19.648438 0 "/>
<path style=" stroke:none;fill-rule:nonzero;fill:rgb(89.453125%,89.453125%,89.453125%);fill-opacity:1;" d="M 20.148438 0 L 20.347656 0 L 20.347656 29 L 20.148438 29 Z M 20.148438 0 "/>
<path style=" stroke:none;fill-rule:nonzero;fill:rgb(89.453125%,89.453125%,89.453125%);fill-opacity:1;" d="M 20.648438 0 L 20.847656 0 L 20.847656 29 L 20.648438 29 Z M 20.648438 0 "/>
<path style=" stroke:none;fill-rule:nonzero;fill:rgb(89.453125%,89.453125%,89.453125%);fill-opacity:1;" d="M 21.148438 0 L 21.347656 0 L 21.347656 29 L 21.148438 29 Z M 21.148438 0 "/>
<path style=" stroke:none;fill-rule:nonzero;fill:rgb(89.453125%,89.453125%,89.453125%);fill-opacity:1;" d="M 21.648438 0 L 21.847656 0 L 21.847656 29 L 21.648438 29 Z M 21.648438 0 "/>
<path style=" stroke:none;fill-rule:nonzero;fill:rgb(89.453125%,89.453125%,89.453125%);fill-opacity:1;" d="M 22.148438 0 L 22.347656 0 L 22.347656 29 L 22.148438 29 Z M 22.148438 0 "/>
<path style=" stroke:none;fill-rule:nonzero;fill:rgb(89.453125%,89.453125%,89.453125%);fill-opacity:1;" d="M 22.648438 0 L 22.847656 0 L 22.847656 29 L 22.648438 29 Z M 22.648438 0 "/>
<path style=" stroke:none;fill-rule:nonzero;fill:rgb(89.453125%,89.453125%,89.453125%);fill-opacity:1;" d="M 23.148438 0 L 23.347656 0 L 23.347656 29 L 23.148438 29 Z M 23.148438 0 "/>
<path style=" stroke:none;fill-rule:nonzero;fill:rgb(89.453125%,89.453125%,89.453125%);fill-opacity:1;" d="M 23.648438 0 L 23.847656 0 L 23.847656 29 L 23.648438 29 Z M 23.648438 0 "/>
<path style=" stroke:none;fill-rule:nonzero;fill:rgb(89.453125%,89.453125%,89.453125%);fill-opacity:1;" d="M 24.148438 0 L 24.347656 0 L 24.347656 29 L 24.148438 29 Z M 24.148438 0 "/>
<path style=" stroke:none;fill-rule:nonzero;fill:rgb(89.453125%,89.453125%,89.453125%);fill-opacity:1;" d="M 24.648438 0 L 24.847656 0 L 24.847656 29 L 24.648438 29 Z M 24.648438 0 "/>
<path style=" stroke:none;fill-rule:nonzero;fill:rgb(89.453125%,89.453125%,89.453125%);fill-opacity:1;" d="M 25.148438 0 L 25.347656 0 L 25.347656 29 L 25.148438 29 Z M 25.148438 0 "/>
<path style=" stroke:none;fill-rule:nonzero;fill:rgb(89.453125%,89.453125%,89.453125%);fill-opacity:1;" d="M 25.648438 0 L 25.847656 0 L 25.847656 29 L 25.648438 29 Z M 25.648438 0 "/>
<path style=" stroke:none;fill-rule:nonzero;fill:rgb(89.453125%,89.453125%,89.453125%);fill-opacity:1;" d="M 26.148438 0 L 26.347656 0 L 26.347656 29 L 26.148438 29 Z M 26.148438 0 "/>
<path style=" stroke:none;fill-rule:nonzero;fill:rgb(89.453125%,89.453125%,89.453125%);fill-opacity:1;" d="M 26.648438 0 L 26.847656 0 L 26.847656 29 L 26.648438 29 Z M 26.648438 0 "/>
<path style=" stroke:none;fill-rule:nonzero;fill:rgb(89.453125%,89.453125%,89.453125%);fill-opacity:1;" d="M 27.148438 0 L 27.347656 0 L 27.347656 29 L 27.148438 29 Z M 27.148438 0 "/>
<path style=" stroke:none;fill-rule:nonzero;fill:rgb(89.453125%,89.453125%,89.453125%);fill-opacity:1;" d="M 29 1.648438 L 29 1.847656 L 0 1.847656 L 0 1.648438 Z M 29 1.648438 "/>
<path style=" stroke:none;fill-rule:nonzero;fill:rgb(89.453125%,89.453125%,89.453125%);fill-opacity:1;" d="M 29 2.148438 L 29 2.347656 L 0 2.347656 L 0 2.148438 Z M 29 2.148438 "/>
<path style=" stroke:none;fill-rule:nonzero;fill:rgb(89.453125%,89.453125%,89.453125%);fill-opacity:1;" d="M 29 2.648438 L 29 2.847656 L 0 2.847656 L 0 2.648438 Z M 29 2.648438 "/>
<path style=" stroke:none;fill-rule:nonzero;fill:rgb(89.453125%,89.453125%,89.453125%);fill-opacity:1;" d="M 29 3.148438 L 29 3.347656 L 0 3.347656 L 0 3.148438 Z M 29 3.148438 "/>
<path style=" stroke:none;fill-rule:nonzero;fill:rgb(89.453125%,89.453125%,89.453125%);fill-opacity:1;" d="M 29 3.648438 L 29 3.847656 L 0 3.847656 L 0 3.648438 Z M 29 3.648438 "/>
<path style=" stroke:none;fill-rule:nonzero;fill:rgb(89.453125%,89.453125%,89.453125%);fill-opacity:1;" d="M 29 4.148438 L 29 4.347656 L 0 4.347656 L 0 4.148438 Z M 29 4.148438 "/>
<path style=" stroke:none;fill-rule:nonzero;fill:rgb(89.453125%,89.453125%,89.453125%);fill-opacity:1;" d="M 29 4.648438 L 29 4.847656 L 0 4.847656 L 0 4.648438 Z M 29 4.648438 "/>
<path style=" stroke:none;fill-rule:nonzero;fill:rgb(89.453125%,89.453125%,89.453125%);fill-opacity:1;" d="M 29 5.148438 L 29 5.347656 L 0 5.347656 L 0 5.148438 Z M 29 5.148438 "/>
<path style=" stroke:none;fill-rule:nonzero;fill:rgb(89.453125%,89.453125%,89.453125%);fill-opacity:1;" d="M 29 5.648438 L 29 5.847656 L 0 5.847656 L 0 5.648438 Z M 29 5.648438 "/>
<path style=" stroke:none;fill-rule:nonzero;fill:rgb(89.453125%,89.453125%,89.453125%);fill-opacity:1;" d="M 29 6.148438 L 29 6.347656 L 0 6.347656 L 0 6.148438 Z M 29 6.148438 "/>
<path style=" stroke:none;fill-rule:nonzero;fill:rgb(89.453125%,89.453125%,89.453125%);fill-opacity:1;" d="M 29 6.648438 L 29 6.847656 L 0 6.847656 L 0 6.648438 Z M 29 6.648438 "/>
<path style=" stroke:none;fill-rule:nonzero;fill:rgb(89.453125%,89.453125%,89.453125%);fill-opacity:1;" d="M 29 7.148438 L 29 7.347656 L 0 7.347656 L 0 7.148438 Z M 29 7.148438 "/>
<path style=" stroke:none;fill-rule:nonzero;fill:rgb(89.453125%,89.453125%,89.453125%);fill-opacity:1;" d="M 29 7.648438 L 29 7.847656 L 0 7.847656 L 0 7.648438 Z M 29 7.648438 "/>
<path style=" stroke:none;fill-rule:nonzero;fill:rgb(89.453125%,89.453125%,89.453125%);fill-opacity:1;" d="M 29 8.148438 L 29 8.347656 L 0 8.347656 L 0 8.148438 Z M 29 8.148438 "/>
<path style=" stroke:none;fill-rule:nonzero;fill:rgb(89.453125%,89.453125%,89.453125%);fill-opacity:1;" d="M 29 8.648438 L 29 8.847656 L 0 8.847656 L 0 8.648438 Z M 29 8.648438 "/>
<path style=" stroke:none;fill-rule:nonzero;fill:rgb(89.453125%,89.453125%,89.453125%);fill-opacity:1;" d="M 29 9.148438 L 29 9.347656 L 0 9.347656 L 0 9.148438 Z M 29 9.148438 "/>
<path style=" stroke:none;fill-rule:nonzero;fill:rgb(89.453125%,89.453125%,89.453125%);fill-opacity:1;" d="M 29 9.648438 L 29 9.847656 L 0 9.847656 L 0 9.648438 Z M 29 9.648438 "/>
<path style=" stroke:none;fill-rule:nonzero;fill:rgb(89.453125%,89.453125%,89.453125%);fill-opacity:1;" d="M 29 10.148438 L 29 10.347656 L 0 10.347656 L 0 10.148438 Z M 29 10.148438 "/>
<path style=" stroke:none;fill-rule:nonzero;fill:rgb(89.453125%,89.453125%,89.453125%);fill-opacity:1;" d="M 29 10.648438 L 29 10.847656 L 0 10.847656 L 0 10.648438 Z M 29 10.648438 "/>
<path style=" stroke:none;fill-rule:nonzero;fill:rgb(89.453125%,89.453125%,89.453125%);fill-opacity:1;" d="M 29 11.148438 L 29 11.347656 L 0 11.347656 L 0 11.148438 Z M 29 11.148438 "/>
<path style=" stroke:none;fill-rule:nonzero;fill:rgb(89.453125%,89.453125%,89.453125%);fill-opacity:1;" d="M 29 11.648438 L 29 11.847656 L 0 11.847656 L 0 11.648438 Z M 29 11.648438 "/>
<path style=" stroke:none;fill-rule:nonzero;fill:rgb(89.453125%,89.453125%,89.453125%);fill-opacity:1;" d="M 29 12.148438 L 29 12.347656 L 0 12.347656 L 0 12.148438 Z M 29 12.148438 "/>
<path style=" stroke:none;fill-rule:nonzero;fill:rgb(89.453125%,89.453125%,89.453125%);fill-opacity:1;" d="M 29 12.648438 L 29 12.847656 L 0 12.847656 L 0 12.648438 Z M 29 12.648438 "/>
<path style=" stroke:none;fill-rule:nonzero;fill:rgb(89.453125%,89.453125%,89.453125%);fill-opacity:1;" d="M 29 13.148438 L 29 13.347656 L 0 13.347656 L 0 13.148438 Z M 29 13.148438 "/>
<path style=" stroke:none;fill-rule:nonzero;fill:rgb(89.453125%,89.453125%,89.453125%);fill-opacity:1;" d="M 29 13.648438 L 29 13.847656 L 0 13.847656 L 0 13.648438 Z M 29 13.648438 "/>
<path style=" stroke:none;fill-rule:nonzero;fill:rgb(89.453125%,89.453125%,89.453125%);fill-opacity:1;" d="M 29 14.148438 L 29 14.347656 L 0 14.347656 L 0 14.148438 Z M 29 14.148438 "/>
<path style=" stroke:none;fill-rule:nonzero;fill:rgb(89.453125%,89.453125%,89.453125%);fill-opacity:1;" d="M 29 14.648438 L 29 14.847656 L 0 14.847656 L 0 14.648438 Z M 29 14.648438 "/>
<path style=" stroke:none;fill-rule:nonzero;fill:rgb(89.453125%,89.453125%,89.453125%);fill-opacity:1;" d="M 29 15.148438 L 29 15.347656 L 0 15.347656 L 0 15.148438 Z M 29 15.148438 "/>
<path style=" stroke:none;fill-rule:nonzero;fill:rgb(89.453125%,89.453125%,89.453125%);fill-opacity:1;" d="M 29 15.648438 L 29 15.847656 L 0 15.847656 L 0 15.648438 Z M 29 15.648438 "/>
<path style=" stroke:none;fill-rule:nonzero;fill:rgb(89.453125%,89.453125%,89.453125%);fill-opacity:1;" d="M 29 16.148438 L 29 16.347656 L 0 16.347656 L 0 16.148438 Z M 29 16.148438 "/>
<path style=" stroke:none;fill-rule:nonzero;fill:rgb(89.453125%,89.453125%,89.453125%);fill-opacity:1;" d="M 29 16.648438 L 29 16.847656 L 0 16.847656 L 0 16.648438 Z M 29 16.648438 "/>
<path style=" stroke:none;fill-rule:nonzero;fill:rgb(89.453125%,89.453125%,89.453125%);fill-opacity:1;" d="M 29 17.148438 L 29 17.347656 L 0 17.347656 L 0 17.148438 Z M 29 17.148438 "/>
<path style=" stroke:none;fill-rule:nonzero;fill:rgb(89.453125%,89.453125%,89.453125%);fill-opacity:1;" d="M 29 17.648438 L 29 17.847656 L 0 17.847656 L 0 17.648438 Z M 29 17.648438 "/>
<path style=" stroke:none;fill-rule:nonzero;fill:rgb(89.453125%,89.453125%,89.453125%);fill-opacity:1;" d="M 29 18.148438 L 29 18.347656 L 0 18.347656 L 0 18.148438 Z M 29 18.148438 "/>
<path style=" stroke:none;fill-rule:nonzero;fill:rgb(89.453125%,89.453125%,89.453125%);fill-opacity:1;" d="M 29 18.648438 L 29 18.847656 L 0 18.847656 L 0 18.648438 Z M 29 18.648438 "/>
<path style=" stroke:none;fill-rule:nonzero;fill:rgb(89.453125%,89.453125%,89.453125%);fill-opacity:1;" d="M 29 19.148438 L 29 19.347656 L 0 19.347656 L 0 19.148438 Z M 29 19.148438 "/>
<path style=" stroke:none;fill-rule:nonzero;fill:rgb(89.453125%,89.453125%,89.453125%);fill-opacity:1;" d="M 29 19.648438 L 29 19.847656 L 0 19.847656 L 0 19.648438 Z M 29 19.648438 "/>
<path style=" stroke:none;fill-rule:nonzero;fill:rgb(89.453125%,89.453125%,89.453125%);fill-opacity:1;" d="M 29 20.148438 L 29 20.347656 L 0 20.347656 L 0 20.148438 Z M 29 20.148438 "/>
<path style=" stroke:none;fill-rule:nonzero;fill:rgb(89.453125%,89.453125%,89.453125%);fill-opacity:1;" d="M 29 20.648438 L 29 20.847656 L 0 20.847656 L 0 20.648438 Z M 29 20.648438 "/>
<path style=" stroke:none;fill-rule:nonzero;fill:rgb(89.453125%,89.453125%,89.453125%);fill-opacity:1;" d="M 29 21.148438 L 29 21.347656 L 0 21.347656 L 0 21.148438 Z M 29 21.148438 "/>
<path style=" stroke:none;fill-rule:nonzero;fill:rgb(89.453125%,89.453125%,89.453125%);fill-opacity:1;" d="M 29 21.648438 L 29 21.847656 L 0 21.847656 L 0 21.648438 Z M 29 21.648438 "/>
<path style=" stroke:none;fill-rule:nonzero;fill:rgb(89.453125%,89.453125%,89.453125%);fill-opacity:1;" d="M 29 22.148438 L 29 22.347656 L 0 22.347656 L 0 22.148438 Z M 29 22.148438 "/>
<path style=" stroke:none;fill-rule:nonzero;fill:rgb(89.453125%,89.453125%,89.453125%);fill-opacity:1;" d="M 29 22.648438 L 29 22.847656 L 0 22.847656 L 0 22.648438 Z M 29 22.648438 "/>
<path style=" stroke:none;fill-rule:nonzero;fill:rgb(89.453125%,89.453125%,89.453125%);fill-opacity:1;" d="M 29 23.148438 L 29 23.347656 L 0 23.347656 L 0 23.148438 Z M 29 23.148438 "/>
<path style=" stroke:none;fill-rule:nonzero;fill:rgb(89.453125%,89.453125%,89.453125%);fill-opacity:1;" d="M 29 23.648438 L 29 23.847656 L 0 23.847656 L 0 23.648438 Z M 29 23.648438 "/>
<path style=" stroke:none;fill-rule:nonzero;fill:rgb(89.453125%,89.453125%,89.453125%);fill-opacity:1;" d="M 29 24.148438 L 29 24.347656 L 0 24.347656 L 0 24.148438 Z M 29 24.148438 "/>
<path style=" stroke:none;fill-rule:nonzero;fill:rgb(89.453125%,89.453125%,89.453125%);fill-opacity:1;" d="M 29 24.648438 L 29 24.847656 L 0 24.847656 L 0 24.648438 Z M 29 24.648438 "/>
<path style=" stroke:none;fill-rule:nonzero;fill:rgb(89.453125%,89.453125%,89.453125%);fill-opacity:1;" d="M 29 25.148438 L 29 25.347656 L 0 25.347656 L 0 25.148438 Z M 29 25.148438 "/>
<path style=" stroke:none;fill-rule:nonzero;fill:rgb(89.453125%,89.453125%,89.453125%);fill-opacity:1;" d="M 29 25.648438 L 29 25.847656 L 0 25.847656 L 0 25.648438 Z M 29 25.648438 "/>
<path style=" stroke:none;fill-rule:nonzero;fill:rgb(89.453125%,89.453125%,89.453125%);fill-opacity:1;" d="M 29 26.148438 L 29 26.347656 L 0 26.347656 L 0 26.148438 Z M 29 26.148438 "/>
<path style=" stroke:none;fill-rule:nonzero;fill:rgb(89.453125%,89.453125%,89.453125%);fill-opacity:1;" d="M 29 26.648438 L 29 26.847656 L 0 26.847656 L 0 26.648438 Z M 29 26.648438 "/>
<path style=" stroke:none;fill-rule:nonzero;fill:rgb(89.453125%,89.453125%,89.453125%);fill-opacity:1;" d="M 29 27.148438 L 29 27.347656 L 0 27.347656 L 0 27.148438 Z M 29 27.148438 "/>
<path style=" stroke:none;fill-rule:nonzero;fill:rgb(19.53125%,19.53125%,19.53125%);fill-opacity:1;" d="M 1 1 L 28 1 L 28 28 L 1 28 Z M 1 1 "/>
<path style=" stroke:none;fill-rule:nonzero;fill:rgb(49.609375%,49.609375%,49.609375%);fill-opacity:1;" d="M 2.351563 27 C 2.351563 27.464844 1.648438 27.464844 1.648438 27 C 1.648438 26.535156 2.351563 26.535156 2.351563 27 "/>
</g>
</svg>
