<?xml version="1.0" encoding="UTF-8"?>
<svg xmlns="http://www.w3.org/2000/svg" xmlns:xlink="http://www.w3.org/1999/xlink" width="6mm" height="6mm" viewBox="0 0 6 6" version="1.1">
<g id="surface191">
<path style=" stroke:none;fill-rule:nonzero;fill:rgb(89.453125%,89.453125%,89.453125%);fill-opacity:1;" d="M 1.648438 0 L 1.847656 0 L 1.847656 6 L 1.648438 6 Z M 1.648438 0 "/>
<path style=" stroke:none;fill-rule:nonzero;fill:rgb(89.453125%,89.453125%,89.453125%);fill-opacity:1;" d="M 2.148438 0 L 2.347656 0 L 2.347656 6 L 2.148438 6 Z M 2.148438 0 "/>
<path style=" stroke:none;fill-rule:nonzero;fill:rgb(89.453125%,89.453125%,89.453125%);fill-opacity:1;" d="M 2.648438 0 L 2.847656 0 L 2.847656 6 L 2.648438 6 Z M 2.648438 0 "/>
<path style=" stroke:none;fill-rule:nonzero;fill:rgb(89.453125%,89.453125%,89.453125%);fill-opacity:1;" d="M 3.148438 0 L 3.347656 0 L 3.347656 6 L 3.148438 6 Z M 3.148438 0 "/>
<path style=" stroke:none;fill-rule:nonzero;fill:rgb(89.453125%,89.453125%,89.453125%);fill-opacity:1;" d="M 3.648438 0 L 3.847656 0 L 3.847656 6 L 3.648438 6 Z M 3.648438 0 "/>
<path style=" stroke:none;fill-rule:nonzero;fill:rgb(89.453125%,89.453125%,89.453125%);fill-opacity:1;" d="M 4.148438 0 L 4.347656 0 L 4.347656 6 L 4.148438 6 Z M 4.148438 0 "/>
<path style=" stroke:none;fill-rule:nonzero;fill:rgb(89.453125%,89.453125%,89.453125%);fill-opacity:1;" d="M 6 1.648438 L 6 1.847656 L 0 1.847656 L 0 1.648438 Z M 6 1.648438 "/>
<path style=" stroke:none;fill-rule:nonzero;fill:rgb(89.453125%,89.453125%,89.453125%);fill-opacity:1;" d="M 6 2.148438 L 6 2.347656 L 0 2.347656 L 0 2.148438 Z M 6 2.148438 "/>
<path style=" stroke:none;fill-rule:nonzero;fill:rgb(89.453125%,89.453125%,89.453125%);fill-opacity:1;" d="M 6 2.648438 L 6 2.847656 L 0 2.847656 L 0 2.648438 Z M 6 2.648438 "/>
<path style=" stroke:none;fill-rule:nonzero;fill:rgb(89.453125%,89.453125%,89.453125%);fill-opacity:1;" d="M 6 3.148438 L 6 3.347656 L 0 3.347656 L 0 3.148438 Z M 6 3.148438 "/>
<path style=" stroke:none;fill-rule:nonzero;fill:rgb(89.453125%,89.453125%,89.453125%);fill-opacity:1;" d="M 6 3.648438 L 6 3.847656 L 0 3.847656 L 0 3.648438 Z M 6 3.648438 "/>
<path style=" stroke:none;fill-rule:nonzero;fill:rgb(89.453125%,89.453125%,89.453125%);fill-opacity:1;" d="M 6 4.148438 L 6 4.347656 L 0 4.347656 L 0 4.148438 Z M 6 4.148438 "/>
<path style=" stroke:none;fill-rule:nonzero;fill:rgb(19.53125%,19.53125%,19.53125%);fill-opacity:1;" d="M 1 1 L 5 1 L 5 5 L 1 5 Z M 1 1 "/>
<path style=" stroke:none;fill-rule:nonzero;fill:rgb(49.609375%,49.609375%,49.609375%);fill-opacity:1;" d="M 2.351563 4 C 2.351563 4.464844 1.648438 4.464844 1.648438 4 C 1.648438 3.535156 2.351563 3.535156 2.351563 4 "/>
</g>
</svg>
