<?xml version="1.0" encoding="UTF-8"?>
<svg xmlns="http://www.w3.org/2000/svg" xmlns:xlink="http://www.w3.org/1999/xlink" width="9mm" height="9mm" viewBox="0 0 9 9" version="1.1">
<g id="surface206">
<path style=" stroke:none;fill-rule:nonzero;fill:rgb(89.453125%,89.453125%,89.453125%);fill-opacity:1;" d="M 1.648438 0 L 1.847656 0 L 1.847656 9 L 1.648438 9 Z M 1.648438 0 "/>
<path style=" stroke:none;fill-rule:nonzero;fill:rgb(89.453125%,89.453125%,89.453125%);fill-opacity:1;" d="M 2.148438 0 L 2.347656 0 L 2.347656 9 L 2.148438 9 Z M 2.148438 0 "/>
<path style=" stroke:none;fill-rule:nonzero;fill:rgb(89.453125%,89.453125%,89.453125%);fill-opacity:1;" d="M 2.648438 0 L 2.847656 0 L 2.847656 9 L 2.648438 9 Z M 2.648438 0 "/>
<path style=" stroke:none;fill-rule:nonzero;fill:rgb(89.453125%,89.453125%,89.453125%);fill-opacity:1;" d="M 3.148438 0 L 3.347656 0 L 3.347656 9 L 3.148438 9 Z M 3.148438 0 "/>
<path style=" stroke:none;fill-rule:nonzero;fill:rgb(89.453125%,89.453125%,89.453125%);fill-opacity:1;" d="M 3.648438 0 L 3.847656 0 L 3.847656 9 L 3.648438 9 Z M 3.648438 0 "/>
<path style=" stroke:none;fill-rule:nonzero;fill:rgb(89.453125%,89.453125%,89.453125%);fill-opacity:1;" d="M 4.148438 0 L 4.347656 0 L 4.347656 9 L 4.148438 9 Z M 4.148438 0 "/>
<path style=" stroke:none;fill-rule:nonzero;fill:rgb(89.453125%,89.453125%,89.453125%);fill-opacity:1;" d="M 4.648438 0 L 4.847656 0 L 4.847656 9 L 4.648438 9 Z M 4.648438 0 "/>
<path style=" stroke:none;fill-rule:nonzero;fill:rgb(89.453125%,89.453125%,89.453125%);fill-opacity:1;" d="M 5.148438 0 L 5.347656 0 L 5.347656 9 L 5.148438 9 Z M 5.148438 0 "/>
<path style=" stroke:none;fill-rule:nonzero;fill:rgb(89.453125%,89.453125%,89.453125%);fill-opacity:1;" d="M 5.648438 0 L 5.847656 0 L 5.847656 9 L 5.648438 9 Z M 5.648438 0 "/>
<path style=" stroke:none;fill-rule:nonzero;fill:rgb(89.453125%,89.453125%,89.453125%);fill-opacity:1;" d="M 6.148438 0 L 6.347656 0 L 6.347656 9 L 6.148438 9 Z M 6.148438 0 "/>
<path style=" stroke:none;fill-rule:nonzero;fill:rgb(89.453125%,89.453125%,89.453125%);fill-opacity:1;" d="M 6.648438 0 L 6.847656 0 L 6.847656 9 L 6.648438 9 Z M 6.648438 0 "/>
<path style=" stroke:none;fill-rule:nonzero;fill:rgb(89.453125%,89.453125%,89.453125%);fill-opacity:1;" d="M 7.148438 0 L 7.347656 0 L 7.347656 9 L 7.148438 9 Z M 7.148438 0 "/>
<path style=" stroke:none;fill-rule:nonzero;fill:rgb(89.453125%,89.453125%,89.453125%);fill-opacity:1;" d="M 9 1.648438 L 9 1.847656 L 0 1.847656 L 0 1.648438 Z M 9 1.648438 "/>
<path style=" stroke:none;fill-rule:nonzero;fill:rgb(89.453125%,89.453125%,89.453125%);fill-opacity:1;" d="M 9 2.148438 L 9 2.347656 L 0 2.347656 L 0 2.148438 Z M 9 2.148438 "/>
<path style=" stroke:none;fill-rule:nonzero;fill:rgb(89.453125%,89.453125%,89.453125%);fill-opacity:1;" d="M 9 2.648438 L 9 2.847656 L 0 2.847656 L 0 2.648438 Z M 9 2.648438 "/>
<path style=" stroke:none;fill-rule:nonzero;fill:rgb(89.453125%,89.453125%,89.453125%);fill-opacity:1;" d="M 9 3.148438 L 9 3.347656 L 0 3.347656 L 0 3.148438 Z M 9 3.148438 "/>
<path style=" stroke:none;fill-rule:nonzero;fill:rgb(89.453125%,89.453125%,89.453125%);fill-opacity:1;" d="M 9 3.648438 L 9 3.847656 L 0 3.847656 L 0 3.648438 Z M 9 3.648438 "/>
<path style=" stroke:none;fill-rule:nonzero;fill:rgb(89.453125%,89.453125%,89.453125%);fill-opacity:1;" d="M 9 4.148438 L 9 4.347656 L 0 4.347656 L 0 4.148438 Z M 9 4.148438 "/>
<path style=" stroke:none;fill-rule:nonzero;fill:rgb(89.453125%,89.453125%,89.453125%);fill-opacity:1;" d="M 9 4.648438 L 9 4.847656 L 0 4.847656 L 0 4.648438 Z M 9 4.648438 "/>
<path style=" stroke:none;fill-rule:nonzero;fill:rgb(89.453125%,89.453125%,89.453125%);fill-opacity:1;" d="M 9 5.148438 L 9 5.347656 L 0 5.347656 L 0 5.148438 Z M 9 5.148438 "/>
<path style=" stroke:none;fill-rule:nonzero;fill:rgb(89.453125%,89.453125%,89.453125%);fill-opacity:1;" d="M 9 5.648438 L 9 5.847656 L 0 5.847656 L 0 5.648438 Z M 9 5.648438 "/>
<path style=" stroke:none;fill-rule:nonzero;fill:rgb(89.453125%,89.453125%,89.453125%);fill-opacity:1;" d="M 9 6.148438 L 9 6.347656 L 0 6.347656 L 0 6.148438 Z M 9 6.148438 "/>
<path style=" stroke:none;fill-rule:nonzero;fill:rgb(89.453125%,89.453125%,89.453125%);fill-opacity:1;" d="M 9 6.648438 L 9 6.847656 L 0 6.847656 L 0 6.648438 Z M 9 6.648438 "/>
<path style=" stroke:none;fill-rule:nonzero;fill:rgb(89.453125%,89.453125%,89.453125%);fill-opacity:1;" d="M 9 7.148438 L 9 7.347656 L 0 7.347656 L 0 7.148438 Z M 9 7.148438 "/>
<path style=" stroke:none;fill-rule:nonzero;fill:rgb(19.53125%,19.53125%,19.53125%);fill-opacity:1;" d="M 1 1 L 8 1 L 8 8 L 1 8 Z M 1 1 "/>
<path style=" stroke:none;fill-rule:nonzero;fill:rgb(49.609375%,49.609375%,49.609375%);fill-opacity:1;" d="M 2.351563 7 C 2.351563 7.464844 1.648438 7.464844 1.648438 7 C 1.648438 6.535156 2.351563 6.535156 2.351563 7 "/>
</g>
</svg>
