<?xml version="1.0" encoding="UTF-8"?>
<svg xmlns="http://www.w3.org/2000/svg" xmlns:xlink="http://www.w3.org/1999/xlink" width="21mm" height="21mm" viewBox="0 0 21 21" version="1.1">
<g id="surface236">
<path style=" stroke:none;fill-rule:nonzero;fill:rgb(89.453125%,89.453125%,89.453125%);fill-opacity:1;" d="M 1.648438 0 L 1.847656 0 L 1.847656 21 L 1.648438 21 Z M 1.648438 0 "/>
<path style=" stroke:none;fill-rule:nonzero;fill:rgb(89.453125%,89.453125%,89.453125%);fill-opacity:1;" d="M 2.148438 0 L 2.347656 0 L 2.347656 21 L 2.148438 21 Z M 2.148438 0 "/>
<path style=" stroke:none;fill-rule:nonzero;fill:rgb(89.453125%,89.453125%,89.453125%);fill-opacity:1;" d="M 2.648438 0 L 2.847656 0 L 2.847656 21 L 2.648438 21 Z M 2.648438 0 "/>
<path style=" stroke:none;fill-rule:nonzero;fill:rgb(89.453125%,89.453125%,89.453125%);fill-opacity:1;" d="M 3.148438 0 L 3.347656 0 L 3.347656 21 L 3.148438 21 Z M 3.148438 0 "/>
<path style=" stroke:none;fill-rule:nonzero;fill:rgb(89.453125%,89.453125%,89.453125%);fill-opacity:1;" d="M 3.648438 0 L 3.847656 0 L 3.847656 21 L 3.648438 21 Z M 3.648438 0 "/>
<path style=" stroke:none;fill-rule:nonzero;fill:rgb(89.453125%,89.453125%,89.453125%);fill-opacity:1;" d="M 4.148438 0 L 4.347656 0 L 4.347656 21 L 4.148438 21 Z M 4.148438 0 "/>
<path style=" stroke:none;fill-rule:nonzero;fill:rgb(89.453125%,89.453125%,89.453125%);fill-opacity:1;" d="M 4.648438 0 L 4.847656 0 L 4.847656 21 L 4.648438 21 Z M 4.648438 0 "/>
<path style=" stroke:none;fill-rule:nonzero;fill:rgb(89.453125%,89.453125%,89.453125%);fill-opacity:1;" d="M 5.148438 0 L 5.347656 0 L 5.347656 21 L 5.148438 21 Z M 5.148438 0 "/>
<path style=" stroke:none;fill-rule:nonzero;fill:rgb(89.453125%,89.453125%,89.453125%);fill-opacity:1;" d="M 5.648438 0 L 5.847656 0 L 5.847656 21 L 5.648438 21 Z M 5.648438 0 "/>
<path style=" stroke:none;fill-rule:nonzero;fill:rgb(89.453125%,89.453125%,89.453125%);fill-opacity:1;" d="M 6.148438 0 L 6.347656 0 L 6.347656 21 L 6.148438 21 Z M 6.148438 0 "/>
<path style=" stroke:none;fill-rule:nonzero;fill:rgb(89.453125%,89.453125%,89.453125%);fill-opacity:1;" d="M 6.648438 0 L 6.847656 0 L 6.847656 21 L 6.648438 21 Z M 6.648438 0 "/>
<path style=" stroke:none;fill-rule:nonzero;fill:rgb(89.453125%,89.453125%,89.453125%);fill-opacity:1;" d="M 7.148438 0 L 7.347656 0 L 7.347656 21 L 7.148438 21 Z M 7.148438 0 "/>
<path style=" stroke:none;fill-rule:nonzero;fill:rgb(89.453125%,89.453125%,89.453125%);fill-opacity:1;" d="M 7.648438 0 L 7.847656 0 L 7.847656 21 L 7.648438 21 Z M 7.648438 0 "/>
<path style=" stroke:none;fill-rule:nonzero;fill:rgb(89.453125%,89.453125%,89.453125%);fill-opacity:1;" d="M 8.148438 0 L 8.347656 0 L 8.347656 21 L 8.148438 21 Z M 8.148438 0 "/>
<path style=" stroke:none;fill-rule:nonzero;fill:rgb(89.453125%,89.453125%,89.453125%);fill-opacity:1;" d="M 8.648438 0 L 8.847656 0 L 8.847656 21 L 8.648438 21 Z M 8.648438 0 "/>
<path style=" stroke:none;fill-rule:nonzero;fill:rgb(89.453125%,89.453125%,89.453125%);fill-opacity:1;" d="M 9.148438 0 L 9.347656 0 L 9.347656 21 L 9.148438 21 Z M 9.148438 0 "/>
<path style=" stroke:none;fill-rule:nonzero;fill:rgb(89.453125%,89.453125%,89.453125%);fill-opacity:1;" d="M 9.648438 0 L 9.847656 0 L 9.847656 21 L 9.648438 21 Z M 9.648438 0 "/>
<path style=" stroke:none;fill-rule:nonzero;fill:rgb(89.453125%,89.453125%,89.453125%);fill-opacity:1;" d="M 10.148438 0 L 10.347656 0 L 10.347656 21 L 10.148438 21 Z M 10.148438 0 "/>
<path style=" stroke:none;fill-rule:nonzero;fill:rgb(89.453125%,89.453125%,89.453125%);fill-opacity:1;" d="M 10.648438 0 L 10.847656 0 L 10.847656 21 L 10.648438 21 Z M 10.648438 0 "/>
<path style=" stroke:none;fill-rule:nonzero;fill:rgb(89.453125%,89.453125%,89.453125%);fill-opacity:1;" d="M 11.148438 0 L 11.347656 0 L 11.347656 21 L 11.148438 21 Z M 11.148438 0 "/>
<path style=" stroke:none;fill-rule:nonzero;fill:rgb(89.453125%,89.453125%,89.453125%);fill-opacity:1;" d="M 11.648438 0 L 11.847656 0 L 11.847656 21 L 11.648438 21 Z M 11.648438 0 "/>
<path style=" stroke:none;fill-rule:nonzero;fill:rgb(89.453125%,89.453125%,89.453125%);fill-opacity:1;" d="M 12.148438 0 L 12.347656 0 L 12.347656 21 L 12.148438 21 Z M 12.148438 0 "/>
<path style=" stroke:none;fill-rule:nonzero;fill:rgb(89.453125%,89.453125%,89.453125%);fill-opacity:1;" d="M 12.648438 0 L 12.847656 0 L 12.847656 21 L 12.648438 21 Z M 12.648438 0 "/>
<path style=" stroke:none;fill-rule:nonzero;fill:rgb(89.453125%,89.453125%,89.453125%);fill-opacity:1;" d="M 13.148438 0 L 13.347656 0 L 13.347656 21 L 13.148438 21 Z M 13.148438 0 "/>
<path style=" stroke:none;fill-rule:nonzero;fill:rgb(89.453125%,89.453125%,89.453125%);fill-opacity:1;" d="M 13.648438 0 L 13.847656 0 L 13.847656 21 L 13.648438 21 Z M 13.648438 0 "/>
<path style=" stroke:none;fill-rule:nonzero;fill:rgb(89.453125%,89.453125%,89.453125%);fill-opacity:1;" d="M 14.148438 0 L 14.347656 0 L 14.347656 21 L 14.148438 21 Z M 14.148438 0 "/>
<path style=" stroke:none;fill-rule:nonzero;fill:rgb(89.453125%,89.453125%,89.453125%);fill-opacity:1;" d="M 14.648438 0 L 14.847656 0 L 14.847656 21 L 14.648438 21 Z M 14.648438 0 "/>
<path style=" stroke:none;fill-rule:nonzero;fill:rgb(89.453125%,89.453125%,89.453125%);fill-opacity:1;" d="M 15.148438 0 L 15.347656 0 L 15.347656 21 L 15.148438 21 Z M 15.148438 0 "/>
<path style=" stroke:none;fill-rule:nonzero;fill:rgb(89.453125%,89.453125%,89.453125%);fill-opacity:1;" d="M 15.648438 0 L 15.847656 0 L 15.847656 21 L 15.648438 21 Z M 15.648438 0 "/>
<path style=" stroke:none;fill-rule:nonzero;fill:rgb(89.453125%,89.453125%,89.453125%);fill-opacity:1;" d="M 16.148438 0 L 16.347656 0 L 16.347656 21 L 16.148438 21 Z M 16.148438 0 "/>
<path style=" stroke:none;fill-rule:nonzero;fill:rgb(89.453125%,89.453125%,89.453125%);fill-opacity:1;" d="M 16.648438 0 L 16.847656 0 L 16.847656 21 L 16.648438 21 Z M 16.648438 0 "/>
<path style=" stroke:none;fill-rule:nonzero;fill:rgb(89.453125%,89.453125%,89.453125%);fill-opacity:1;" d="M 17.148438 0 L 17.347656 0 L 17.347656 21 L 17.148438 21 Z M 17.148438 0 "/>
<path style=" stroke:none;fill-rule:nonzero;fill:rgb(89.453125%,89.453125%,89.453125%);fill-opacity:1;" d="M 17.648438 0 L 17.847656 0 L 17.847656 21 L 17.648438 21 Z M 17.648438 0 "/>
<path style=" stroke:none;fill-rule:nonzero;fill:rgb(89.453125%,89.453125%,89.453125%);fill-opacity:1;" d="M 18.148438 0 L 18.347656 0 L 18.347656 21 L 18.148438 21 Z M 18.148438 0 "/>
<path style=" stroke:none;fill-rule:nonzero;fill:rgb(89.453125%,89.453125%,89.453125%);fill-opacity:1;" d="M 18.648438 0 L 18.847656 0 L 18.847656 21 L 18.648438 21 Z M 18.648438 0 "/>
<path style=" stroke:none;fill-rule:nonzero;fill:rgb(89.453125%,89.453125%,89.453125%);fill-opacity:1;" d="M 19.148438 0 L 19.347656 0 L 19.347656 21 L 19.148438 21 Z M 19.148438 0 "/>
<path style=" stroke:none;fill-rule:nonzero;fill:rgb(89.453125%,89.453125%,89.453125%);fill-opacity:1;" d="M 21 1.648438 L 21 1.847656 L 0 1.847656 L 0 1.648438 Z M 21 1.648438 "/>
<path style=" stroke:none;fill-rule:nonzero;fill:rgb(89.453125%,89.453125%,89.453125%);fill-opacity:1;" d="M 21 2.148438 L 21 2.347656 L 0 2.347656 L 0 2.148438 Z M 21 2.148438 "/>
<path style=" stroke:none;fill-rule:nonzero;fill:rgb(89.453125%,89.453125%,89.453125%);fill-opacity:1;" d="M 21 2.648438 L 21 2.847656 L 0 2.847656 L 0 2.648438 Z M 21 2.648438 "/>
<path style=" stroke:none;fill-rule:nonzero;fill:rgb(89.453125%,89.453125%,89.453125%);fill-opacity:1;" d="M 21 3.148438 L 21 3.347656 L 0 3.347656 L 0 3.148438 Z M 21 3.148438 "/>
<path style=" stroke:none;fill-rule:nonzero;fill:rgb(89.453125%,89.453125%,89.453125%);fill-opacity:1;" d="M 21 3.648438 L 21 3.847656 L 0 3.847656 L 0 3.648438 Z M 21 3.648438 "/>
<path style=" stroke:none;fill-rule:nonzero;fill:rgb(89.453125%,89.453125%,89.453125%);fill-opacity:1;" d="M 21 4.148438 L 21 4.347656 L 0 4.347656 L 0 4.148438 Z M 21 4.148438 "/>
<path style=" stroke:none;fill-rule:nonzero;fill:rgb(89.453125%,89.453125%,89.453125%);fill-opacity:1;" d="M 21 4.648438 L 21 4.847656 L 0 4.847656 L 0 4.648438 Z M 21 4.648438 "/>
<path style=" stroke:none;fill-rule:nonzero;fill:rgb(89.453125%,89.453125%,89.453125%);fill-opacity:1;" d="M 21 5.148438 L 21 5.347656 L 0 5.347656 L 0 5.148438 Z M 21 5.148438 "/>
<path style=" stroke:none;fill-rule:nonzero;fill:rgb(89.453125%,89.453125%,89.453125%);fill-opacity:1;" d="M 21 5.648438 L 21 5.847656 L 0 5.847656 L 0 5.648438 Z M 21 5.648438 "/>
<path style=" stroke:none;fill-rule:nonzero;fill:rgb(89.453125%,89.453125%,89.453125%);fill-opacity:1;" d="M 21 6.148438 L 21 6.347656 L 0 6.347656 L 0 6.148438 Z M 21 6.148438 "/>
<path style=" stroke:none;fill-rule:nonzero;fill:rgb(89.453125%,89.453125%,89.453125%);fill-opacity:1;" d="M 21 6.648438 L 21 6.847656 L 0 6.847656 L 0 6.648438 Z M 21 6.648438 "/>
<path style=" stroke:none;fill-rule:nonzero;fill:rgb(89.453125%,89.453125%,89.453125%);fill-opacity:1;" d="M 21 7.148438 L 21 7.347656 L 0 7.347656 L 0 7.148438 Z M 21 7.148438 "/>
<path style=" stroke:none;fill-rule:nonzero;fill:rgb(89.453125%,89.453125%,89.453125%);fill-opacity:1;" d="M 21 7.648438 L 21 7.847656 L 0 7.847656 L 0 7.648438 Z M 21 7.648438 "/>
<path style=" stroke:none;fill-rule:nonzero;fill:rgb(89.453125%,89.453125%,89.453125%);fill-opacity:1;" d="M 21 8.148438 L 21 8.347656 L 0 8.347656 L 0 8.148438 Z M 21 8.148438 "/>
<path style=" stroke:none;fill-rule:nonzero;fill:rgb(89.453125%,89.453125%,89.453125%);fill-opacity:1;" d="M 21 8.648438 L 21 8.847656 L 0 8.847656 L 0 8.648438 Z M 21 8.648438 "/>
<path style=" stroke:none;fill-rule:nonzero;fill:rgb(89.453125%,89.453125%,89.453125%);fill-opacity:1;" d="M 21 9.148438 L 21 9.347656 L 0 9.347656 L 0 9.148438 Z M 21 9.148438 "/>
<path style=" stroke:none;fill-rule:nonzero;fill:rgb(89.453125%,89.453125%,89.453125%);fill-opacity:1;" d="M 21 9.648438 L 21 9.847656 L 0 9.847656 L 0 9.648438 Z M 21 9.648438 "/>
<path style=" stroke:none;fill-rule:nonzero;fill:rgb(89.453125%,89.453125%,89.453125%);fill-opacity:1;" d="M 21 10.148438 L 21 10.347656 L 0 10.347656 L 0 10.148438 Z M 21 10.148438 "/>
<path style=" stroke:none;fill-rule:nonzero;fill:rgb(89.453125%,89.453125%,89.453125%);fill-opacity:1;" d="M 21 10.648438 L 21 10.847656 L 0 10.847656 L 0 10.648438 Z M 21 10.648438 "/>
<path style=" stroke:none;fill-rule:nonzero;fill:rgb(89.453125%,89.453125%,89.453125%);fill-opacity:1;" d="M 21 11.148438 L 21 11.347656 L 0 11.347656 L 0 11.148438 Z M 21 11.148438 "/>
<path style=" stroke:none;fill-rule:nonzero;fill:rgb(89.453125%,89.453125%,89.453125%);fill-opacity:1;" d="M 21 11.648438 L 21 11.847656 L 0 11.847656 L 0 11.648438 Z M 21 11.648438 "/>
<path style=" stroke:none;fill-rule:nonzero;fill:rgb(89.453125%,89.453125%,89.453125%);fill-opacity:1;" d="M 21 12.148438 L 21 12.347656 L 0 12.347656 L 0 12.148438 Z M 21 12.148438 "/>
<path style=" stroke:none;fill-rule:nonzero;fill:rgb(89.453125%,89.453125%,89.453125%);fill-opacity:1;" d="M 21 12.648438 L 21 12.847656 L 0 12.847656 L 0 12.648438 Z M 21 12.648438 "/>
<path style=" stroke:none;fill-rule:nonzero;fill:rgb(89.453125%,89.453125%,89.453125%);fill-opacity:1;" d="M 21 13.148438 L 21 13.347656 L 0 13.347656 L 0 13.148438 Z M 21 13.148438 "/>
<path style=" stroke:none;fill-rule:nonzero;fill:rgb(89.453125%,89.453125%,89.453125%);fill-opacity:1;" d="M 21 13.648438 L 21 13.847656 L 0 13.847656 L 0 13.648438 Z M 21 13.648438 "/>
<path style=" stroke:none;fill-rule:nonzero;fill:rgb(89.453125%,89.453125%,89.453125%);fill-opacity:1;" d="M 21 14.148438 L 21 14.347656 L 0 14.347656 L 0 14.148438 Z M 21 14.148438 "/>
<path style=" stroke:none;fill-rule:nonzero;fill:rgb(89.453125%,89.453125%,89.453125%);fill-opacity:1;" d="M 21 14.648438 L 21 14.847656 L 0 14.847656 L 0 14.648438 Z M 21 14.648438 "/>
<path style=" stroke:none;fill-rule:nonzero;fill:rgb(89.453125%,89.453125%,89.453125%);fill-opacity:1;" d="M 21 15.148438 L 21 15.347656 L 0 15.347656 L 0 15.148438 Z M 21 15.148438 "/>
<path style=" stroke:none;fill-rule:nonzero;fill:rgb(89.453125%,89.453125%,89.453125%);fill-opacity:1;" d="M 21 15.648438 L 21 15.847656 L 0 15.847656 L 0 15.648438 Z M 21 15.648438 "/>
<path style=" stroke:none;fill-rule:nonzero;fill:rgb(89.453125%,89.453125%,89.453125%);fill-opacity:1;" d="M 21 16.148438 L 21 16.347656 L 0 16.347656 L 0 16.148438 Z M 21 16.148438 "/>
<path style=" stroke:none;fill-rule:nonzero;fill:rgb(89.453125%,89.453125%,89.453125%);fill-opacity:1;" d="M 21 16.648438 L 21 16.847656 L 0 16.847656 L 0 16.648438 Z M 21 16.648438 "/>
<path style=" stroke:none;fill-rule:nonzero;fill:rgb(89.453125%,89.453125%,89.453125%);fill-opacity:1;" d="M 21 17.148438 L 21 17.347656 L 0 17.347656 L 0 17.148438 Z M 21 17.148438 "/>
<path style=" stroke:none;fill-rule:nonzero;fill:rgb(89.453125%,89.453125%,89.453125%);fill-opacity:1;" d="M 21 17.648438 L 21 17.847656 L 0 17.847656 L 0 17.648438 Z M 21 17.648438 "/>
<path style=" stroke:none;fill-rule:nonzero;fill:rgb(89.453125%,89.453125%,89.453125%);fill-opacity:1;" d="M 21 18.148438 L 21 18.347656 L 0 18.347656 L 0 18.148438 Z M 21 18.148438 "/>
<path style=" stroke:none;fill-rule:nonzero;fill:rgb(89.453125%,89.453125%,89.453125%);fill-opacity:1;" d="M 21 18.648438 L 21 18.847656 L 0 18.847656 L 0 18.648438 Z M 21 18.648438 "/>
<path style=" stroke:none;fill-rule:nonzero;fill:rgb(89.453125%,89.453125%,89.453125%);fill-opacity:1;" d="M 21 19.148438 L 21 19.347656 L 0 19.347656 L 0 19.148438 Z M 21 19.148438 "/>
<path style=" stroke:none;fill-rule:nonzero;fill:rgb(19.53125%,19.53125%,19.53125%);fill-opacity:1;" d="M 1 1 L 20 1 L 20 20 L 1 20 Z M 1 1 "/>
<path style=" stroke:none;fill-rule:nonzero;fill:rgb(49.609375%,49.609375%,49.609375%);fill-opacity:1;" d="M 2.351563 19 C 2.351563 19.464844 1.648438 19.464844 1.648438 19 C 1.648438 18.535156 2.351563 18.535156 2.351563 19 "/>
</g>
</svg>
