<?xml version="1.0" encoding="UTF-8"?>
<svg xmlns="http://www.w3.org/2000/svg" xmlns:xlink="http://www.w3.org/1999/xlink" width="15.5mm" height="15.5mm" viewBox="0 0 15.5 15.5" version="1.1">
<g id="surface226">
<path style=" stroke:none;fill-rule:nonzero;fill:rgb(89.453125%,89.453125%,89.453125%);fill-opacity:1;" d="M 1.648438 0 L 1.847656 0 L 1.847656 15.5 L 1.648438 15.5 Z M 1.648438 0 "/>
<path style=" stroke:none;fill-rule:nonzero;fill:rgb(89.453125%,89.453125%,89.453125%);fill-opacity:1;" d="M 2.148438 0 L 2.347656 0 L 2.347656 15.5 L 2.148438 15.5 Z M 2.148438 0 "/>
<path style=" stroke:none;fill-rule:nonzero;fill:rgb(89.453125%,89.453125%,89.453125%);fill-opacity:1;" d="M 2.648438 0 L 2.847656 0 L 2.847656 15.5 L 2.648438 15.5 Z M 2.648438 0 "/>
<path style=" stroke:none;fill-rule:nonzero;fill:rgb(89.453125%,89.453125%,89.453125%);fill-opacity:1;" d="M 3.148438 0 L 3.347656 0 L 3.347656 15.5 L 3.148438 15.5 Z M 3.148438 0 "/>
<path style=" stroke:none;fill-rule:nonzero;fill:rgb(89.453125%,89.453125%,89.453125%);fill-opacity:1;" d="M 3.648438 0 L 3.847656 0 L 3.847656 15.5 L 3.648438 15.5 Z M 3.648438 0 "/>
<path style=" stroke:none;fill-rule:nonzero;fill:rgb(89.453125%,89.453125%,89.453125%);fill-opacity:1;" d="M 4.148438 0 L 4.347656 0 L 4.347656 15.5 L 4.148438 15.5 Z M 4.148438 0 "/>
<path style=" stroke:none;fill-rule:nonzero;fill:rgb(89.453125%,89.453125%,89.453125%);fill-opacity:1;" d="M 4.648438 0 L 4.847656 0 L 4.847656 15.5 L 4.648438 15.5 Z M 4.648438 0 "/>
<path style=" stroke:none;fill-rule:nonzero;fill:rgb(89.453125%,89.453125%,89.453125%);fill-opacity:1;" d="M 5.148438 0 L 5.347656 0 L 5.347656 15.5 L 5.148438 15.5 Z M 5.148438 0 "/>
<path style=" stroke:none;fill-rule:nonzero;fill:rgb(89.453125%,89.453125%,89.453125%);fill-opacity:1;" d="M 5.648438 0 L 5.847656 0 L 5.847656 15.5 L 5.648438 15.5 Z M 5.648438 0 "/>
<path style=" stroke:none;fill-rule:nonzero;fill:rgb(89.453125%,89.453125%,89.453125%);fill-opacity:1;" d="M 6.148438 0 L 6.347656 0 L 6.347656 15.5 L 6.148438 15.5 Z M 6.148438 0 "/>
<path style=" stroke:none;fill-rule:nonzero;fill:rgb(89.453125%,89.453125%,89.453125%);fill-opacity:1;" d="M 6.648438 0 L 6.847656 0 L 6.847656 15.5 L 6.648438 15.5 Z M 6.648438 0 "/>
<path style=" stroke:none;fill-rule:nonzero;fill:rgb(89.453125%,89.453125%,89.453125%);fill-opacity:1;" d="M 7.148438 0 L 7.347656 0 L 7.347656 15.5 L 7.148438 15.5 Z M 7.148438 0 "/>
<path style=" stroke:none;fill-rule:nonzero;fill:rgb(89.453125%,89.453125%,89.453125%);fill-opacity:1;" d="M 7.648438 0 L 7.847656 0 L 7.847656 15.5 L 7.648438 15.5 Z M 7.648438 0 "/>
<path style=" stroke:none;fill-rule:nonzero;fill:rgb(89.453125%,89.453125%,89.453125%);fill-opacity:1;" d="M 8.148438 0 L 8.347656 0 L 8.347656 15.5 L 8.148438 15.5 Z M 8.148438 0 "/>
<path style=" stroke:none;fill-rule:nonzero;fill:rgb(89.453125%,89.453125%,89.453125%);fill-opacity:1;" d="M 8.648438 0 L 8.847656 0 L 8.847656 15.5 L 8.648438 15.5 Z M 8.648438 0 "/>
<path style=" stroke:none;fill-rule:nonzero;fill:rgb(89.453125%,89.453125%,89.453125%);fill-opacity:1;" d="M 9.148438 0 L 9.347656 0 L 9.347656 15.5 L 9.148438 15.5 Z M 9.148438 0 "/>
<path style=" stroke:none;fill-rule:nonzero;fill:rgb(89.453125%,89.453125%,89.453125%);fill-opacity:1;" d="M 9.648438 0 L 9.847656 0 L 9.847656 15.5 L 9.648438 15.5 Z M 9.648438 0 "/>
<path style=" stroke:none;fill-rule:nonzero;fill:rgb(89.453125%,89.453125%,89.453125%);fill-opacity:1;" d="M 10.148438 0 L 10.347656 0 L 10.347656 15.5 L 10.148438 15.5 Z M 10.148438 0 "/>
<path style=" stroke:none;fill-rule:nonzero;fill:rgb(89.453125%,89.453125%,89.453125%);fill-opacity:1;" d="M 10.648438 0 L 10.847656 0 L 10.847656 15.5 L 10.648438 15.5 Z M 10.648438 0 "/>
<path style=" stroke:none;fill-rule:nonzero;fill:rgb(89.453125%,89.453125%,89.453125%);fill-opacity:1;" d="M 11.148438 0 L 11.347656 0 L 11.347656 15.5 L 11.148438 15.5 Z M 11.148438 0 "/>
<path style=" stroke:none;fill-rule:nonzero;fill:rgb(89.453125%,89.453125%,89.453125%);fill-opacity:1;" d="M 11.648438 0 L 11.847656 0 L 11.847656 15.5 L 11.648438 15.5 Z M 11.648438 0 "/>
<path style=" stroke:none;fill-rule:nonzero;fill:rgb(89.453125%,89.453125%,89.453125%);fill-opacity:1;" d="M 12.148438 0 L 12.347656 0 L 12.347656 15.5 L 12.148438 15.5 Z M 12.148438 0 "/>
<path style=" stroke:none;fill-rule:nonzero;fill:rgb(89.453125%,89.453125%,89.453125%);fill-opacity:1;" d="M 12.648438 0 L 12.847656 0 L 12.847656 15.5 L 12.648438 15.5 Z M 12.648438 0 "/>
<path style=" stroke:none;fill-rule:nonzero;fill:rgb(89.453125%,89.453125%,89.453125%);fill-opacity:1;" d="M 13.148438 0 L 13.347656 0 L 13.347656 15.5 L 13.148438 15.5 Z M 13.148438 0 "/>
<path style=" stroke:none;fill-rule:nonzero;fill:rgb(89.453125%,89.453125%,89.453125%);fill-opacity:1;" d="M 13.648438 0 L 13.847656 0 L 13.847656 15.5 L 13.648438 15.5 Z M 13.648438 0 "/>
<path style=" stroke:none;fill-rule:nonzero;fill:rgb(89.453125%,89.453125%,89.453125%);fill-opacity:1;" d="M 15.5 1.648438 L 15.5 1.847656 L 0 1.847656 L 0 1.648438 Z M 15.5 1.648438 "/>
<path style=" stroke:none;fill-rule:nonzero;fill:rgb(89.453125%,89.453125%,89.453125%);fill-opacity:1;" d="M 15.5 2.148438 L 15.5 2.347656 L 0 2.347656 L 0 2.148438 Z M 15.5 2.148438 "/>
<path style=" stroke:none;fill-rule:nonzero;fill:rgb(89.453125%,89.453125%,89.453125%);fill-opacity:1;" d="M 15.5 2.648438 L 15.5 2.847656 L 0 2.847656 L 0 2.648438 Z M 15.5 2.648438 "/>
<path style=" stroke:none;fill-rule:nonzero;fill:rgb(89.453125%,89.453125%,89.453125%);fill-opacity:1;" d="M 15.5 3.148438 L 15.5 3.347656 L 0 3.347656 L 0 3.148438 Z M 15.5 3.148438 "/>
<path style=" stroke:none;fill-rule:nonzero;fill:rgb(89.453125%,89.453125%,89.453125%);fill-opacity:1;" d="M 15.5 3.648438 L 15.5 3.847656 L 0 3.847656 L 0 3.648438 Z M 15.5 3.648438 "/>
<path style=" stroke:none;fill-rule:nonzero;fill:rgb(89.453125%,89.453125%,89.453125%);fill-opacity:1;" d="M 15.5 4.148438 L 15.5 4.347656 L 0 4.347656 L 0 4.148438 Z M 15.5 4.148438 "/>
<path style=" stroke:none;fill-rule:nonzero;fill:rgb(89.453125%,89.453125%,89.453125%);fill-opacity:1;" d="M 15.5 4.648438 L 15.5 4.847656 L 0 4.847656 L 0 4.648438 Z M 15.5 4.648438 "/>
<path style=" stroke:none;fill-rule:nonzero;fill:rgb(89.453125%,89.453125%,89.453125%);fill-opacity:1;" d="M 15.5 5.148438 L 15.5 5.347656 L 0 5.347656 L 0 5.148438 Z M 15.5 5.148438 "/>
<path style=" stroke:none;fill-rule:nonzero;fill:rgb(89.453125%,89.453125%,89.453125%);fill-opacity:1;" d="M 15.5 5.648438 L 15.5 5.847656 L 0 5.847656 L 0 5.648438 Z M 15.5 5.648438 "/>
<path style=" stroke:none;fill-rule:nonzero;fill:rgb(89.453125%,89.453125%,89.453125%);fill-opacity:1;" d="M 15.5 6.148438 L 15.5 6.347656 L 0 6.347656 L 0 6.148438 Z M 15.5 6.148438 "/>
<path style=" stroke:none;fill-rule:nonzero;fill:rgb(89.453125%,89.453125%,89.453125%);fill-opacity:1;" d="M 15.5 6.648438 L 15.5 6.847656 L 0 6.847656 L 0 6.648438 Z M 15.5 6.648438 "/>
<path style=" stroke:none;fill-rule:nonzero;fill:rgb(89.453125%,89.453125%,89.453125%);fill-opacity:1;" d="M 15.5 7.148438 L 15.5 7.347656 L 0 7.347656 L 0 7.148438 Z M 15.5 7.148438 "/>
<path style=" stroke:none;fill-rule:nonzero;fill:rgb(89.453125%,89.453125%,89.453125%);fill-opacity:1;" d="M 15.5 7.648438 L 15.5 7.847656 L 0 7.847656 L 0 7.648438 Z M 15.5 7.648438 "/>
<path style=" stroke:none;fill-rule:nonzero;fill:rgb(89.453125%,89.453125%,89.453125%);fill-opacity:1;" d="M 15.5 8.148438 L 15.5 8.347656 L 0 8.347656 L 0 8.148438 Z M 15.5 8.148438 "/>
<path style=" stroke:none;fill-rule:nonzero;fill:rgb(89.453125%,89.453125%,89.453125%);fill-opacity:1;" d="M 15.5 8.648438 L 15.5 8.847656 L 0 8.847656 L 0 8.648438 Z M 15.5 8.648438 "/>
<path style=" stroke:none;fill-rule:nonzero;fill:rgb(89.453125%,89.453125%,89.453125%);fill-opacity:1;" d="M 15.5 9.148438 L 15.5 9.347656 L 0 9.347656 L 0 9.148438 Z M 15.5 9.148438 "/>
<path style=" stroke:none;fill-rule:nonzero;fill:rgb(89.453125%,89.453125%,89.453125%);fill-opacity:1;" d="M 15.5 9.648438 L 15.5 9.847656 L 0 9.847656 L 0 9.648438 Z M 15.5 9.648438 "/>
<path style=" stroke:none;fill-rule:nonzero;fill:rgb(89.453125%,89.453125%,89.453125%);fill-opacity:1;" d="M 15.5 10.148438 L 15.5 10.347656 L 0 10.347656 L 0 10.148438 Z M 15.5 10.148438 "/>
<path style=" stroke:none;fill-rule:nonzero;fill:rgb(89.453125%,89.453125%,89.453125%);fill-opacity:1;" d="M 15.5 10.648438 L 15.5 10.847656 L 0 10.847656 L 0 10.648438 Z M 15.5 10.648438 "/>
<path style=" stroke:none;fill-rule:nonzero;fill:rgb(89.453125%,89.453125%,89.453125%);fill-opacity:1;" d="M 15.5 11.148438 L 15.5 11.347656 L 0 11.347656 L 0 11.148438 Z M 15.5 11.148438 "/>
<path style=" stroke:none;fill-rule:nonzero;fill:rgb(89.453125%,89.453125%,89.453125%);fill-opacity:1;" d="M 15.5 11.648438 L 15.5 11.847656 L 0 11.847656 L 0 11.648438 Z M 15.5 11.648438 "/>
<path style=" stroke:none;fill-rule:nonzero;fill:rgb(89.453125%,89.453125%,89.453125%);fill-opacity:1;" d="M 15.5 12.148438 L 15.5 12.347656 L 0 12.347656 L 0 12.148438 Z M 15.5 12.148438 "/>
<path style=" stroke:none;fill-rule:nonzero;fill:rgb(89.453125%,89.453125%,89.453125%);fill-opacity:1;" d="M 15.5 12.648438 L 15.5 12.847656 L 0 12.847656 L 0 12.648438 Z M 15.5 12.648438 "/>
<path style=" stroke:none;fill-rule:nonzero;fill:rgb(89.453125%,89.453125%,89.453125%);fill-opacity:1;" d="M 15.5 13.148438 L 15.5 13.347656 L 0 13.347656 L 0 13.148438 Z M 15.5 13.148438 "/>
<path style=" stroke:none;fill-rule:nonzero;fill:rgb(89.453125%,89.453125%,89.453125%);fill-opacity:1;" d="M 15.5 13.648438 L 15.5 13.847656 L 0 13.847656 L 0 13.648438 Z M 15.5 13.648438 "/>
<path style=" stroke:none;fill-rule:nonzero;fill:rgb(19.53125%,19.53125%,19.53125%);fill-opacity:1;" d="M 1 1 L 14.5 1 L 14.5 14.5 L 1 14.5 Z M 1 1 "/>
<path style=" stroke:none;fill-rule:nonzero;fill:rgb(49.609375%,49.609375%,49.609375%);fill-opacity:1;" d="M 2.351563 13.5 C 2.351563 13.964844 1.648438 13.964844 1.648438 13.5 C 1.648438 13.035156 2.351563 13.035156 2.351563 13.5 "/>
</g>
</svg>
