<?xml version="1.0" encoding="UTF-8"?>
<svg xmlns="http://www.w3.org/2000/svg" xmlns:xlink="http://www.w3.org/1999/xlink" width="14.4mm" height="14.4mm" viewBox="0 0 14.4 14.4" version="1.1">
<g id="surface296">
<path style=" stroke:none;fill-rule:nonzero;fill:rgb(89.453125%,89.453125%,89.453125%);fill-opacity:1;" d="M 1.074219 0 L 1.324219 0 L 1.324219 14.398438 L 1.074219 14.398438 Z M 1.074219 0 "/>
<path style=" stroke:none;fill-rule:nonzero;fill:rgb(89.453125%,89.453125%,89.453125%);fill-opacity:1;" d="M 1.574219 0 L 1.824219 0 L 1.824219 14.398438 L 1.574219 14.398438 Z M 1.574219 0 "/>
<path style=" stroke:none;fill-rule:nonzero;fill:rgb(89.453125%,89.453125%,89.453125%);fill-opacity:1;" d="M 2.074219 0 L 2.324219 0 L 2.324219 14.398438 L 2.074219 14.398438 Z M 2.074219 0 "/>
<path style=" stroke:none;fill-rule:nonzero;fill:rgb(89.453125%,89.453125%,89.453125%);fill-opacity:1;" d="M 2.574219 0 L 2.824219 0 L 2.824219 14.398438 L 2.574219 14.398438 Z M 2.574219 0 "/>
<path style=" stroke:none;fill-rule:nonzero;fill:rgb(89.453125%,89.453125%,89.453125%);fill-opacity:1;" d="M 3.074219 0 L 3.324219 0 L 3.324219 14.398438 L 3.074219 14.398438 Z M 3.074219 0 "/>
<path style=" stroke:none;fill-rule:nonzero;fill:rgb(89.453125%,89.453125%,89.453125%);fill-opacity:1;" d="M 3.574219 0 L 3.824219 0 L 3.824219 14.398438 L 3.574219 14.398438 Z M 3.574219 0 "/>
<path style=" stroke:none;fill-rule:nonzero;fill:rgb(89.453125%,89.453125%,89.453125%);fill-opacity:1;" d="M 4.074219 0 L 4.324219 0 L 4.324219 14.398438 L 4.074219 14.398438 Z M 4.074219 0 "/>
<path style=" stroke:none;fill-rule:nonzero;fill:rgb(89.453125%,89.453125%,89.453125%);fill-opacity:1;" d="M 4.574219 0 L 4.824219 0 L 4.824219 14.398438 L 4.574219 14.398438 Z M 4.574219 0 "/>
<path style=" stroke:none;fill-rule:nonzero;fill:rgb(89.453125%,89.453125%,89.453125%);fill-opacity:1;" d="M 5.074219 0 L 5.324219 0 L 5.324219 14.398438 L 5.074219 14.398438 Z M 5.074219 0 "/>
<path style=" stroke:none;fill-rule:nonzero;fill:rgb(89.453125%,89.453125%,89.453125%);fill-opacity:1;" d="M 5.574219 0 L 5.824219 0 L 5.824219 14.398438 L 5.574219 14.398438 Z M 5.574219 0 "/>
<path style=" stroke:none;fill-rule:nonzero;fill:rgb(89.453125%,89.453125%,89.453125%);fill-opacity:1;" d="M 6.074219 0 L 6.324219 0 L 6.324219 14.398438 L 6.074219 14.398438 Z M 6.074219 0 "/>
<path style=" stroke:none;fill-rule:nonzero;fill:rgb(89.453125%,89.453125%,89.453125%);fill-opacity:1;" d="M 6.574219 0 L 6.824219 0 L 6.824219 14.398438 L 6.574219 14.398438 Z M 6.574219 0 "/>
<path style=" stroke:none;fill-rule:nonzero;fill:rgb(89.453125%,89.453125%,89.453125%);fill-opacity:1;" d="M 7.074219 0 L 7.324219 0 L 7.324219 14.398438 L 7.074219 14.398438 Z M 7.074219 0 "/>
<path style=" stroke:none;fill-rule:nonzero;fill:rgb(89.453125%,89.453125%,89.453125%);fill-opacity:1;" d="M 7.574219 0 L 7.824219 0 L 7.824219 14.398438 L 7.574219 14.398438 Z M 7.574219 0 "/>
<path style=" stroke:none;fill-rule:nonzero;fill:rgb(89.453125%,89.453125%,89.453125%);fill-opacity:1;" d="M 8.074219 0 L 8.324219 0 L 8.324219 14.398438 L 8.074219 14.398438 Z M 8.074219 0 "/>
<path style=" stroke:none;fill-rule:nonzero;fill:rgb(89.453125%,89.453125%,89.453125%);fill-opacity:1;" d="M 8.574219 0 L 8.824219 0 L 8.824219 14.398438 L 8.574219 14.398438 Z M 8.574219 0 "/>
<path style=" stroke:none;fill-rule:nonzero;fill:rgb(89.453125%,89.453125%,89.453125%);fill-opacity:1;" d="M 9.074219 0 L 9.324219 0 L 9.324219 14.398438 L 9.074219 14.398438 Z M 9.074219 0 "/>
<path style=" stroke:none;fill-rule:nonzero;fill:rgb(89.453125%,89.453125%,89.453125%);fill-opacity:1;" d="M 9.574219 0 L 9.824219 0 L 9.824219 14.398438 L 9.574219 14.398438 Z M 9.574219 0 "/>
<path style=" stroke:none;fill-rule:nonzero;fill:rgb(89.453125%,89.453125%,89.453125%);fill-opacity:1;" d="M 10.074219 0 L 10.324219 0 L 10.324219 14.398438 L 10.074219 14.398438 Z M 10.074219 0 "/>
<path style=" stroke:none;fill-rule:nonzero;fill:rgb(89.453125%,89.453125%,89.453125%);fill-opacity:1;" d="M 10.574219 0 L 10.824219 0 L 10.824219 14.398438 L 10.574219 14.398438 Z M 10.574219 0 "/>
<path style=" stroke:none;fill-rule:nonzero;fill:rgb(89.453125%,89.453125%,89.453125%);fill-opacity:1;" d="M 11.074219 0 L 11.324219 0 L 11.324219 14.398438 L 11.074219 14.398438 Z M 11.074219 0 "/>
<path style=" stroke:none;fill-rule:nonzero;fill:rgb(89.453125%,89.453125%,89.453125%);fill-opacity:1;" d="M 11.574219 0 L 11.824219 0 L 11.824219 14.398438 L 11.574219 14.398438 Z M 11.574219 0 "/>
<path style=" stroke:none;fill-rule:nonzero;fill:rgb(89.453125%,89.453125%,89.453125%);fill-opacity:1;" d="M 12.074219 0 L 12.324219 0 L 12.324219 14.398438 L 12.074219 14.398438 Z M 12.074219 0 "/>
<path style=" stroke:none;fill-rule:nonzero;fill:rgb(89.453125%,89.453125%,89.453125%);fill-opacity:1;" d="M 12.574219 0 L 12.824219 0 L 12.824219 14.398438 L 12.574219 14.398438 Z M 12.574219 0 "/>
<path style=" stroke:none;fill-rule:nonzero;fill:rgb(89.453125%,89.453125%,89.453125%);fill-opacity:1;" d="M 13.074219 0 L 13.324219 0 L 13.324219 14.398438 L 13.074219 14.398438 Z M 13.074219 0 "/>
<path style=" stroke:none;fill-rule:nonzero;fill:rgb(89.453125%,89.453125%,89.453125%);fill-opacity:1;" d="M 14.398438 1.074219 L 14.398438 1.324219 L 0 1.324219 L 0 1.074219 Z M 14.398438 1.074219 "/>
<path style=" stroke:none;fill-rule:nonzero;fill:rgb(89.453125%,89.453125%,89.453125%);fill-opacity:1;" d="M 14.398438 1.574219 L 14.398438 1.824219 L 0 1.824219 L 0 1.574219 Z M 14.398438 1.574219 "/>
<path style=" stroke:none;fill-rule:nonzero;fill:rgb(89.453125%,89.453125%,89.453125%);fill-opacity:1;" d="M 14.398438 2.074219 L 14.398438 2.324219 L 0 2.324219 L 0 2.074219 Z M 14.398438 2.074219 "/>
<path style=" stroke:none;fill-rule:nonzero;fill:rgb(89.453125%,89.453125%,89.453125%);fill-opacity:1;" d="M 14.398438 2.574219 L 14.398438 2.824219 L 0 2.824219 L 0 2.574219 Z M 14.398438 2.574219 "/>
<path style=" stroke:none;fill-rule:nonzero;fill:rgb(89.453125%,89.453125%,89.453125%);fill-opacity:1;" d="M 14.398438 3.074219 L 14.398438 3.324219 L 0 3.324219 L 0 3.074219 Z M 14.398438 3.074219 "/>
<path style=" stroke:none;fill-rule:nonzero;fill:rgb(89.453125%,89.453125%,89.453125%);fill-opacity:1;" d="M 14.398438 3.574219 L 14.398438 3.824219 L 0 3.824219 L 0 3.574219 Z M 14.398438 3.574219 "/>
<path style=" stroke:none;fill-rule:nonzero;fill:rgb(89.453125%,89.453125%,89.453125%);fill-opacity:1;" d="M 14.398438 4.074219 L 14.398438 4.324219 L 0 4.324219 L 0 4.074219 Z M 14.398438 4.074219 "/>
<path style=" stroke:none;fill-rule:nonzero;fill:rgb(89.453125%,89.453125%,89.453125%);fill-opacity:1;" d="M 14.398438 4.574219 L 14.398438 4.824219 L 0 4.824219 L 0 4.574219 Z M 14.398438 4.574219 "/>
<path style=" stroke:none;fill-rule:nonzero;fill:rgb(89.453125%,89.453125%,89.453125%);fill-opacity:1;" d="M 14.398438 5.074219 L 14.398438 5.324219 L 0 5.324219 L 0 5.074219 Z M 14.398438 5.074219 "/>
<path style=" stroke:none;fill-rule:nonzero;fill:rgb(89.453125%,89.453125%,89.453125%);fill-opacity:1;" d="M 14.398438 5.574219 L 14.398438 5.824219 L 0 5.824219 L 0 5.574219 Z M 14.398438 5.574219 "/>
<path style=" stroke:none;fill-rule:nonzero;fill:rgb(89.453125%,89.453125%,89.453125%);fill-opacity:1;" d="M 14.398438 6.074219 L 14.398438 6.324219 L 0 6.324219 L 0 6.074219 Z M 14.398438 6.074219 "/>
<path style=" stroke:none;fill-rule:nonzero;fill:rgb(89.453125%,89.453125%,89.453125%);fill-opacity:1;" d="M 14.398438 6.574219 L 14.398438 6.824219 L 0 6.824219 L 0 6.574219 Z M 14.398438 6.574219 "/>
<path style=" stroke:none;fill-rule:nonzero;fill:rgb(89.453125%,89.453125%,89.453125%);fill-opacity:1;" d="M 14.398438 7.074219 L 14.398438 7.324219 L 0 7.324219 L 0 7.074219 Z M 14.398438 7.074219 "/>
<path style=" stroke:none;fill-rule:nonzero;fill:rgb(89.453125%,89.453125%,89.453125%);fill-opacity:1;" d="M 14.398438 7.574219 L 14.398438 7.824219 L 0 7.824219 L 0 7.574219 Z M 14.398438 7.574219 "/>
<path style=" stroke:none;fill-rule:nonzero;fill:rgb(89.453125%,89.453125%,89.453125%);fill-opacity:1;" d="M 14.398438 8.074219 L 14.398438 8.324219 L 0 8.324219 L 0 8.074219 Z M 14.398438 8.074219 "/>
<path style=" stroke:none;fill-rule:nonzero;fill:rgb(89.453125%,89.453125%,89.453125%);fill-opacity:1;" d="M 14.398438 8.574219 L 14.398438 8.824219 L 0 8.824219 L 0 8.574219 Z M 14.398438 8.574219 "/>
<path style=" stroke:none;fill-rule:nonzero;fill:rgb(89.453125%,89.453125%,89.453125%);fill-opacity:1;" d="M 14.398438 9.074219 L 14.398438 9.324219 L 0 9.324219 L 0 9.074219 Z M 14.398438 9.074219 "/>
<path style=" stroke:none;fill-rule:nonzero;fill:rgb(89.453125%,89.453125%,89.453125%);fill-opacity:1;" d="M 14.398438 9.574219 L 14.398438 9.824219 L 0 9.824219 L 0 9.574219 Z M 14.398438 9.574219 "/>
<path style=" stroke:none;fill-rule:nonzero;fill:rgb(89.453125%,89.453125%,89.453125%);fill-opacity:1;" d="M 14.398438 10.074219 L 14.398438 10.324219 L 0 10.324219 L 0 10.074219 Z M 14.398438 10.074219 "/>
<path style=" stroke:none;fill-rule:nonzero;fill:rgb(89.453125%,89.453125%,89.453125%);fill-opacity:1;" d="M 14.398438 10.574219 L 14.398438 10.824219 L 0 10.824219 L 0 10.574219 Z M 14.398438 10.574219 "/>
<path style=" stroke:none;fill-rule:nonzero;fill:rgb(89.453125%,89.453125%,89.453125%);fill-opacity:1;" d="M 14.398438 11.074219 L 14.398438 11.324219 L 0 11.324219 L 0 11.074219 Z M 14.398438 11.074219 "/>
<path style=" stroke:none;fill-rule:nonzero;fill:rgb(89.453125%,89.453125%,89.453125%);fill-opacity:1;" d="M 14.398438 11.574219 L 14.398438 11.824219 L 0 11.824219 L 0 11.574219 Z M 14.398438 11.574219 "/>
<path style=" stroke:none;fill-rule:nonzero;fill:rgb(89.453125%,89.453125%,89.453125%);fill-opacity:1;" d="M 14.398438 12.074219 L 14.398438 12.324219 L 0 12.324219 L 0 12.074219 Z M 14.398438 12.074219 "/>
<path style=" stroke:none;fill-rule:nonzero;fill:rgb(89.453125%,89.453125%,89.453125%);fill-opacity:1;" d="M 14.398438 12.574219 L 14.398438 12.824219 L 0 12.824219 L 0 12.574219 Z M 14.398438 12.574219 "/>
<path style=" stroke:none;fill-rule:nonzero;fill:rgb(89.453125%,89.453125%,89.453125%);fill-opacity:1;" d="M 14.398438 13.074219 L 14.398438 13.324219 L 0 13.324219 L 0 13.074219 Z M 14.398438 13.074219 "/>
<path style=" stroke:none;fill-rule:nonzero;fill:rgb(19.53125%,19.53125%,19.53125%);fill-opacity:1;" d="M 0.199219 0.199219 L 14.199219 0.199219 L 14.199219 14.199219 L 0.199219 14.199219 Z M 0.199219 0.199219 "/>
<path style=" stroke:none;fill-rule:nonzero;fill:rgb(49.609375%,49.609375%,49.609375%);fill-opacity:1;" d="M 1.148438 13.601563 C 1.148438 14.066406 0.449219 14.066406 0.449219 13.601563 C 0.449219 13.132813 1.148438 13.132813 1.148438 13.601563 "/>
</g>
</svg>
