<?xml version="1.0" encoding="UTF-8"?>
<svg xmlns="http://www.w3.org/2000/svg" xmlns:xlink="http://www.w3.org/1999/xlink" width="5.9mm" height="5.9mm" viewBox="0 0 5.9 5.9" version="1.1">
<g id="surface266">
<path style=" stroke:none;fill-rule:nonzero;fill:rgb(89.453125%,89.453125%,89.453125%);fill-opacity:1;" d="M 1.074219 0 L 1.324219 0 L 1.324219 5.898438 L 1.074219 5.898438 Z M 1.074219 0 "/>
<path style=" stroke:none;fill-rule:nonzero;fill:rgb(89.453125%,89.453125%,89.453125%);fill-opacity:1;" d="M 1.574219 0 L 1.824219 0 L 1.824219 5.898438 L 1.574219 5.898438 Z M 1.574219 0 "/>
<path style=" stroke:none;fill-rule:nonzero;fill:rgb(89.453125%,89.453125%,89.453125%);fill-opacity:1;" d="M 2.074219 0 L 2.324219 0 L 2.324219 5.898438 L 2.074219 5.898438 Z M 2.074219 0 "/>
<path style=" stroke:none;fill-rule:nonzero;fill:rgb(89.453125%,89.453125%,89.453125%);fill-opacity:1;" d="M 2.574219 0 L 2.824219 0 L 2.824219 5.898438 L 2.574219 5.898438 Z M 2.574219 0 "/>
<path style=" stroke:none;fill-rule:nonzero;fill:rgb(89.453125%,89.453125%,89.453125%);fill-opacity:1;" d="M 3.074219 0 L 3.324219 0 L 3.324219 5.898438 L 3.074219 5.898438 Z M 3.074219 0 "/>
<path style=" stroke:none;fill-rule:nonzero;fill:rgb(89.453125%,89.453125%,89.453125%);fill-opacity:1;" d="M 3.574219 0 L 3.824219 0 L 3.824219 5.898438 L 3.574219 5.898438 Z M 3.574219 0 "/>
<path style=" stroke:none;fill-rule:nonzero;fill:rgb(89.453125%,89.453125%,89.453125%);fill-opacity:1;" d="M 4.074219 0 L 4.324219 0 L 4.324219 5.898438 L 4.074219 5.898438 Z M 4.074219 0 "/>
<path style=" stroke:none;fill-rule:nonzero;fill:rgb(89.453125%,89.453125%,89.453125%);fill-opacity:1;" d="M 4.574219 0 L 4.824219 0 L 4.824219 5.898438 L 4.574219 5.898438 Z M 4.574219 0 "/>
<path style=" stroke:none;fill-rule:nonzero;fill:rgb(89.453125%,89.453125%,89.453125%);fill-opacity:1;" d="M 5.898438 1.074219 L 5.898438 1.324219 L 0 1.324219 L 0 1.074219 Z M 5.898438 1.074219 "/>
<path style=" stroke:none;fill-rule:nonzero;fill:rgb(89.453125%,89.453125%,89.453125%);fill-opacity:1;" d="M 5.898438 1.574219 L 5.898438 1.824219 L 0 1.824219 L 0 1.574219 Z M 5.898438 1.574219 "/>
<path style=" stroke:none;fill-rule:nonzero;fill:rgb(89.453125%,89.453125%,89.453125%);fill-opacity:1;" d="M 5.898438 2.074219 L 5.898438 2.324219 L 0 2.324219 L 0 2.074219 Z M 5.898438 2.074219 "/>
<path style=" stroke:none;fill-rule:nonzero;fill:rgb(89.453125%,89.453125%,89.453125%);fill-opacity:1;" d="M 5.898438 2.574219 L 5.898438 2.824219 L 0 2.824219 L 0 2.574219 Z M 5.898438 2.574219 "/>
<path style=" stroke:none;fill-rule:nonzero;fill:rgb(89.453125%,89.453125%,89.453125%);fill-opacity:1;" d="M 5.898438 3.074219 L 5.898438 3.324219 L 0 3.324219 L 0 3.074219 Z M 5.898438 3.074219 "/>
<path style=" stroke:none;fill-rule:nonzero;fill:rgb(89.453125%,89.453125%,89.453125%);fill-opacity:1;" d="M 5.898438 3.574219 L 5.898438 3.824219 L 0 3.824219 L 0 3.574219 Z M 5.898438 3.574219 "/>
<path style=" stroke:none;fill-rule:nonzero;fill:rgb(89.453125%,89.453125%,89.453125%);fill-opacity:1;" d="M 5.898438 4.074219 L 5.898438 4.324219 L 0 4.324219 L 0 4.074219 Z M 5.898438 4.074219 "/>
<path style=" stroke:none;fill-rule:nonzero;fill:rgb(89.453125%,89.453125%,89.453125%);fill-opacity:1;" d="M 5.898438 4.574219 L 5.898438 4.824219 L 0 4.824219 L 0 4.574219 Z M 5.898438 4.574219 "/>
<path style=" stroke:none;fill-rule:nonzero;fill:rgb(19.53125%,19.53125%,19.53125%);fill-opacity:1;" d="M 0.199219 0.199219 L 5.699219 0.199219 L 5.699219 5.699219 L 0.199219 5.699219 Z M 0.199219 0.199219 "/>
<path style=" stroke:none;fill-rule:nonzero;fill:rgb(49.609375%,49.609375%,49.609375%);fill-opacity:1;" d="M 1.148438 5.101563 C 1.148438 5.566406 0.449219 5.566406 0.449219 5.101563 C 0.449219 4.632813 1.148438 4.632813 1.148438 5.101563 "/>
</g>
</svg>
