<?xml version="1.0" encoding="UTF-8"?>
<svg xmlns="http://www.w3.org/2000/svg" xmlns:xlink="http://www.w3.org/1999/xlink" width="11.35mm" height="6.2mm" viewBox="0 0 11.35 6.2" version="1.1">
<g id="surface26">
<path style=" stroke:none;fill-rule:nonzero;fill:rgb(89.453125%,89.453125%,89.453125%);fill-opacity:1;" d="M 0.339844 0 L 0.851563 0 L 0.851563 6.199219 L 0.339844 6.199219 Z M 0.339844 0 "/>
<path style=" stroke:none;fill-rule:nonzero;fill:rgb(89.453125%,89.453125%,89.453125%);fill-opacity:1;" d="M 1.609375 0 L 2.121094 0 L 2.121094 6.199219 L 1.609375 6.199219 Z M 1.609375 0 "/>
<path style=" stroke:none;fill-rule:nonzero;fill:rgb(89.453125%,89.453125%,89.453125%);fill-opacity:1;" d="M 2.878906 0 L 3.390625 0 L 3.390625 6.199219 L 2.878906 6.199219 Z M 2.878906 0 "/>
<path style=" stroke:none;fill-rule:nonzero;fill:rgb(89.453125%,89.453125%,89.453125%);fill-opacity:1;" d="M 4.148438 0 L 4.660156 0 L 4.660156 6.199219 L 4.148438 6.199219 Z M 4.148438 0 "/>
<path style=" stroke:none;fill-rule:nonzero;fill:rgb(89.453125%,89.453125%,89.453125%);fill-opacity:1;" d="M 5.421875 0 L 5.933594 0 L 5.933594 6.199219 L 5.421875 6.199219 Z M 5.421875 0 "/>
<path style=" stroke:none;fill-rule:nonzero;fill:rgb(89.453125%,89.453125%,89.453125%);fill-opacity:1;" d="M 6.691406 0 L 7.203125 0 L 7.203125 6.199219 L 6.691406 6.199219 Z M 6.691406 0 "/>
<path style=" stroke:none;fill-rule:nonzero;fill:rgb(89.453125%,89.453125%,89.453125%);fill-opacity:1;" d="M 7.960938 0 L 8.472656 0 L 8.472656 6.199219 L 7.960938 6.199219 Z M 7.960938 0 "/>
<path style=" stroke:none;fill-rule:nonzero;fill:rgb(89.453125%,89.453125%,89.453125%);fill-opacity:1;" d="M 9.230469 0 L 9.742188 0 L 9.742188 6.199219 L 9.230469 6.199219 Z M 9.230469 0 "/>
<path style=" stroke:none;fill-rule:nonzero;fill:rgb(89.453125%,89.453125%,89.453125%);fill-opacity:1;" d="M 10.5 0 L 11.011719 0 L 11.011719 6.199219 L 10.5 6.199219 Z M 10.5 0 "/>
<path style=" stroke:none;fill-rule:nonzero;fill:rgb(19.53125%,19.53125%,19.53125%);fill-opacity:1;" d="M 0 1.101563 L 11.351563 1.101563 L 11.351563 5.101563 L 0 5.101563 Z M 0 1.101563 "/>
<path style=" stroke:none;fill-rule:nonzero;fill:rgb(49.609375%,49.609375%,49.609375%);fill-opacity:1;" d="M 1.050781 4.398438 C 1.050781 4.867188 0.351563 4.867188 0.351563 4.398438 C 0.351563 3.933594 1.050781 3.933594 1.050781 4.398438 "/>
</g>
</svg>
