<?xml version="1.0" encoding="UTF-8"?>
<svg xmlns="http://www.w3.org/2000/svg" xmlns:xlink="http://www.w3.org/1999/xlink" width="7.54mm" height="10.3mm" viewBox="0 0 7.54 10.3" version="1.1">
<g id="surface41">
<path style=" stroke:none;fill-rule:nonzero;fill:rgb(89.453125%,89.453125%,89.453125%);fill-opacity:1;" d="M 0.339844 0 L 0.851563 0 L 0.851563 10.300781 L 0.339844 10.300781 Z M 0.339844 0 "/>
<path style=" stroke:none;fill-rule:nonzero;fill:rgb(89.453125%,89.453125%,89.453125%);fill-opacity:1;" d="M 1.609375 0 L 2.121094 0 L 2.121094 10.300781 L 1.609375 10.300781 Z M 1.609375 0 "/>
<path style=" stroke:none;fill-rule:nonzero;fill:rgb(89.453125%,89.453125%,89.453125%);fill-opacity:1;" d="M 2.878906 0 L 3.390625 0 L 3.390625 10.300781 L 2.878906 10.300781 Z M 2.878906 0 "/>
<path style=" stroke:none;fill-rule:nonzero;fill:rgb(89.453125%,89.453125%,89.453125%);fill-opacity:1;" d="M 4.148438 0 L 4.660156 0 L 4.660156 10.300781 L 4.148438 10.300781 Z M 4.148438 0 "/>
<path style=" stroke:none;fill-rule:nonzero;fill:rgb(89.453125%,89.453125%,89.453125%);fill-opacity:1;" d="M 5.421875 0 L 5.933594 0 L 5.933594 10.300781 L 5.421875 10.300781 Z M 5.421875 0 "/>
<path style=" stroke:none;fill-rule:nonzero;fill:rgb(89.453125%,89.453125%,89.453125%);fill-opacity:1;" d="M 6.691406 0 L 7.203125 0 L 7.203125 10.300781 L 6.691406 10.300781 Z M 6.691406 0 "/>
<path style=" stroke:none;fill-rule:nonzero;fill:rgb(19.53125%,19.53125%,19.53125%);fill-opacity:1;" d="M 0 1.398438 L 7.539063 1.398438 L 7.539063 8.898438 L 0 8.898438 Z M 0 1.398438 "/>
<path style=" stroke:none;fill-rule:nonzero;fill:rgb(49.609375%,49.609375%,49.609375%);fill-opacity:1;" d="M 1.050781 8.5 C 1.050781 8.964844 0.351563 8.964844 0.351563 8.5 C 0.351563 8.035156 1.050781 8.035156 1.050781 8.5 "/>
</g>
</svg>
