<?xml version="1.0" encoding="UTF-8"?>
<svg xmlns="http://www.w3.org/2000/svg" xmlns:xlink="http://www.w3.org/1999/xlink" width="8.715mm" height="6.4mm" viewBox="0 0 8.715 6.4" version="1.1">
<g id="surface156">
<path style=" stroke:none;fill-rule:nonzero;fill:rgb(89.453125%,89.453125%,89.453125%);fill-opacity:1;" d="M 0.4375 0 L 0.65625 0 L 0.65625 6.398438 L 0.4375 6.398438 Z M 0.4375 0 "/>
<path style=" stroke:none;fill-rule:nonzero;fill:rgb(89.453125%,89.453125%,89.453125%);fill-opacity:1;" d="M 1.074219 0 L 1.292969 0 L 1.292969 6.398438 L 1.074219 6.398438 Z M 1.074219 0 "/>
<path style=" stroke:none;fill-rule:nonzero;fill:rgb(89.453125%,89.453125%,89.453125%);fill-opacity:1;" d="M 1.707031 0 L 1.925781 0 L 1.925781 6.398438 L 1.707031 6.398438 Z M 1.707031 0 "/>
<path style=" stroke:none;fill-rule:nonzero;fill:rgb(89.453125%,89.453125%,89.453125%);fill-opacity:1;" d="M 2.34375 0 L 2.5625 0 L 2.5625 6.398438 L 2.34375 6.398438 Z M 2.34375 0 "/>
<path style=" stroke:none;fill-rule:nonzero;fill:rgb(89.453125%,89.453125%,89.453125%);fill-opacity:1;" d="M 2.976563 0 L 3.195313 0 L 3.195313 6.398438 L 2.976563 6.398438 Z M 2.976563 0 "/>
<path style=" stroke:none;fill-rule:nonzero;fill:rgb(89.453125%,89.453125%,89.453125%);fill-opacity:1;" d="M 3.613281 0 L 3.832031 0 L 3.832031 6.398438 L 3.613281 6.398438 Z M 3.613281 0 "/>
<path style=" stroke:none;fill-rule:nonzero;fill:rgb(89.453125%,89.453125%,89.453125%);fill-opacity:1;" d="M 4.246094 0 L 4.464844 0 L 4.464844 6.398438 L 4.246094 6.398438 Z M 4.246094 0 "/>
<path style=" stroke:none;fill-rule:nonzero;fill:rgb(89.453125%,89.453125%,89.453125%);fill-opacity:1;" d="M 4.882813 0 L 5.101563 0 L 5.101563 6.398438 L 4.882813 6.398438 Z M 4.882813 0 "/>
<path style=" stroke:none;fill-rule:nonzero;fill:rgb(89.453125%,89.453125%,89.453125%);fill-opacity:1;" d="M 5.515625 0 L 5.734375 0 L 5.734375 6.398438 L 5.515625 6.398438 Z M 5.515625 0 "/>
<path style=" stroke:none;fill-rule:nonzero;fill:rgb(89.453125%,89.453125%,89.453125%);fill-opacity:1;" d="M 6.152344 0 L 6.371094 0 L 6.371094 6.398438 L 6.152344 6.398438 Z M 6.152344 0 "/>
<path style=" stroke:none;fill-rule:nonzero;fill:rgb(89.453125%,89.453125%,89.453125%);fill-opacity:1;" d="M 6.789063 0 L 7.007813 0 L 7.007813 6.398438 L 6.789063 6.398438 Z M 6.789063 0 "/>
<path style=" stroke:none;fill-rule:nonzero;fill:rgb(89.453125%,89.453125%,89.453125%);fill-opacity:1;" d="M 7.421875 0 L 7.640625 0 L 7.640625 6.398438 L 7.421875 6.398438 Z M 7.421875 0 "/>
<path style=" stroke:none;fill-rule:nonzero;fill:rgb(89.453125%,89.453125%,89.453125%);fill-opacity:1;" d="M 8.058594 0 L 8.277344 0 L 8.277344 6.398438 L 8.058594 6.398438 Z M 8.058594 0 "/>
<path style=" stroke:none;fill-rule:nonzero;fill:rgb(19.53125%,19.53125%,19.53125%);fill-opacity:1;" d="M 0 1 L 8.714844 1 L 8.714844 5.398438 L 0 5.398438 Z M 0 1 "/>
<path style=" stroke:none;fill-rule:nonzero;fill:rgb(49.609375%,49.609375%,49.609375%);fill-opacity:1;" d="M 1.050781 4.601563 C 1.050781 5.066406 0.351563 5.066406 0.351563 4.601563 C 0.351563 4.132813 1.050781 4.132813 1.050781 4.601563 "/>
</g>
</svg>
