<?xml version="1.0" encoding="UTF-8"?>
<svg xmlns="http://www.w3.org/2000/svg" xmlns:xlink="http://www.w3.org/1999/xlink" width="4.905mm" height="6.4mm" viewBox="0 0 4.905 6.4" version="1.1">
<g id="surface126">
<path style=" stroke:none;fill-rule:nonzero;fill:rgb(89.453125%,89.453125%,89.453125%);fill-opacity:1;" d="M 0.4375 0 L 0.65625 0 L 0.65625 6.398438 L 0.4375 6.398438 Z M 0.4375 0 "/>
<path style=" stroke:none;fill-rule:nonzero;fill:rgb(89.453125%,89.453125%,89.453125%);fill-opacity:1;" d="M 1.074219 0 L 1.292969 0 L 1.292969 6.398438 L 1.074219 6.398438 Z M 1.074219 0 "/>
<path style=" stroke:none;fill-rule:nonzero;fill:rgb(89.453125%,89.453125%,89.453125%);fill-opacity:1;" d="M 1.707031 0 L 1.925781 0 L 1.925781 6.398438 L 1.707031 6.398438 Z M 1.707031 0 "/>
<path style=" stroke:none;fill-rule:nonzero;fill:rgb(89.453125%,89.453125%,89.453125%);fill-opacity:1;" d="M 2.34375 0 L 2.5625 0 L 2.5625 6.398438 L 2.34375 6.398438 Z M 2.34375 0 "/>
<path style=" stroke:none;fill-rule:nonzero;fill:rgb(89.453125%,89.453125%,89.453125%);fill-opacity:1;" d="M 2.976563 0 L 3.195313 0 L 3.195313 6.398438 L 2.976563 6.398438 Z M 2.976563 0 "/>
<path style=" stroke:none;fill-rule:nonzero;fill:rgb(89.453125%,89.453125%,89.453125%);fill-opacity:1;" d="M 3.613281 0 L 3.832031 0 L 3.832031 6.398438 L 3.613281 6.398438 Z M 3.613281 0 "/>
<path style=" stroke:none;fill-rule:nonzero;fill:rgb(89.453125%,89.453125%,89.453125%);fill-opacity:1;" d="M 4.246094 0 L 4.464844 0 L 4.464844 6.398438 L 4.246094 6.398438 Z M 4.246094 0 "/>
<path style=" stroke:none;fill-rule:nonzero;fill:rgb(19.53125%,19.53125%,19.53125%);fill-opacity:1;" d="M 0 1 L 4.90625 1 L 4.90625 5.398438 L 0 5.398438 Z M 0 1 "/>
<path style=" stroke:none;fill-rule:nonzero;fill:rgb(49.609375%,49.609375%,49.609375%);fill-opacity:1;" d="M 1.050781 4.601563 C 1.050781 5.066406 0.351563 5.066406 0.351563 4.601563 C 0.351563 4.132813 1.050781 4.132813 1.050781 4.601563 "/>
</g>
</svg>
