<?xml version="1.0" encoding="UTF-8"?>
<svg xmlns="http://www.w3.org/2000/svg" xmlns:xlink="http://www.w3.org/1999/xlink" width="44.2mm" height="44.2mm" viewBox="0 0 44.2 44.2" version="1.1">
<g id="surface361">
<path style=" stroke:none;fill-rule:nonzero;fill:rgb(89.453125%,89.453125%,89.453125%);fill-opacity:1;" d="M 1.550781 0 L 1.851563 0 L 1.851563 44.199219 L 1.550781 44.199219 Z M 1.550781 0 "/>
<path style=" stroke:none;fill-rule:nonzero;fill:rgb(89.453125%,89.453125%,89.453125%);fill-opacity:1;" d="M 2.351563 0 L 2.652344 0 L 2.652344 44.199219 L 2.351563 44.199219 Z M 2.351563 0 "/>
<path style=" stroke:none;fill-rule:nonzero;fill:rgb(89.453125%,89.453125%,89.453125%);fill-opacity:1;" d="M 3.148438 0 L 3.449219 0 L 3.449219 44.199219 L 3.148438 44.199219 Z M 3.148438 0 "/>
<path style=" stroke:none;fill-rule:nonzero;fill:rgb(89.453125%,89.453125%,89.453125%);fill-opacity:1;" d="M 3.949219 0 L 4.25 0 L 4.25 44.199219 L 3.949219 44.199219 Z M 3.949219 0 "/>
<path style=" stroke:none;fill-rule:nonzero;fill:rgb(89.453125%,89.453125%,89.453125%);fill-opacity:1;" d="M 4.75 0 L 5.050781 0 L 5.050781 44.199219 L 4.75 44.199219 Z M 4.75 0 "/>
<path style=" stroke:none;fill-rule:nonzero;fill:rgb(89.453125%,89.453125%,89.453125%);fill-opacity:1;" d="M 5.550781 0 L 5.851563 0 L 5.851563 44.199219 L 5.550781 44.199219 Z M 5.550781 0 "/>
<path style=" stroke:none;fill-rule:nonzero;fill:rgb(89.453125%,89.453125%,89.453125%);fill-opacity:1;" d="M 6.351563 0 L 6.652344 0 L 6.652344 44.199219 L 6.351563 44.199219 Z M 6.351563 0 "/>
<path style=" stroke:none;fill-rule:nonzero;fill:rgb(89.453125%,89.453125%,89.453125%);fill-opacity:1;" d="M 7.148438 0 L 7.449219 0 L 7.449219 44.199219 L 7.148438 44.199219 Z M 7.148438 0 "/>
<path style=" stroke:none;fill-rule:nonzero;fill:rgb(89.453125%,89.453125%,89.453125%);fill-opacity:1;" d="M 7.949219 0 L 8.25 0 L 8.25 44.199219 L 7.949219 44.199219 Z M 7.949219 0 "/>
<path style=" stroke:none;fill-rule:nonzero;fill:rgb(89.453125%,89.453125%,89.453125%);fill-opacity:1;" d="M 8.75 0 L 9.050781 0 L 9.050781 44.199219 L 8.75 44.199219 Z M 8.75 0 "/>
<path style=" stroke:none;fill-rule:nonzero;fill:rgb(89.453125%,89.453125%,89.453125%);fill-opacity:1;" d="M 9.550781 0 L 9.851563 0 L 9.851563 44.199219 L 9.550781 44.199219 Z M 9.550781 0 "/>
<path style=" stroke:none;fill-rule:nonzero;fill:rgb(89.453125%,89.453125%,89.453125%);fill-opacity:1;" d="M 10.351563 0 L 10.652344 0 L 10.652344 44.199219 L 10.351563 44.199219 Z M 10.351563 0 "/>
<path style=" stroke:none;fill-rule:nonzero;fill:rgb(89.453125%,89.453125%,89.453125%);fill-opacity:1;" d="M 11.148438 0 L 11.449219 0 L 11.449219 44.199219 L 11.148438 44.199219 Z M 11.148438 0 "/>
<path style=" stroke:none;fill-rule:nonzero;fill:rgb(89.453125%,89.453125%,89.453125%);fill-opacity:1;" d="M 11.949219 0 L 12.25 0 L 12.25 44.199219 L 11.949219 44.199219 Z M 11.949219 0 "/>
<path style=" stroke:none;fill-rule:nonzero;fill:rgb(89.453125%,89.453125%,89.453125%);fill-opacity:1;" d="M 12.75 0 L 13.050781 0 L 13.050781 44.199219 L 12.75 44.199219 Z M 12.75 0 "/>
<path style=" stroke:none;fill-rule:nonzero;fill:rgb(89.453125%,89.453125%,89.453125%);fill-opacity:1;" d="M 13.550781 0 L 13.851563 0 L 13.851563 44.199219 L 13.550781 44.199219 Z M 13.550781 0 "/>
<path style=" stroke:none;fill-rule:nonzero;fill:rgb(89.453125%,89.453125%,89.453125%);fill-opacity:1;" d="M 14.351563 0 L 14.652344 0 L 14.652344 44.199219 L 14.351563 44.199219 Z M 14.351563 0 "/>
<path style=" stroke:none;fill-rule:nonzero;fill:rgb(89.453125%,89.453125%,89.453125%);fill-opacity:1;" d="M 15.148438 0 L 15.449219 0 L 15.449219 44.199219 L 15.148438 44.199219 Z M 15.148438 0 "/>
<path style=" stroke:none;fill-rule:nonzero;fill:rgb(89.453125%,89.453125%,89.453125%);fill-opacity:1;" d="M 15.949219 0 L 16.25 0 L 16.25 44.199219 L 15.949219 44.199219 Z M 15.949219 0 "/>
<path style=" stroke:none;fill-rule:nonzero;fill:rgb(89.453125%,89.453125%,89.453125%);fill-opacity:1;" d="M 16.75 0 L 17.050781 0 L 17.050781 44.199219 L 16.75 44.199219 Z M 16.75 0 "/>
<path style=" stroke:none;fill-rule:nonzero;fill:rgb(89.453125%,89.453125%,89.453125%);fill-opacity:1;" d="M 17.550781 0 L 17.851563 0 L 17.851563 44.199219 L 17.550781 44.199219 Z M 17.550781 0 "/>
<path style=" stroke:none;fill-rule:nonzero;fill:rgb(89.453125%,89.453125%,89.453125%);fill-opacity:1;" d="M 18.351563 0 L 18.652344 0 L 18.652344 44.199219 L 18.351563 44.199219 Z M 18.351563 0 "/>
<path style=" stroke:none;fill-rule:nonzero;fill:rgb(89.453125%,89.453125%,89.453125%);fill-opacity:1;" d="M 19.148438 0 L 19.449219 0 L 19.449219 44.199219 L 19.148438 44.199219 Z M 19.148438 0 "/>
<path style=" stroke:none;fill-rule:nonzero;fill:rgb(89.453125%,89.453125%,89.453125%);fill-opacity:1;" d="M 19.949219 0 L 20.25 0 L 20.25 44.199219 L 19.949219 44.199219 Z M 19.949219 0 "/>
<path style=" stroke:none;fill-rule:nonzero;fill:rgb(89.453125%,89.453125%,89.453125%);fill-opacity:1;" d="M 20.75 0 L 21.050781 0 L 21.050781 44.199219 L 20.75 44.199219 Z M 20.75 0 "/>
<path style=" stroke:none;fill-rule:nonzero;fill:rgb(89.453125%,89.453125%,89.453125%);fill-opacity:1;" d="M 21.550781 0 L 21.851563 0 L 21.851563 44.199219 L 21.550781 44.199219 Z M 21.550781 0 "/>
<path style=" stroke:none;fill-rule:nonzero;fill:rgb(89.453125%,89.453125%,89.453125%);fill-opacity:1;" d="M 22.351563 0 L 22.652344 0 L 22.652344 44.199219 L 22.351563 44.199219 Z M 22.351563 0 "/>
<path style=" stroke:none;fill-rule:nonzero;fill:rgb(89.453125%,89.453125%,89.453125%);fill-opacity:1;" d="M 23.148438 0 L 23.449219 0 L 23.449219 44.199219 L 23.148438 44.199219 Z M 23.148438 0 "/>
<path style=" stroke:none;fill-rule:nonzero;fill:rgb(89.453125%,89.453125%,89.453125%);fill-opacity:1;" d="M 23.949219 0 L 24.25 0 L 24.25 44.199219 L 23.949219 44.199219 Z M 23.949219 0 "/>
<path style=" stroke:none;fill-rule:nonzero;fill:rgb(89.453125%,89.453125%,89.453125%);fill-opacity:1;" d="M 24.75 0 L 25.050781 0 L 25.050781 44.199219 L 24.75 44.199219 Z M 24.75 0 "/>
<path style=" stroke:none;fill-rule:nonzero;fill:rgb(89.453125%,89.453125%,89.453125%);fill-opacity:1;" d="M 25.550781 0 L 25.851563 0 L 25.851563 44.199219 L 25.550781 44.199219 Z M 25.550781 0 "/>
<path style=" stroke:none;fill-rule:nonzero;fill:rgb(89.453125%,89.453125%,89.453125%);fill-opacity:1;" d="M 26.351563 0 L 26.652344 0 L 26.652344 44.199219 L 26.351563 44.199219 Z M 26.351563 0 "/>
<path style=" stroke:none;fill-rule:nonzero;fill:rgb(89.453125%,89.453125%,89.453125%);fill-opacity:1;" d="M 27.148438 0 L 27.449219 0 L 27.449219 44.199219 L 27.148438 44.199219 Z M 27.148438 0 "/>
<path style=" stroke:none;fill-rule:nonzero;fill:rgb(89.453125%,89.453125%,89.453125%);fill-opacity:1;" d="M 27.949219 0 L 28.25 0 L 28.25 44.199219 L 27.949219 44.199219 Z M 27.949219 0 "/>
<path style=" stroke:none;fill-rule:nonzero;fill:rgb(89.453125%,89.453125%,89.453125%);fill-opacity:1;" d="M 28.75 0 L 29.050781 0 L 29.050781 44.199219 L 28.75 44.199219 Z M 28.75 0 "/>
<path style=" stroke:none;fill-rule:nonzero;fill:rgb(89.453125%,89.453125%,89.453125%);fill-opacity:1;" d="M 29.550781 0 L 29.851563 0 L 29.851563 44.199219 L 29.550781 44.199219 Z M 29.550781 0 "/>
<path style=" stroke:none;fill-rule:nonzero;fill:rgb(89.453125%,89.453125%,89.453125%);fill-opacity:1;" d="M 30.351563 0 L 30.652344 0 L 30.652344 44.199219 L 30.351563 44.199219 Z M 30.351563 0 "/>
<path style=" stroke:none;fill-rule:nonzero;fill:rgb(89.453125%,89.453125%,89.453125%);fill-opacity:1;" d="M 31.148438 0 L 31.449219 0 L 31.449219 44.199219 L 31.148438 44.199219 Z M 31.148438 0 "/>
<path style=" stroke:none;fill-rule:nonzero;fill:rgb(89.453125%,89.453125%,89.453125%);fill-opacity:1;" d="M 31.949219 0 L 32.25 0 L 32.25 44.199219 L 31.949219 44.199219 Z M 31.949219 0 "/>
<path style=" stroke:none;fill-rule:nonzero;fill:rgb(89.453125%,89.453125%,89.453125%);fill-opacity:1;" d="M 32.75 0 L 33.050781 0 L 33.050781 44.199219 L 32.75 44.199219 Z M 32.75 0 "/>
<path style=" stroke:none;fill-rule:nonzero;fill:rgb(89.453125%,89.453125%,89.453125%);fill-opacity:1;" d="M 33.550781 0 L 33.851563 0 L 33.851563 44.199219 L 33.550781 44.199219 Z M 33.550781 0 "/>
<path style=" stroke:none;fill-rule:nonzero;fill:rgb(89.453125%,89.453125%,89.453125%);fill-opacity:1;" d="M 34.351563 0 L 34.652344 0 L 34.652344 44.199219 L 34.351563 44.199219 Z M 34.351563 0 "/>
<path style=" stroke:none;fill-rule:nonzero;fill:rgb(89.453125%,89.453125%,89.453125%);fill-opacity:1;" d="M 35.148438 0 L 35.449219 0 L 35.449219 44.199219 L 35.148438 44.199219 Z M 35.148438 0 "/>
<path style=" stroke:none;fill-rule:nonzero;fill:rgb(89.453125%,89.453125%,89.453125%);fill-opacity:1;" d="M 35.949219 0 L 36.25 0 L 36.25 44.199219 L 35.949219 44.199219 Z M 35.949219 0 "/>
<path style=" stroke:none;fill-rule:nonzero;fill:rgb(89.453125%,89.453125%,89.453125%);fill-opacity:1;" d="M 36.75 0 L 37.050781 0 L 37.050781 44.199219 L 36.75 44.199219 Z M 36.75 0 "/>
<path style=" stroke:none;fill-rule:nonzero;fill:rgb(89.453125%,89.453125%,89.453125%);fill-opacity:1;" d="M 37.550781 0 L 37.851563 0 L 37.851563 44.199219 L 37.550781 44.199219 Z M 37.550781 0 "/>
<path style=" stroke:none;fill-rule:nonzero;fill:rgb(89.453125%,89.453125%,89.453125%);fill-opacity:1;" d="M 38.351563 0 L 38.652344 0 L 38.652344 44.199219 L 38.351563 44.199219 Z M 38.351563 0 "/>
<path style=" stroke:none;fill-rule:nonzero;fill:rgb(89.453125%,89.453125%,89.453125%);fill-opacity:1;" d="M 39.148438 0 L 39.449219 0 L 39.449219 44.199219 L 39.148438 44.199219 Z M 39.148438 0 "/>
<path style=" stroke:none;fill-rule:nonzero;fill:rgb(89.453125%,89.453125%,89.453125%);fill-opacity:1;" d="M 39.949219 0 L 40.25 0 L 40.25 44.199219 L 39.949219 44.199219 Z M 39.949219 0 "/>
<path style=" stroke:none;fill-rule:nonzero;fill:rgb(89.453125%,89.453125%,89.453125%);fill-opacity:1;" d="M 40.75 0 L 41.050781 0 L 41.050781 44.199219 L 40.75 44.199219 Z M 40.75 0 "/>
<path style=" stroke:none;fill-rule:nonzero;fill:rgb(89.453125%,89.453125%,89.453125%);fill-opacity:1;" d="M 41.550781 0 L 41.851563 0 L 41.851563 44.199219 L 41.550781 44.199219 Z M 41.550781 0 "/>
<path style=" stroke:none;fill-rule:nonzero;fill:rgb(89.453125%,89.453125%,89.453125%);fill-opacity:1;" d="M 42.351563 0 L 42.652344 0 L 42.652344 44.199219 L 42.351563 44.199219 Z M 42.351563 0 "/>
<path style=" stroke:none;fill-rule:nonzero;fill:rgb(89.453125%,89.453125%,89.453125%);fill-opacity:1;" d="M 44.199219 1.550781 L 44.199219 1.851563 L 0 1.851563 L 0 1.550781 Z M 44.199219 1.550781 "/>
<path style=" stroke:none;fill-rule:nonzero;fill:rgb(89.453125%,89.453125%,89.453125%);fill-opacity:1;" d="M 44.199219 2.351563 L 44.199219 2.652344 L 0 2.652344 L 0 2.351563 Z M 44.199219 2.351563 "/>
<path style=" stroke:none;fill-rule:nonzero;fill:rgb(89.453125%,89.453125%,89.453125%);fill-opacity:1;" d="M 44.199219 3.148438 L 44.199219 3.449219 L 0 3.449219 L 0 3.148438 Z M 44.199219 3.148438 "/>
<path style=" stroke:none;fill-rule:nonzero;fill:rgb(89.453125%,89.453125%,89.453125%);fill-opacity:1;" d="M 44.199219 3.949219 L 44.199219 4.25 L 0 4.25 L 0 3.949219 Z M 44.199219 3.949219 "/>
<path style=" stroke:none;fill-rule:nonzero;fill:rgb(89.453125%,89.453125%,89.453125%);fill-opacity:1;" d="M 44.199219 4.75 L 44.199219 5.050781 L 0 5.050781 L 0 4.75 Z M 44.199219 4.75 "/>
<path style=" stroke:none;fill-rule:nonzero;fill:rgb(89.453125%,89.453125%,89.453125%);fill-opacity:1;" d="M 44.199219 5.550781 L 44.199219 5.851563 L 0 5.851563 L 0 5.550781 Z M 44.199219 5.550781 "/>
<path style=" stroke:none;fill-rule:nonzero;fill:rgb(89.453125%,89.453125%,89.453125%);fill-opacity:1;" d="M 44.199219 6.351563 L 44.199219 6.652344 L 0 6.652344 L 0 6.351563 Z M 44.199219 6.351563 "/>
<path style=" stroke:none;fill-rule:nonzero;fill:rgb(89.453125%,89.453125%,89.453125%);fill-opacity:1;" d="M 44.199219 7.148438 L 44.199219 7.449219 L 0 7.449219 L 0 7.148438 Z M 44.199219 7.148438 "/>
<path style=" stroke:none;fill-rule:nonzero;fill:rgb(89.453125%,89.453125%,89.453125%);fill-opacity:1;" d="M 44.199219 7.949219 L 44.199219 8.25 L 0 8.25 L 0 7.949219 Z M 44.199219 7.949219 "/>
<path style=" stroke:none;fill-rule:nonzero;fill:rgb(89.453125%,89.453125%,89.453125%);fill-opacity:1;" d="M 44.199219 8.75 L 44.199219 9.050781 L 0 9.050781 L 0 8.75 Z M 44.199219 8.75 "/>
<path style=" stroke:none;fill-rule:nonzero;fill:rgb(89.453125%,89.453125%,89.453125%);fill-opacity:1;" d="M 44.199219 9.550781 L 44.199219 9.851563 L 0 9.851563 L 0 9.550781 Z M 44.199219 9.550781 "/>
<path style=" stroke:none;fill-rule:nonzero;fill:rgb(89.453125%,89.453125%,89.453125%);fill-opacity:1;" d="M 44.199219 10.351563 L 44.199219 10.652344 L 0 10.652344 L 0 10.351563 Z M 44.199219 10.351563 "/>
<path style=" stroke:none;fill-rule:nonzero;fill:rgb(89.453125%,89.453125%,89.453125%);fill-opacity:1;" d="M 44.199219 11.148438 L 44.199219 11.449219 L 0 11.449219 L 0 11.148438 Z M 44.199219 11.148438 "/>
<path style=" stroke:none;fill-rule:nonzero;fill:rgb(89.453125%,89.453125%,89.453125%);fill-opacity:1;" d="M 44.199219 11.949219 L 44.199219 12.25 L 0 12.25 L 0 11.949219 Z M 44.199219 11.949219 "/>
<path style=" stroke:none;fill-rule:nonzero;fill:rgb(89.453125%,89.453125%,89.453125%);fill-opacity:1;" d="M 44.199219 12.75 L 44.199219 13.050781 L 0 13.050781 L 0 12.75 Z M 44.199219 12.75 "/>
<path style=" stroke:none;fill-rule:nonzero;fill:rgb(89.453125%,89.453125%,89.453125%);fill-opacity:1;" d="M 44.199219 13.550781 L 44.199219 13.851563 L 0 13.851563 L 0 13.550781 Z M 44.199219 13.550781 "/>
<path style=" stroke:none;fill-rule:nonzero;fill:rgb(89.453125%,89.453125%,89.453125%);fill-opacity:1;" d="M 44.199219 14.351563 L 44.199219 14.652344 L 0 14.652344 L 0 14.351563 Z M 44.199219 14.351563 "/>
<path style=" stroke:none;fill-rule:nonzero;fill:rgb(89.453125%,89.453125%,89.453125%);fill-opacity:1;" d="M 44.199219 15.148438 L 44.199219 15.449219 L 0 15.449219 L 0 15.148438 Z M 44.199219 15.148438 "/>
<path style=" stroke:none;fill-rule:nonzero;fill:rgb(89.453125%,89.453125%,89.453125%);fill-opacity:1;" d="M 44.199219 15.949219 L 44.199219 16.25 L 0 16.25 L 0 15.949219 Z M 44.199219 15.949219 "/>
<path style=" stroke:none;fill-rule:nonzero;fill:rgb(89.453125%,89.453125%,89.453125%);fill-opacity:1;" d="M 44.199219 16.75 L 44.199219 17.050781 L 0 17.050781 L 0 16.75 Z M 44.199219 16.75 "/>
<path style=" stroke:none;fill-rule:nonzero;fill:rgb(89.453125%,89.453125%,89.453125%);fill-opacity:1;" d="M 44.199219 17.550781 L 44.199219 17.851563 L 0 17.851563 L 0 17.550781 Z M 44.199219 17.550781 "/>
<path style=" stroke:none;fill-rule:nonzero;fill:rgb(89.453125%,89.453125%,89.453125%);fill-opacity:1;" d="M 44.199219 18.351563 L 44.199219 18.652344 L 0 18.652344 L 0 18.351563 Z M 44.199219 18.351563 "/>
<path style=" stroke:none;fill-rule:nonzero;fill:rgb(89.453125%,89.453125%,89.453125%);fill-opacity:1;" d="M 44.199219 19.148438 L 44.199219 19.449219 L 0 19.449219 L 0 19.148438 Z M 44.199219 19.148438 "/>
<path style=" stroke:none;fill-rule:nonzero;fill:rgb(89.453125%,89.453125%,89.453125%);fill-opacity:1;" d="M 44.199219 19.949219 L 44.199219 20.25 L 0 20.25 L 0 19.949219 Z M 44.199219 19.949219 "/>
<path style=" stroke:none;fill-rule:nonzero;fill:rgb(89.453125%,89.453125%,89.453125%);fill-opacity:1;" d="M 44.199219 20.75 L 44.199219 21.050781 L 0 21.050781 L 0 20.75 Z M 44.199219 20.75 "/>
<path style=" stroke:none;fill-rule:nonzero;fill:rgb(89.453125%,89.453125%,89.453125%);fill-opacity:1;" d="M 44.199219 21.550781 L 44.199219 21.851563 L 0 21.851563 L 0 21.550781 Z M 44.199219 21.550781 "/>
<path style=" stroke:none;fill-rule:nonzero;fill:rgb(89.453125%,89.453125%,89.453125%);fill-opacity:1;" d="M 44.199219 22.351563 L 44.199219 22.652344 L 0 22.652344 L 0 22.351563 Z M 44.199219 22.351563 "/>
<path style=" stroke:none;fill-rule:nonzero;fill:rgb(89.453125%,89.453125%,89.453125%);fill-opacity:1;" d="M 44.199219 23.148438 L 44.199219 23.449219 L 0 23.449219 L 0 23.148438 Z M 44.199219 23.148438 "/>
<path style=" stroke:none;fill-rule:nonzero;fill:rgb(89.453125%,89.453125%,89.453125%);fill-opacity:1;" d="M 44.199219 23.949219 L 44.199219 24.25 L 0 24.25 L 0 23.949219 Z M 44.199219 23.949219 "/>
<path style=" stroke:none;fill-rule:nonzero;fill:rgb(89.453125%,89.453125%,89.453125%);fill-opacity:1;" d="M 44.199219 24.75 L 44.199219 25.050781 L 0 25.050781 L 0 24.75 Z M 44.199219 24.75 "/>
<path style=" stroke:none;fill-rule:nonzero;fill:rgb(89.453125%,89.453125%,89.453125%);fill-opacity:1;" d="M 44.199219 25.550781 L 44.199219 25.851563 L 0 25.851563 L 0 25.550781 Z M 44.199219 25.550781 "/>
<path style=" stroke:none;fill-rule:nonzero;fill:rgb(89.453125%,89.453125%,89.453125%);fill-opacity:1;" d="M 44.199219 26.351563 L 44.199219 26.652344 L 0 26.652344 L 0 26.351563 Z M 44.199219 26.351563 "/>
<path style=" stroke:none;fill-rule:nonzero;fill:rgb(89.453125%,89.453125%,89.453125%);fill-opacity:1;" d="M 44.199219 27.148438 L 44.199219 27.449219 L 0 27.449219 L 0 27.148438 Z M 44.199219 27.148438 "/>
<path style=" stroke:none;fill-rule:nonzero;fill:rgb(89.453125%,89.453125%,89.453125%);fill-opacity:1;" d="M 44.199219 27.949219 L 44.199219 28.25 L 0 28.25 L 0 27.949219 Z M 44.199219 27.949219 "/>
<path style=" stroke:none;fill-rule:nonzero;fill:rgb(89.453125%,89.453125%,89.453125%);fill-opacity:1;" d="M 44.199219 28.75 L 44.199219 29.050781 L 0 29.050781 L 0 28.75 Z M 44.199219 28.75 "/>
<path style=" stroke:none;fill-rule:nonzero;fill:rgb(89.453125%,89.453125%,89.453125%);fill-opacity:1;" d="M 44.199219 29.550781 L 44.199219 29.851563 L 0 29.851563 L 0 29.550781 Z M 44.199219 29.550781 "/>
<path style=" stroke:none;fill-rule:nonzero;fill:rgb(89.453125%,89.453125%,89.453125%);fill-opacity:1;" d="M 44.199219 30.351563 L 44.199219 30.652344 L 0 30.652344 L 0 30.351563 Z M 44.199219 30.351563 "/>
<path style=" stroke:none;fill-rule:nonzero;fill:rgb(89.453125%,89.453125%,89.453125%);fill-opacity:1;" d="M 44.199219 31.148438 L 44.199219 31.449219 L 0 31.449219 L 0 31.148438 Z M 44.199219 31.148438 "/>
<path style=" stroke:none;fill-rule:nonzero;fill:rgb(89.453125%,89.453125%,89.453125%);fill-opacity:1;" d="M 44.199219 31.949219 L 44.199219 32.25 L 0 32.25 L 0 31.949219 Z M 44.199219 31.949219 "/>
<path style=" stroke:none;fill-rule:nonzero;fill:rgb(89.453125%,89.453125%,89.453125%);fill-opacity:1;" d="M 44.199219 32.75 L 44.199219 33.050781 L 0 33.050781 L 0 32.75 Z M 44.199219 32.75 "/>
<path style=" stroke:none;fill-rule:nonzero;fill:rgb(89.453125%,89.453125%,89.453125%);fill-opacity:1;" d="M 44.199219 33.550781 L 44.199219 33.851563 L 0 33.851563 L 0 33.550781 Z M 44.199219 33.550781 "/>
<path style=" stroke:none;fill-rule:nonzero;fill:rgb(89.453125%,89.453125%,89.453125%);fill-opacity:1;" d="M 44.199219 34.351563 L 44.199219 34.652344 L 0 34.652344 L 0 34.351563 Z M 44.199219 34.351563 "/>
<path style=" stroke:none;fill-rule:nonzero;fill:rgb(89.453125%,89.453125%,89.453125%);fill-opacity:1;" d="M 44.199219 35.148438 L 44.199219 35.449219 L 0 35.449219 L 0 35.148438 Z M 44.199219 35.148438 "/>
<path style=" stroke:none;fill-rule:nonzero;fill:rgb(89.453125%,89.453125%,89.453125%);fill-opacity:1;" d="M 44.199219 35.949219 L 44.199219 36.25 L 0 36.25 L 0 35.949219 Z M 44.199219 35.949219 "/>
<path style=" stroke:none;fill-rule:nonzero;fill:rgb(89.453125%,89.453125%,89.453125%);fill-opacity:1;" d="M 44.199219 36.75 L 44.199219 37.050781 L 0 37.050781 L 0 36.75 Z M 44.199219 36.75 "/>
<path style=" stroke:none;fill-rule:nonzero;fill:rgb(89.453125%,89.453125%,89.453125%);fill-opacity:1;" d="M 44.199219 37.550781 L 44.199219 37.851563 L 0 37.851563 L 0 37.550781 Z M 44.199219 37.550781 "/>
<path style=" stroke:none;fill-rule:nonzero;fill:rgb(89.453125%,89.453125%,89.453125%);fill-opacity:1;" d="M 44.199219 38.351563 L 44.199219 38.652344 L 0 38.652344 L 0 38.351563 Z M 44.199219 38.351563 "/>
<path style=" stroke:none;fill-rule:nonzero;fill:rgb(89.453125%,89.453125%,89.453125%);fill-opacity:1;" d="M 44.199219 39.148438 L 44.199219 39.449219 L 0 39.449219 L 0 39.148438 Z M 44.199219 39.148438 "/>
<path style=" stroke:none;fill-rule:nonzero;fill:rgb(89.453125%,89.453125%,89.453125%);fill-opacity:1;" d="M 44.199219 39.949219 L 44.199219 40.25 L 0 40.25 L 0 39.949219 Z M 44.199219 39.949219 "/>
<path style=" stroke:none;fill-rule:nonzero;fill:rgb(89.453125%,89.453125%,89.453125%);fill-opacity:1;" d="M 44.199219 40.75 L 44.199219 41.050781 L 0 41.050781 L 0 40.75 Z M 44.199219 40.75 "/>
<path style=" stroke:none;fill-rule:nonzero;fill:rgb(89.453125%,89.453125%,89.453125%);fill-opacity:1;" d="M 44.199219 41.550781 L 44.199219 41.851563 L 0 41.851563 L 0 41.550781 Z M 44.199219 41.550781 "/>
<path style=" stroke:none;fill-rule:nonzero;fill:rgb(89.453125%,89.453125%,89.453125%);fill-opacity:1;" d="M 44.199219 42.351563 L 44.199219 42.652344 L 0 42.652344 L 0 42.351563 Z M 44.199219 42.351563 "/>
<path style=" stroke:none;fill-rule:nonzero;fill:rgb(19.53125%,19.53125%,19.53125%);fill-opacity:1;" d="M 1 1 L 43.199219 1 L 43.199219 43.199219 L 1 43.199219 Z M 1 1 "/>
<path style=" stroke:none;fill-rule:nonzero;fill:rgb(49.609375%,49.609375%,49.609375%);fill-opacity:1;" d="M 2.351563 42.199219 C 2.351563 42.667969 1.648438 42.667969 1.648438 42.199219 C 1.648438 41.734375 2.351563 41.734375 2.351563 42.199219 "/>
</g>
</svg>
