<?xml version="1.0" encoding="UTF-8"?>
<svg xmlns="http://www.w3.org/2000/svg" xmlns:xlink="http://www.w3.org/1999/xlink" width="13mm" height="13mm" viewBox="0 0 13 13" version="1.1">
<g id="surface321">
<path style=" stroke:none;fill-rule:nonzero;fill:rgb(89.453125%,89.453125%,89.453125%);fill-opacity:1;" d="M 1.550781 0 L 1.851563 0 L 1.851563 13 L 1.550781 13 Z M 1.550781 0 "/>
<path style=" stroke:none;fill-rule:nonzero;fill:rgb(89.453125%,89.453125%,89.453125%);fill-opacity:1;" d="M 2.351563 0 L 2.652344 0 L 2.652344 13 L 2.351563 13 Z M 2.351563 0 "/>
<path style=" stroke:none;fill-rule:nonzero;fill:rgb(89.453125%,89.453125%,89.453125%);fill-opacity:1;" d="M 3.148438 0 L 3.449219 0 L 3.449219 13 L 3.148438 13 Z M 3.148438 0 "/>
<path style=" stroke:none;fill-rule:nonzero;fill:rgb(89.453125%,89.453125%,89.453125%);fill-opacity:1;" d="M 3.949219 0 L 4.25 0 L 4.25 13 L 3.949219 13 Z M 3.949219 0 "/>
<path style=" stroke:none;fill-rule:nonzero;fill:rgb(89.453125%,89.453125%,89.453125%);fill-opacity:1;" d="M 4.75 0 L 5.050781 0 L 5.050781 13 L 4.75 13 Z M 4.75 0 "/>
<path style=" stroke:none;fill-rule:nonzero;fill:rgb(89.453125%,89.453125%,89.453125%);fill-opacity:1;" d="M 5.550781 0 L 5.851563 0 L 5.851563 13 L 5.550781 13 Z M 5.550781 0 "/>
<path style=" stroke:none;fill-rule:nonzero;fill:rgb(89.453125%,89.453125%,89.453125%);fill-opacity:1;" d="M 6.351563 0 L 6.652344 0 L 6.652344 13 L 6.351563 13 Z M 6.351563 0 "/>
<path style=" stroke:none;fill-rule:nonzero;fill:rgb(89.453125%,89.453125%,89.453125%);fill-opacity:1;" d="M 7.148438 0 L 7.449219 0 L 7.449219 13 L 7.148438 13 Z M 7.148438 0 "/>
<path style=" stroke:none;fill-rule:nonzero;fill:rgb(89.453125%,89.453125%,89.453125%);fill-opacity:1;" d="M 7.949219 0 L 8.25 0 L 8.25 13 L 7.949219 13 Z M 7.949219 0 "/>
<path style=" stroke:none;fill-rule:nonzero;fill:rgb(89.453125%,89.453125%,89.453125%);fill-opacity:1;" d="M 8.75 0 L 9.050781 0 L 9.050781 13 L 8.75 13 Z M 8.75 0 "/>
<path style=" stroke:none;fill-rule:nonzero;fill:rgb(89.453125%,89.453125%,89.453125%);fill-opacity:1;" d="M 9.550781 0 L 9.851563 0 L 9.851563 13 L 9.550781 13 Z M 9.550781 0 "/>
<path style=" stroke:none;fill-rule:nonzero;fill:rgb(89.453125%,89.453125%,89.453125%);fill-opacity:1;" d="M 10.351563 0 L 10.652344 0 L 10.652344 13 L 10.351563 13 Z M 10.351563 0 "/>
<path style=" stroke:none;fill-rule:nonzero;fill:rgb(89.453125%,89.453125%,89.453125%);fill-opacity:1;" d="M 11.148438 0 L 11.449219 0 L 11.449219 13 L 11.148438 13 Z M 11.148438 0 "/>
<path style=" stroke:none;fill-rule:nonzero;fill:rgb(89.453125%,89.453125%,89.453125%);fill-opacity:1;" d="M 13 1.550781 L 13 1.851563 L 0 1.851563 L 0 1.550781 Z M 13 1.550781 "/>
<path style=" stroke:none;fill-rule:nonzero;fill:rgb(89.453125%,89.453125%,89.453125%);fill-opacity:1;" d="M 13 2.351563 L 13 2.652344 L 0 2.652344 L 0 2.351563 Z M 13 2.351563 "/>
<path style=" stroke:none;fill-rule:nonzero;fill:rgb(89.453125%,89.453125%,89.453125%);fill-opacity:1;" d="M 13 3.148438 L 13 3.449219 L 0 3.449219 L 0 3.148438 Z M 13 3.148438 "/>
<path style=" stroke:none;fill-rule:nonzero;fill:rgb(89.453125%,89.453125%,89.453125%);fill-opacity:1;" d="M 13 3.949219 L 13 4.25 L 0 4.25 L 0 3.949219 Z M 13 3.949219 "/>
<path style=" stroke:none;fill-rule:nonzero;fill:rgb(89.453125%,89.453125%,89.453125%);fill-opacity:1;" d="M 13 4.75 L 13 5.050781 L 0 5.050781 L 0 4.75 Z M 13 4.75 "/>
<path style=" stroke:none;fill-rule:nonzero;fill:rgb(89.453125%,89.453125%,89.453125%);fill-opacity:1;" d="M 13 5.550781 L 13 5.851563 L 0 5.851563 L 0 5.550781 Z M 13 5.550781 "/>
<path style=" stroke:none;fill-rule:nonzero;fill:rgb(89.453125%,89.453125%,89.453125%);fill-opacity:1;" d="M 13 6.351563 L 13 6.652344 L 0 6.652344 L 0 6.351563 Z M 13 6.351563 "/>
<path style=" stroke:none;fill-rule:nonzero;fill:rgb(89.453125%,89.453125%,89.453125%);fill-opacity:1;" d="M 13 7.148438 L 13 7.449219 L 0 7.449219 L 0 7.148438 Z M 13 7.148438 "/>
<path style=" stroke:none;fill-rule:nonzero;fill:rgb(89.453125%,89.453125%,89.453125%);fill-opacity:1;" d="M 13 7.949219 L 13 8.25 L 0 8.25 L 0 7.949219 Z M 13 7.949219 "/>
<path style=" stroke:none;fill-rule:nonzero;fill:rgb(89.453125%,89.453125%,89.453125%);fill-opacity:1;" d="M 13 8.75 L 13 9.050781 L 0 9.050781 L 0 8.75 Z M 13 8.75 "/>
<path style=" stroke:none;fill-rule:nonzero;fill:rgb(89.453125%,89.453125%,89.453125%);fill-opacity:1;" d="M 13 9.550781 L 13 9.851563 L 0 9.851563 L 0 9.550781 Z M 13 9.550781 "/>
<path style=" stroke:none;fill-rule:nonzero;fill:rgb(89.453125%,89.453125%,89.453125%);fill-opacity:1;" d="M 13 10.351563 L 13 10.652344 L 0 10.652344 L 0 10.351563 Z M 13 10.351563 "/>
<path style=" stroke:none;fill-rule:nonzero;fill:rgb(89.453125%,89.453125%,89.453125%);fill-opacity:1;" d="M 13 11.148438 L 13 11.449219 L 0 11.449219 L 0 11.148438 Z M 13 11.148438 "/>
<path style=" stroke:none;fill-rule:nonzero;fill:rgb(19.53125%,19.53125%,19.53125%);fill-opacity:1;" d="M 1 1 L 12 1 L 12 12 L 1 12 Z M 1 1 "/>
<path style=" stroke:none;fill-rule:nonzero;fill:rgb(49.609375%,49.609375%,49.609375%);fill-opacity:1;" d="M 2.351563 11 C 2.351563 11.464844 1.648438 11.464844 1.648438 11 C 1.648438 10.535156 2.351563 10.535156 2.351563 11 "/>
</g>
</svg>
