<?xml version="1.0" encoding="UTF-8"?>
<svg xmlns="http://www.w3.org/2000/svg" xmlns:xlink="http://www.w3.org/1999/xlink" width="12.2mm" height="12.2mm" viewBox="0 0 12.2 12.2" version="1.1">
<g id="surface316">
<path style=" stroke:none;fill-rule:nonzero;fill:rgb(89.453125%,89.453125%,89.453125%);fill-opacity:1;" d="M 1.550781 0 L 1.851563 0 L 1.851563 12.199219 L 1.550781 12.199219 Z M 1.550781 0 "/>
<path style=" stroke:none;fill-rule:nonzero;fill:rgb(89.453125%,89.453125%,89.453125%);fill-opacity:1;" d="M 2.351563 0 L 2.652344 0 L 2.652344 12.199219 L 2.351563 12.199219 Z M 2.351563 0 "/>
<path style=" stroke:none;fill-rule:nonzero;fill:rgb(89.453125%,89.453125%,89.453125%);fill-opacity:1;" d="M 3.148438 0 L 3.449219 0 L 3.449219 12.199219 L 3.148438 12.199219 Z M 3.148438 0 "/>
<path style=" stroke:none;fill-rule:nonzero;fill:rgb(89.453125%,89.453125%,89.453125%);fill-opacity:1;" d="M 3.949219 0 L 4.25 0 L 4.25 12.199219 L 3.949219 12.199219 Z M 3.949219 0 "/>
<path style=" stroke:none;fill-rule:nonzero;fill:rgb(89.453125%,89.453125%,89.453125%);fill-opacity:1;" d="M 4.75 0 L 5.050781 0 L 5.050781 12.199219 L 4.75 12.199219 Z M 4.75 0 "/>
<path style=" stroke:none;fill-rule:nonzero;fill:rgb(89.453125%,89.453125%,89.453125%);fill-opacity:1;" d="M 5.550781 0 L 5.851563 0 L 5.851563 12.199219 L 5.550781 12.199219 Z M 5.550781 0 "/>
<path style=" stroke:none;fill-rule:nonzero;fill:rgb(89.453125%,89.453125%,89.453125%);fill-opacity:1;" d="M 6.351563 0 L 6.652344 0 L 6.652344 12.199219 L 6.351563 12.199219 Z M 6.351563 0 "/>
<path style=" stroke:none;fill-rule:nonzero;fill:rgb(89.453125%,89.453125%,89.453125%);fill-opacity:1;" d="M 7.148438 0 L 7.449219 0 L 7.449219 12.199219 L 7.148438 12.199219 Z M 7.148438 0 "/>
<path style=" stroke:none;fill-rule:nonzero;fill:rgb(89.453125%,89.453125%,89.453125%);fill-opacity:1;" d="M 7.949219 0 L 8.25 0 L 8.25 12.199219 L 7.949219 12.199219 Z M 7.949219 0 "/>
<path style=" stroke:none;fill-rule:nonzero;fill:rgb(89.453125%,89.453125%,89.453125%);fill-opacity:1;" d="M 8.75 0 L 9.050781 0 L 9.050781 12.199219 L 8.75 12.199219 Z M 8.75 0 "/>
<path style=" stroke:none;fill-rule:nonzero;fill:rgb(89.453125%,89.453125%,89.453125%);fill-opacity:1;" d="M 9.550781 0 L 9.851563 0 L 9.851563 12.199219 L 9.550781 12.199219 Z M 9.550781 0 "/>
<path style=" stroke:none;fill-rule:nonzero;fill:rgb(89.453125%,89.453125%,89.453125%);fill-opacity:1;" d="M 10.351563 0 L 10.652344 0 L 10.652344 12.199219 L 10.351563 12.199219 Z M 10.351563 0 "/>
<path style=" stroke:none;fill-rule:nonzero;fill:rgb(89.453125%,89.453125%,89.453125%);fill-opacity:1;" d="M 12.199219 1.550781 L 12.199219 1.851563 L 0 1.851563 L 0 1.550781 Z M 12.199219 1.550781 "/>
<path style=" stroke:none;fill-rule:nonzero;fill:rgb(89.453125%,89.453125%,89.453125%);fill-opacity:1;" d="M 12.199219 2.351563 L 12.199219 2.652344 L 0 2.652344 L 0 2.351563 Z M 12.199219 2.351563 "/>
<path style=" stroke:none;fill-rule:nonzero;fill:rgb(89.453125%,89.453125%,89.453125%);fill-opacity:1;" d="M 12.199219 3.148438 L 12.199219 3.449219 L 0 3.449219 L 0 3.148438 Z M 12.199219 3.148438 "/>
<path style=" stroke:none;fill-rule:nonzero;fill:rgb(89.453125%,89.453125%,89.453125%);fill-opacity:1;" d="M 12.199219 3.949219 L 12.199219 4.25 L 0 4.25 L 0 3.949219 Z M 12.199219 3.949219 "/>
<path style=" stroke:none;fill-rule:nonzero;fill:rgb(89.453125%,89.453125%,89.453125%);fill-opacity:1;" d="M 12.199219 4.75 L 12.199219 5.050781 L 0 5.050781 L 0 4.75 Z M 12.199219 4.75 "/>
<path style=" stroke:none;fill-rule:nonzero;fill:rgb(89.453125%,89.453125%,89.453125%);fill-opacity:1;" d="M 12.199219 5.550781 L 12.199219 5.851563 L 0 5.851563 L 0 5.550781 Z M 12.199219 5.550781 "/>
<path style=" stroke:none;fill-rule:nonzero;fill:rgb(89.453125%,89.453125%,89.453125%);fill-opacity:1;" d="M 12.199219 6.351563 L 12.199219 6.652344 L 0 6.652344 L 0 6.351563 Z M 12.199219 6.351563 "/>
<path style=" stroke:none;fill-rule:nonzero;fill:rgb(89.453125%,89.453125%,89.453125%);fill-opacity:1;" d="M 12.199219 7.148438 L 12.199219 7.449219 L 0 7.449219 L 0 7.148438 Z M 12.199219 7.148438 "/>
<path style=" stroke:none;fill-rule:nonzero;fill:rgb(89.453125%,89.453125%,89.453125%);fill-opacity:1;" d="M 12.199219 7.949219 L 12.199219 8.25 L 0 8.25 L 0 7.949219 Z M 12.199219 7.949219 "/>
<path style=" stroke:none;fill-rule:nonzero;fill:rgb(89.453125%,89.453125%,89.453125%);fill-opacity:1;" d="M 12.199219 8.75 L 12.199219 9.050781 L 0 9.050781 L 0 8.75 Z M 12.199219 8.75 "/>
<path style=" stroke:none;fill-rule:nonzero;fill:rgb(89.453125%,89.453125%,89.453125%);fill-opacity:1;" d="M 12.199219 9.550781 L 12.199219 9.851563 L 0 9.851563 L 0 9.550781 Z M 12.199219 9.550781 "/>
<path style=" stroke:none;fill-rule:nonzero;fill:rgb(89.453125%,89.453125%,89.453125%);fill-opacity:1;" d="M 12.199219 10.351563 L 12.199219 10.652344 L 0 10.652344 L 0 10.351563 Z M 12.199219 10.351563 "/>
<path style=" stroke:none;fill-rule:nonzero;fill:rgb(19.53125%,19.53125%,19.53125%);fill-opacity:1;" d="M 1 1 L 11.199219 1 L 11.199219 11.199219 L 1 11.199219 Z M 1 1 "/>
<path style=" stroke:none;fill-rule:nonzero;fill:rgb(49.609375%,49.609375%,49.609375%);fill-opacity:1;" d="M 2.351563 10.199219 C 2.351563 10.667969 1.648438 10.667969 1.648438 10.199219 C 1.648438 9.734375 2.351563 9.734375 2.351563 10.199219 "/>
</g>
</svg>
