<?xml version="1.0" encoding="UTF-8"?>
<svg xmlns="http://www.w3.org/2000/svg" xmlns:xlink="http://www.w3.org/1999/xlink" width="37.8mm" height="37.8mm" viewBox="0 0 37.8 37.8" version="1.1">
<g id="surface356">
<path style=" stroke:none;fill-rule:nonzero;fill:rgb(89.453125%,89.453125%,89.453125%);fill-opacity:1;" d="M 1.550781 0 L 1.851563 0 L 1.851563 37.800781 L 1.550781 37.800781 Z M 1.550781 0 "/>
<path style=" stroke:none;fill-rule:nonzero;fill:rgb(89.453125%,89.453125%,89.453125%);fill-opacity:1;" d="M 2.351563 0 L 2.652344 0 L 2.652344 37.800781 L 2.351563 37.800781 Z M 2.351563 0 "/>
<path style=" stroke:none;fill-rule:nonzero;fill:rgb(89.453125%,89.453125%,89.453125%);fill-opacity:1;" d="M 3.148438 0 L 3.449219 0 L 3.449219 37.800781 L 3.148438 37.800781 Z M 3.148438 0 "/>
<path style=" stroke:none;fill-rule:nonzero;fill:rgb(89.453125%,89.453125%,89.453125%);fill-opacity:1;" d="M 3.949219 0 L 4.25 0 L 4.25 37.800781 L 3.949219 37.800781 Z M 3.949219 0 "/>
<path style=" stroke:none;fill-rule:nonzero;fill:rgb(89.453125%,89.453125%,89.453125%);fill-opacity:1;" d="M 4.75 0 L 5.050781 0 L 5.050781 37.800781 L 4.75 37.800781 Z M 4.75 0 "/>
<path style=" stroke:none;fill-rule:nonzero;fill:rgb(89.453125%,89.453125%,89.453125%);fill-opacity:1;" d="M 5.550781 0 L 5.851563 0 L 5.851563 37.800781 L 5.550781 37.800781 Z M 5.550781 0 "/>
<path style=" stroke:none;fill-rule:nonzero;fill:rgb(89.453125%,89.453125%,89.453125%);fill-opacity:1;" d="M 6.351563 0 L 6.652344 0 L 6.652344 37.800781 L 6.351563 37.800781 Z M 6.351563 0 "/>
<path style=" stroke:none;fill-rule:nonzero;fill:rgb(89.453125%,89.453125%,89.453125%);fill-opacity:1;" d="M 7.148438 0 L 7.449219 0 L 7.449219 37.800781 L 7.148438 37.800781 Z M 7.148438 0 "/>
<path style=" stroke:none;fill-rule:nonzero;fill:rgb(89.453125%,89.453125%,89.453125%);fill-opacity:1;" d="M 7.949219 0 L 8.25 0 L 8.25 37.800781 L 7.949219 37.800781 Z M 7.949219 0 "/>
<path style=" stroke:none;fill-rule:nonzero;fill:rgb(89.453125%,89.453125%,89.453125%);fill-opacity:1;" d="M 8.75 0 L 9.050781 0 L 9.050781 37.800781 L 8.75 37.800781 Z M 8.75 0 "/>
<path style=" stroke:none;fill-rule:nonzero;fill:rgb(89.453125%,89.453125%,89.453125%);fill-opacity:1;" d="M 9.550781 0 L 9.851563 0 L 9.851563 37.800781 L 9.550781 37.800781 Z M 9.550781 0 "/>
<path style=" stroke:none;fill-rule:nonzero;fill:rgb(89.453125%,89.453125%,89.453125%);fill-opacity:1;" d="M 10.351563 0 L 10.652344 0 L 10.652344 37.800781 L 10.351563 37.800781 Z M 10.351563 0 "/>
<path style=" stroke:none;fill-rule:nonzero;fill:rgb(89.453125%,89.453125%,89.453125%);fill-opacity:1;" d="M 11.148438 0 L 11.449219 0 L 11.449219 37.800781 L 11.148438 37.800781 Z M 11.148438 0 "/>
<path style=" stroke:none;fill-rule:nonzero;fill:rgb(89.453125%,89.453125%,89.453125%);fill-opacity:1;" d="M 11.949219 0 L 12.25 0 L 12.25 37.800781 L 11.949219 37.800781 Z M 11.949219 0 "/>
<path style=" stroke:none;fill-rule:nonzero;fill:rgb(89.453125%,89.453125%,89.453125%);fill-opacity:1;" d="M 12.75 0 L 13.050781 0 L 13.050781 37.800781 L 12.75 37.800781 Z M 12.75 0 "/>
<path style=" stroke:none;fill-rule:nonzero;fill:rgb(89.453125%,89.453125%,89.453125%);fill-opacity:1;" d="M 13.550781 0 L 13.851563 0 L 13.851563 37.800781 L 13.550781 37.800781 Z M 13.550781 0 "/>
<path style=" stroke:none;fill-rule:nonzero;fill:rgb(89.453125%,89.453125%,89.453125%);fill-opacity:1;" d="M 14.351563 0 L 14.652344 0 L 14.652344 37.800781 L 14.351563 37.800781 Z M 14.351563 0 "/>
<path style=" stroke:none;fill-rule:nonzero;fill:rgb(89.453125%,89.453125%,89.453125%);fill-opacity:1;" d="M 15.148438 0 L 15.449219 0 L 15.449219 37.800781 L 15.148438 37.800781 Z M 15.148438 0 "/>
<path style=" stroke:none;fill-rule:nonzero;fill:rgb(89.453125%,89.453125%,89.453125%);fill-opacity:1;" d="M 15.949219 0 L 16.25 0 L 16.25 37.800781 L 15.949219 37.800781 Z M 15.949219 0 "/>
<path style=" stroke:none;fill-rule:nonzero;fill:rgb(89.453125%,89.453125%,89.453125%);fill-opacity:1;" d="M 16.75 0 L 17.050781 0 L 17.050781 37.800781 L 16.75 37.800781 Z M 16.75 0 "/>
<path style=" stroke:none;fill-rule:nonzero;fill:rgb(89.453125%,89.453125%,89.453125%);fill-opacity:1;" d="M 17.550781 0 L 17.851563 0 L 17.851563 37.800781 L 17.550781 37.800781 Z M 17.550781 0 "/>
<path style=" stroke:none;fill-rule:nonzero;fill:rgb(89.453125%,89.453125%,89.453125%);fill-opacity:1;" d="M 18.351563 0 L 18.652344 0 L 18.652344 37.800781 L 18.351563 37.800781 Z M 18.351563 0 "/>
<path style=" stroke:none;fill-rule:nonzero;fill:rgb(89.453125%,89.453125%,89.453125%);fill-opacity:1;" d="M 19.148438 0 L 19.449219 0 L 19.449219 37.800781 L 19.148438 37.800781 Z M 19.148438 0 "/>
<path style=" stroke:none;fill-rule:nonzero;fill:rgb(89.453125%,89.453125%,89.453125%);fill-opacity:1;" d="M 19.949219 0 L 20.25 0 L 20.25 37.800781 L 19.949219 37.800781 Z M 19.949219 0 "/>
<path style=" stroke:none;fill-rule:nonzero;fill:rgb(89.453125%,89.453125%,89.453125%);fill-opacity:1;" d="M 20.75 0 L 21.050781 0 L 21.050781 37.800781 L 20.75 37.800781 Z M 20.75 0 "/>
<path style=" stroke:none;fill-rule:nonzero;fill:rgb(89.453125%,89.453125%,89.453125%);fill-opacity:1;" d="M 21.550781 0 L 21.851563 0 L 21.851563 37.800781 L 21.550781 37.800781 Z M 21.550781 0 "/>
<path style=" stroke:none;fill-rule:nonzero;fill:rgb(89.453125%,89.453125%,89.453125%);fill-opacity:1;" d="M 22.351563 0 L 22.652344 0 L 22.652344 37.800781 L 22.351563 37.800781 Z M 22.351563 0 "/>
<path style=" stroke:none;fill-rule:nonzero;fill:rgb(89.453125%,89.453125%,89.453125%);fill-opacity:1;" d="M 23.148438 0 L 23.449219 0 L 23.449219 37.800781 L 23.148438 37.800781 Z M 23.148438 0 "/>
<path style=" stroke:none;fill-rule:nonzero;fill:rgb(89.453125%,89.453125%,89.453125%);fill-opacity:1;" d="M 23.949219 0 L 24.25 0 L 24.25 37.800781 L 23.949219 37.800781 Z M 23.949219 0 "/>
<path style=" stroke:none;fill-rule:nonzero;fill:rgb(89.453125%,89.453125%,89.453125%);fill-opacity:1;" d="M 24.75 0 L 25.050781 0 L 25.050781 37.800781 L 24.75 37.800781 Z M 24.75 0 "/>
<path style=" stroke:none;fill-rule:nonzero;fill:rgb(89.453125%,89.453125%,89.453125%);fill-opacity:1;" d="M 25.550781 0 L 25.851563 0 L 25.851563 37.800781 L 25.550781 37.800781 Z M 25.550781 0 "/>
<path style=" stroke:none;fill-rule:nonzero;fill:rgb(89.453125%,89.453125%,89.453125%);fill-opacity:1;" d="M 26.351563 0 L 26.652344 0 L 26.652344 37.800781 L 26.351563 37.800781 Z M 26.351563 0 "/>
<path style=" stroke:none;fill-rule:nonzero;fill:rgb(89.453125%,89.453125%,89.453125%);fill-opacity:1;" d="M 27.148438 0 L 27.449219 0 L 27.449219 37.800781 L 27.148438 37.800781 Z M 27.148438 0 "/>
<path style=" stroke:none;fill-rule:nonzero;fill:rgb(89.453125%,89.453125%,89.453125%);fill-opacity:1;" d="M 27.949219 0 L 28.25 0 L 28.25 37.800781 L 27.949219 37.800781 Z M 27.949219 0 "/>
<path style=" stroke:none;fill-rule:nonzero;fill:rgb(89.453125%,89.453125%,89.453125%);fill-opacity:1;" d="M 28.75 0 L 29.050781 0 L 29.050781 37.800781 L 28.75 37.800781 Z M 28.75 0 "/>
<path style=" stroke:none;fill-rule:nonzero;fill:rgb(89.453125%,89.453125%,89.453125%);fill-opacity:1;" d="M 29.550781 0 L 29.851563 0 L 29.851563 37.800781 L 29.550781 37.800781 Z M 29.550781 0 "/>
<path style=" stroke:none;fill-rule:nonzero;fill:rgb(89.453125%,89.453125%,89.453125%);fill-opacity:1;" d="M 30.351563 0 L 30.652344 0 L 30.652344 37.800781 L 30.351563 37.800781 Z M 30.351563 0 "/>
<path style=" stroke:none;fill-rule:nonzero;fill:rgb(89.453125%,89.453125%,89.453125%);fill-opacity:1;" d="M 31.148438 0 L 31.449219 0 L 31.449219 37.800781 L 31.148438 37.800781 Z M 31.148438 0 "/>
<path style=" stroke:none;fill-rule:nonzero;fill:rgb(89.453125%,89.453125%,89.453125%);fill-opacity:1;" d="M 31.949219 0 L 32.25 0 L 32.25 37.800781 L 31.949219 37.800781 Z M 31.949219 0 "/>
<path style=" stroke:none;fill-rule:nonzero;fill:rgb(89.453125%,89.453125%,89.453125%);fill-opacity:1;" d="M 32.75 0 L 33.050781 0 L 33.050781 37.800781 L 32.75 37.800781 Z M 32.75 0 "/>
<path style=" stroke:none;fill-rule:nonzero;fill:rgb(89.453125%,89.453125%,89.453125%);fill-opacity:1;" d="M 33.550781 0 L 33.851563 0 L 33.851563 37.800781 L 33.550781 37.800781 Z M 33.550781 0 "/>
<path style=" stroke:none;fill-rule:nonzero;fill:rgb(89.453125%,89.453125%,89.453125%);fill-opacity:1;" d="M 34.351563 0 L 34.652344 0 L 34.652344 37.800781 L 34.351563 37.800781 Z M 34.351563 0 "/>
<path style=" stroke:none;fill-rule:nonzero;fill:rgb(89.453125%,89.453125%,89.453125%);fill-opacity:1;" d="M 35.148438 0 L 35.449219 0 L 35.449219 37.800781 L 35.148438 37.800781 Z M 35.148438 0 "/>
<path style=" stroke:none;fill-rule:nonzero;fill:rgb(89.453125%,89.453125%,89.453125%);fill-opacity:1;" d="M 35.949219 0 L 36.25 0 L 36.25 37.800781 L 35.949219 37.800781 Z M 35.949219 0 "/>
<path style=" stroke:none;fill-rule:nonzero;fill:rgb(89.453125%,89.453125%,89.453125%);fill-opacity:1;" d="M 37.800781 1.550781 L 37.800781 1.851563 L 0 1.851563 L 0 1.550781 Z M 37.800781 1.550781 "/>
<path style=" stroke:none;fill-rule:nonzero;fill:rgb(89.453125%,89.453125%,89.453125%);fill-opacity:1;" d="M 37.800781 2.351563 L 37.800781 2.652344 L 0 2.652344 L 0 2.351563 Z M 37.800781 2.351563 "/>
<path style=" stroke:none;fill-rule:nonzero;fill:rgb(89.453125%,89.453125%,89.453125%);fill-opacity:1;" d="M 37.800781 3.148438 L 37.800781 3.449219 L 0 3.449219 L 0 3.148438 Z M 37.800781 3.148438 "/>
<path style=" stroke:none;fill-rule:nonzero;fill:rgb(89.453125%,89.453125%,89.453125%);fill-opacity:1;" d="M 37.800781 3.949219 L 37.800781 4.25 L 0 4.25 L 0 3.949219 Z M 37.800781 3.949219 "/>
<path style=" stroke:none;fill-rule:nonzero;fill:rgb(89.453125%,89.453125%,89.453125%);fill-opacity:1;" d="M 37.800781 4.75 L 37.800781 5.050781 L 0 5.050781 L 0 4.75 Z M 37.800781 4.75 "/>
<path style=" stroke:none;fill-rule:nonzero;fill:rgb(89.453125%,89.453125%,89.453125%);fill-opacity:1;" d="M 37.800781 5.550781 L 37.800781 5.851563 L 0 5.851563 L 0 5.550781 Z M 37.800781 5.550781 "/>
<path style=" stroke:none;fill-rule:nonzero;fill:rgb(89.453125%,89.453125%,89.453125%);fill-opacity:1;" d="M 37.800781 6.351563 L 37.800781 6.652344 L 0 6.652344 L 0 6.351563 Z M 37.800781 6.351563 "/>
<path style=" stroke:none;fill-rule:nonzero;fill:rgb(89.453125%,89.453125%,89.453125%);fill-opacity:1;" d="M 37.800781 7.148438 L 37.800781 7.449219 L 0 7.449219 L 0 7.148438 Z M 37.800781 7.148438 "/>
<path style=" stroke:none;fill-rule:nonzero;fill:rgb(89.453125%,89.453125%,89.453125%);fill-opacity:1;" d="M 37.800781 7.949219 L 37.800781 8.25 L 0 8.25 L 0 7.949219 Z M 37.800781 7.949219 "/>
<path style=" stroke:none;fill-rule:nonzero;fill:rgb(89.453125%,89.453125%,89.453125%);fill-opacity:1;" d="M 37.800781 8.75 L 37.800781 9.050781 L 0 9.050781 L 0 8.75 Z M 37.800781 8.75 "/>
<path style=" stroke:none;fill-rule:nonzero;fill:rgb(89.453125%,89.453125%,89.453125%);fill-opacity:1;" d="M 37.800781 9.550781 L 37.800781 9.851563 L 0 9.851563 L 0 9.550781 Z M 37.800781 9.550781 "/>
<path style=" stroke:none;fill-rule:nonzero;fill:rgb(89.453125%,89.453125%,89.453125%);fill-opacity:1;" d="M 37.800781 10.351563 L 37.800781 10.652344 L 0 10.652344 L 0 10.351563 Z M 37.800781 10.351563 "/>
<path style=" stroke:none;fill-rule:nonzero;fill:rgb(89.453125%,89.453125%,89.453125%);fill-opacity:1;" d="M 37.800781 11.148438 L 37.800781 11.449219 L 0 11.449219 L 0 11.148438 Z M 37.800781 11.148438 "/>
<path style=" stroke:none;fill-rule:nonzero;fill:rgb(89.453125%,89.453125%,89.453125%);fill-opacity:1;" d="M 37.800781 11.949219 L 37.800781 12.25 L 0 12.25 L 0 11.949219 Z M 37.800781 11.949219 "/>
<path style=" stroke:none;fill-rule:nonzero;fill:rgb(89.453125%,89.453125%,89.453125%);fill-opacity:1;" d="M 37.800781 12.75 L 37.800781 13.050781 L 0 13.050781 L 0 12.75 Z M 37.800781 12.75 "/>
<path style=" stroke:none;fill-rule:nonzero;fill:rgb(89.453125%,89.453125%,89.453125%);fill-opacity:1;" d="M 37.800781 13.550781 L 37.800781 13.851563 L 0 13.851563 L 0 13.550781 Z M 37.800781 13.550781 "/>
<path style=" stroke:none;fill-rule:nonzero;fill:rgb(89.453125%,89.453125%,89.453125%);fill-opacity:1;" d="M 37.800781 14.351563 L 37.800781 14.652344 L 0 14.652344 L 0 14.351563 Z M 37.800781 14.351563 "/>
<path style=" stroke:none;fill-rule:nonzero;fill:rgb(89.453125%,89.453125%,89.453125%);fill-opacity:1;" d="M 37.800781 15.148438 L 37.800781 15.449219 L 0 15.449219 L 0 15.148438 Z M 37.800781 15.148438 "/>
<path style=" stroke:none;fill-rule:nonzero;fill:rgb(89.453125%,89.453125%,89.453125%);fill-opacity:1;" d="M 37.800781 15.949219 L 37.800781 16.25 L 0 16.25 L 0 15.949219 Z M 37.800781 15.949219 "/>
<path style=" stroke:none;fill-rule:nonzero;fill:rgb(89.453125%,89.453125%,89.453125%);fill-opacity:1;" d="M 37.800781 16.75 L 37.800781 17.050781 L 0 17.050781 L 0 16.75 Z M 37.800781 16.75 "/>
<path style=" stroke:none;fill-rule:nonzero;fill:rgb(89.453125%,89.453125%,89.453125%);fill-opacity:1;" d="M 37.800781 17.550781 L 37.800781 17.851563 L 0 17.851563 L 0 17.550781 Z M 37.800781 17.550781 "/>
<path style=" stroke:none;fill-rule:nonzero;fill:rgb(89.453125%,89.453125%,89.453125%);fill-opacity:1;" d="M 37.800781 18.351563 L 37.800781 18.652344 L 0 18.652344 L 0 18.351563 Z M 37.800781 18.351563 "/>
<path style=" stroke:none;fill-rule:nonzero;fill:rgb(89.453125%,89.453125%,89.453125%);fill-opacity:1;" d="M 37.800781 19.148438 L 37.800781 19.449219 L 0 19.449219 L 0 19.148438 Z M 37.800781 19.148438 "/>
<path style=" stroke:none;fill-rule:nonzero;fill:rgb(89.453125%,89.453125%,89.453125%);fill-opacity:1;" d="M 37.800781 19.949219 L 37.800781 20.25 L 0 20.25 L 0 19.949219 Z M 37.800781 19.949219 "/>
<path style=" stroke:none;fill-rule:nonzero;fill:rgb(89.453125%,89.453125%,89.453125%);fill-opacity:1;" d="M 37.800781 20.75 L 37.800781 21.050781 L 0 21.050781 L 0 20.75 Z M 37.800781 20.75 "/>
<path style=" stroke:none;fill-rule:nonzero;fill:rgb(89.453125%,89.453125%,89.453125%);fill-opacity:1;" d="M 37.800781 21.550781 L 37.800781 21.851563 L 0 21.851563 L 0 21.550781 Z M 37.800781 21.550781 "/>
<path style=" stroke:none;fill-rule:nonzero;fill:rgb(89.453125%,89.453125%,89.453125%);fill-opacity:1;" d="M 37.800781 22.351563 L 37.800781 22.652344 L 0 22.652344 L 0 22.351563 Z M 37.800781 22.351563 "/>
<path style=" stroke:none;fill-rule:nonzero;fill:rgb(89.453125%,89.453125%,89.453125%);fill-opacity:1;" d="M 37.800781 23.148438 L 37.800781 23.449219 L 0 23.449219 L 0 23.148438 Z M 37.800781 23.148438 "/>
<path style=" stroke:none;fill-rule:nonzero;fill:rgb(89.453125%,89.453125%,89.453125%);fill-opacity:1;" d="M 37.800781 23.949219 L 37.800781 24.25 L 0 24.25 L 0 23.949219 Z M 37.800781 23.949219 "/>
<path style=" stroke:none;fill-rule:nonzero;fill:rgb(89.453125%,89.453125%,89.453125%);fill-opacity:1;" d="M 37.800781 24.75 L 37.800781 25.050781 L 0 25.050781 L 0 24.75 Z M 37.800781 24.75 "/>
<path style=" stroke:none;fill-rule:nonzero;fill:rgb(89.453125%,89.453125%,89.453125%);fill-opacity:1;" d="M 37.800781 25.550781 L 37.800781 25.851563 L 0 25.851563 L 0 25.550781 Z M 37.800781 25.550781 "/>
<path style=" stroke:none;fill-rule:nonzero;fill:rgb(89.453125%,89.453125%,89.453125%);fill-opacity:1;" d="M 37.800781 26.351563 L 37.800781 26.652344 L 0 26.652344 L 0 26.351563 Z M 37.800781 26.351563 "/>
<path style=" stroke:none;fill-rule:nonzero;fill:rgb(89.453125%,89.453125%,89.453125%);fill-opacity:1;" d="M 37.800781 27.148438 L 37.800781 27.449219 L 0 27.449219 L 0 27.148438 Z M 37.800781 27.148438 "/>
<path style=" stroke:none;fill-rule:nonzero;fill:rgb(89.453125%,89.453125%,89.453125%);fill-opacity:1;" d="M 37.800781 27.949219 L 37.800781 28.25 L 0 28.25 L 0 27.949219 Z M 37.800781 27.949219 "/>
<path style=" stroke:none;fill-rule:nonzero;fill:rgb(89.453125%,89.453125%,89.453125%);fill-opacity:1;" d="M 37.800781 28.75 L 37.800781 29.050781 L 0 29.050781 L 0 28.75 Z M 37.800781 28.75 "/>
<path style=" stroke:none;fill-rule:nonzero;fill:rgb(89.453125%,89.453125%,89.453125%);fill-opacity:1;" d="M 37.800781 29.550781 L 37.800781 29.851563 L 0 29.851563 L 0 29.550781 Z M 37.800781 29.550781 "/>
<path style=" stroke:none;fill-rule:nonzero;fill:rgb(89.453125%,89.453125%,89.453125%);fill-opacity:1;" d="M 37.800781 30.351563 L 37.800781 30.652344 L 0 30.652344 L 0 30.351563 Z M 37.800781 30.351563 "/>
<path style=" stroke:none;fill-rule:nonzero;fill:rgb(89.453125%,89.453125%,89.453125%);fill-opacity:1;" d="M 37.800781 31.148438 L 37.800781 31.449219 L 0 31.449219 L 0 31.148438 Z M 37.800781 31.148438 "/>
<path style=" stroke:none;fill-rule:nonzero;fill:rgb(89.453125%,89.453125%,89.453125%);fill-opacity:1;" d="M 37.800781 31.949219 L 37.800781 32.25 L 0 32.25 L 0 31.949219 Z M 37.800781 31.949219 "/>
<path style=" stroke:none;fill-rule:nonzero;fill:rgb(89.453125%,89.453125%,89.453125%);fill-opacity:1;" d="M 37.800781 32.75 L 37.800781 33.050781 L 0 33.050781 L 0 32.75 Z M 37.800781 32.75 "/>
<path style=" stroke:none;fill-rule:nonzero;fill:rgb(89.453125%,89.453125%,89.453125%);fill-opacity:1;" d="M 37.800781 33.550781 L 37.800781 33.851563 L 0 33.851563 L 0 33.550781 Z M 37.800781 33.550781 "/>
<path style=" stroke:none;fill-rule:nonzero;fill:rgb(89.453125%,89.453125%,89.453125%);fill-opacity:1;" d="M 37.800781 34.351563 L 37.800781 34.652344 L 0 34.652344 L 0 34.351563 Z M 37.800781 34.351563 "/>
<path style=" stroke:none;fill-rule:nonzero;fill:rgb(89.453125%,89.453125%,89.453125%);fill-opacity:1;" d="M 37.800781 35.148438 L 37.800781 35.449219 L 0 35.449219 L 0 35.148438 Z M 37.800781 35.148438 "/>
<path style=" stroke:none;fill-rule:nonzero;fill:rgb(89.453125%,89.453125%,89.453125%);fill-opacity:1;" d="M 37.800781 35.949219 L 37.800781 36.25 L 0 36.25 L 0 35.949219 Z M 37.800781 35.949219 "/>
<path style=" stroke:none;fill-rule:nonzero;fill:rgb(19.53125%,19.53125%,19.53125%);fill-opacity:1;" d="M 1 1 L 36.800781 1 L 36.800781 36.800781 L 1 36.800781 Z M 1 1 "/>
<path style=" stroke:none;fill-rule:nonzero;fill:rgb(49.609375%,49.609375%,49.609375%);fill-opacity:1;" d="M 2.351563 35.800781 C 2.351563 36.265625 1.648438 36.265625 1.648438 35.800781 C 1.648438 35.332031 2.351563 35.332031 2.351563 35.800781 "/>
</g>
</svg>
