<?xml version="1.0" encoding="UTF-8"?>
<svg xmlns="http://www.w3.org/2000/svg" xmlns:xlink="http://www.w3.org/1999/xlink" width="28.2mm" height="28.2mm" viewBox="0 0 28.2 28.2" version="1.1">
<g id="surface341">
<path style=" stroke:none;fill-rule:nonzero;fill:rgb(89.453125%,89.453125%,89.453125%);fill-opacity:1;" d="M 1.550781 0 L 1.851563 0 L 1.851563 28.199219 L 1.550781 28.199219 Z M 1.550781 0 "/>
<path style=" stroke:none;fill-rule:nonzero;fill:rgb(89.453125%,89.453125%,89.453125%);fill-opacity:1;" d="M 2.351563 0 L 2.652344 0 L 2.652344 28.199219 L 2.351563 28.199219 Z M 2.351563 0 "/>
<path style=" stroke:none;fill-rule:nonzero;fill:rgb(89.453125%,89.453125%,89.453125%);fill-opacity:1;" d="M 3.148438 0 L 3.449219 0 L 3.449219 28.199219 L 3.148438 28.199219 Z M 3.148438 0 "/>
<path style=" stroke:none;fill-rule:nonzero;fill:rgb(89.453125%,89.453125%,89.453125%);fill-opacity:1;" d="M 3.949219 0 L 4.25 0 L 4.25 28.199219 L 3.949219 28.199219 Z M 3.949219 0 "/>
<path style=" stroke:none;fill-rule:nonzero;fill:rgb(89.453125%,89.453125%,89.453125%);fill-opacity:1;" d="M 4.75 0 L 5.050781 0 L 5.050781 28.199219 L 4.75 28.199219 Z M 4.75 0 "/>
<path style=" stroke:none;fill-rule:nonzero;fill:rgb(89.453125%,89.453125%,89.453125%);fill-opacity:1;" d="M 5.550781 0 L 5.851563 0 L 5.851563 28.199219 L 5.550781 28.199219 Z M 5.550781 0 "/>
<path style=" stroke:none;fill-rule:nonzero;fill:rgb(89.453125%,89.453125%,89.453125%);fill-opacity:1;" d="M 6.351563 0 L 6.652344 0 L 6.652344 28.199219 L 6.351563 28.199219 Z M 6.351563 0 "/>
<path style=" stroke:none;fill-rule:nonzero;fill:rgb(89.453125%,89.453125%,89.453125%);fill-opacity:1;" d="M 7.148438 0 L 7.449219 0 L 7.449219 28.199219 L 7.148438 28.199219 Z M 7.148438 0 "/>
<path style=" stroke:none;fill-rule:nonzero;fill:rgb(89.453125%,89.453125%,89.453125%);fill-opacity:1;" d="M 7.949219 0 L 8.25 0 L 8.25 28.199219 L 7.949219 28.199219 Z M 7.949219 0 "/>
<path style=" stroke:none;fill-rule:nonzero;fill:rgb(89.453125%,89.453125%,89.453125%);fill-opacity:1;" d="M 8.75 0 L 9.050781 0 L 9.050781 28.199219 L 8.75 28.199219 Z M 8.75 0 "/>
<path style=" stroke:none;fill-rule:nonzero;fill:rgb(89.453125%,89.453125%,89.453125%);fill-opacity:1;" d="M 9.550781 0 L 9.851563 0 L 9.851563 28.199219 L 9.550781 28.199219 Z M 9.550781 0 "/>
<path style=" stroke:none;fill-rule:nonzero;fill:rgb(89.453125%,89.453125%,89.453125%);fill-opacity:1;" d="M 10.351563 0 L 10.652344 0 L 10.652344 28.199219 L 10.351563 28.199219 Z M 10.351563 0 "/>
<path style=" stroke:none;fill-rule:nonzero;fill:rgb(89.453125%,89.453125%,89.453125%);fill-opacity:1;" d="M 11.148438 0 L 11.449219 0 L 11.449219 28.199219 L 11.148438 28.199219 Z M 11.148438 0 "/>
<path style=" stroke:none;fill-rule:nonzero;fill:rgb(89.453125%,89.453125%,89.453125%);fill-opacity:1;" d="M 11.949219 0 L 12.25 0 L 12.25 28.199219 L 11.949219 28.199219 Z M 11.949219 0 "/>
<path style=" stroke:none;fill-rule:nonzero;fill:rgb(89.453125%,89.453125%,89.453125%);fill-opacity:1;" d="M 12.75 0 L 13.050781 0 L 13.050781 28.199219 L 12.75 28.199219 Z M 12.75 0 "/>
<path style=" stroke:none;fill-rule:nonzero;fill:rgb(89.453125%,89.453125%,89.453125%);fill-opacity:1;" d="M 13.550781 0 L 13.851563 0 L 13.851563 28.199219 L 13.550781 28.199219 Z M 13.550781 0 "/>
<path style=" stroke:none;fill-rule:nonzero;fill:rgb(89.453125%,89.453125%,89.453125%);fill-opacity:1;" d="M 14.351563 0 L 14.652344 0 L 14.652344 28.199219 L 14.351563 28.199219 Z M 14.351563 0 "/>
<path style=" stroke:none;fill-rule:nonzero;fill:rgb(89.453125%,89.453125%,89.453125%);fill-opacity:1;" d="M 15.148438 0 L 15.449219 0 L 15.449219 28.199219 L 15.148438 28.199219 Z M 15.148438 0 "/>
<path style=" stroke:none;fill-rule:nonzero;fill:rgb(89.453125%,89.453125%,89.453125%);fill-opacity:1;" d="M 15.949219 0 L 16.25 0 L 16.25 28.199219 L 15.949219 28.199219 Z M 15.949219 0 "/>
<path style=" stroke:none;fill-rule:nonzero;fill:rgb(89.453125%,89.453125%,89.453125%);fill-opacity:1;" d="M 16.75 0 L 17.050781 0 L 17.050781 28.199219 L 16.75 28.199219 Z M 16.75 0 "/>
<path style=" stroke:none;fill-rule:nonzero;fill:rgb(89.453125%,89.453125%,89.453125%);fill-opacity:1;" d="M 17.550781 0 L 17.851563 0 L 17.851563 28.199219 L 17.550781 28.199219 Z M 17.550781 0 "/>
<path style=" stroke:none;fill-rule:nonzero;fill:rgb(89.453125%,89.453125%,89.453125%);fill-opacity:1;" d="M 18.351563 0 L 18.652344 0 L 18.652344 28.199219 L 18.351563 28.199219 Z M 18.351563 0 "/>
<path style=" stroke:none;fill-rule:nonzero;fill:rgb(89.453125%,89.453125%,89.453125%);fill-opacity:1;" d="M 19.148438 0 L 19.449219 0 L 19.449219 28.199219 L 19.148438 28.199219 Z M 19.148438 0 "/>
<path style=" stroke:none;fill-rule:nonzero;fill:rgb(89.453125%,89.453125%,89.453125%);fill-opacity:1;" d="M 19.949219 0 L 20.25 0 L 20.25 28.199219 L 19.949219 28.199219 Z M 19.949219 0 "/>
<path style=" stroke:none;fill-rule:nonzero;fill:rgb(89.453125%,89.453125%,89.453125%);fill-opacity:1;" d="M 20.75 0 L 21.050781 0 L 21.050781 28.199219 L 20.75 28.199219 Z M 20.75 0 "/>
<path style=" stroke:none;fill-rule:nonzero;fill:rgb(89.453125%,89.453125%,89.453125%);fill-opacity:1;" d="M 21.550781 0 L 21.851563 0 L 21.851563 28.199219 L 21.550781 28.199219 Z M 21.550781 0 "/>
<path style=" stroke:none;fill-rule:nonzero;fill:rgb(89.453125%,89.453125%,89.453125%);fill-opacity:1;" d="M 22.351563 0 L 22.652344 0 L 22.652344 28.199219 L 22.351563 28.199219 Z M 22.351563 0 "/>
<path style=" stroke:none;fill-rule:nonzero;fill:rgb(89.453125%,89.453125%,89.453125%);fill-opacity:1;" d="M 23.148438 0 L 23.449219 0 L 23.449219 28.199219 L 23.148438 28.199219 Z M 23.148438 0 "/>
<path style=" stroke:none;fill-rule:nonzero;fill:rgb(89.453125%,89.453125%,89.453125%);fill-opacity:1;" d="M 23.949219 0 L 24.25 0 L 24.25 28.199219 L 23.949219 28.199219 Z M 23.949219 0 "/>
<path style=" stroke:none;fill-rule:nonzero;fill:rgb(89.453125%,89.453125%,89.453125%);fill-opacity:1;" d="M 24.75 0 L 25.050781 0 L 25.050781 28.199219 L 24.75 28.199219 Z M 24.75 0 "/>
<path style=" stroke:none;fill-rule:nonzero;fill:rgb(89.453125%,89.453125%,89.453125%);fill-opacity:1;" d="M 25.550781 0 L 25.851563 0 L 25.851563 28.199219 L 25.550781 28.199219 Z M 25.550781 0 "/>
<path style=" stroke:none;fill-rule:nonzero;fill:rgb(89.453125%,89.453125%,89.453125%);fill-opacity:1;" d="M 26.351563 0 L 26.652344 0 L 26.652344 28.199219 L 26.351563 28.199219 Z M 26.351563 0 "/>
<path style=" stroke:none;fill-rule:nonzero;fill:rgb(89.453125%,89.453125%,89.453125%);fill-opacity:1;" d="M 28.199219 1.550781 L 28.199219 1.851563 L 0 1.851563 L 0 1.550781 Z M 28.199219 1.550781 "/>
<path style=" stroke:none;fill-rule:nonzero;fill:rgb(89.453125%,89.453125%,89.453125%);fill-opacity:1;" d="M 28.199219 2.351563 L 28.199219 2.652344 L 0 2.652344 L 0 2.351563 Z M 28.199219 2.351563 "/>
<path style=" stroke:none;fill-rule:nonzero;fill:rgb(89.453125%,89.453125%,89.453125%);fill-opacity:1;" d="M 28.199219 3.148438 L 28.199219 3.449219 L 0 3.449219 L 0 3.148438 Z M 28.199219 3.148438 "/>
<path style=" stroke:none;fill-rule:nonzero;fill:rgb(89.453125%,89.453125%,89.453125%);fill-opacity:1;" d="M 28.199219 3.949219 L 28.199219 4.25 L 0 4.25 L 0 3.949219 Z M 28.199219 3.949219 "/>
<path style=" stroke:none;fill-rule:nonzero;fill:rgb(89.453125%,89.453125%,89.453125%);fill-opacity:1;" d="M 28.199219 4.75 L 28.199219 5.050781 L 0 5.050781 L 0 4.75 Z M 28.199219 4.75 "/>
<path style=" stroke:none;fill-rule:nonzero;fill:rgb(89.453125%,89.453125%,89.453125%);fill-opacity:1;" d="M 28.199219 5.550781 L 28.199219 5.851563 L 0 5.851563 L 0 5.550781 Z M 28.199219 5.550781 "/>
<path style=" stroke:none;fill-rule:nonzero;fill:rgb(89.453125%,89.453125%,89.453125%);fill-opacity:1;" d="M 28.199219 6.351563 L 28.199219 6.652344 L 0 6.652344 L 0 6.351563 Z M 28.199219 6.351563 "/>
<path style=" stroke:none;fill-rule:nonzero;fill:rgb(89.453125%,89.453125%,89.453125%);fill-opacity:1;" d="M 28.199219 7.148438 L 28.199219 7.449219 L 0 7.449219 L 0 7.148438 Z M 28.199219 7.148438 "/>
<path style=" stroke:none;fill-rule:nonzero;fill:rgb(89.453125%,89.453125%,89.453125%);fill-opacity:1;" d="M 28.199219 7.949219 L 28.199219 8.25 L 0 8.25 L 0 7.949219 Z M 28.199219 7.949219 "/>
<path style=" stroke:none;fill-rule:nonzero;fill:rgb(89.453125%,89.453125%,89.453125%);fill-opacity:1;" d="M 28.199219 8.75 L 28.199219 9.050781 L 0 9.050781 L 0 8.75 Z M 28.199219 8.75 "/>
<path style=" stroke:none;fill-rule:nonzero;fill:rgb(89.453125%,89.453125%,89.453125%);fill-opacity:1;" d="M 28.199219 9.550781 L 28.199219 9.851563 L 0 9.851563 L 0 9.550781 Z M 28.199219 9.550781 "/>
<path style=" stroke:none;fill-rule:nonzero;fill:rgb(89.453125%,89.453125%,89.453125%);fill-opacity:1;" d="M 28.199219 10.351563 L 28.199219 10.652344 L 0 10.652344 L 0 10.351563 Z M 28.199219 10.351563 "/>
<path style=" stroke:none;fill-rule:nonzero;fill:rgb(89.453125%,89.453125%,89.453125%);fill-opacity:1;" d="M 28.199219 11.148438 L 28.199219 11.449219 L 0 11.449219 L 0 11.148438 Z M 28.199219 11.148438 "/>
<path style=" stroke:none;fill-rule:nonzero;fill:rgb(89.453125%,89.453125%,89.453125%);fill-opacity:1;" d="M 28.199219 11.949219 L 28.199219 12.25 L 0 12.25 L 0 11.949219 Z M 28.199219 11.949219 "/>
<path style=" stroke:none;fill-rule:nonzero;fill:rgb(89.453125%,89.453125%,89.453125%);fill-opacity:1;" d="M 28.199219 12.75 L 28.199219 13.050781 L 0 13.050781 L 0 12.75 Z M 28.199219 12.75 "/>
<path style=" stroke:none;fill-rule:nonzero;fill:rgb(89.453125%,89.453125%,89.453125%);fill-opacity:1;" d="M 28.199219 13.550781 L 28.199219 13.851563 L 0 13.851563 L 0 13.550781 Z M 28.199219 13.550781 "/>
<path style=" stroke:none;fill-rule:nonzero;fill:rgb(89.453125%,89.453125%,89.453125%);fill-opacity:1;" d="M 28.199219 14.351563 L 28.199219 14.652344 L 0 14.652344 L 0 14.351563 Z M 28.199219 14.351563 "/>
<path style=" stroke:none;fill-rule:nonzero;fill:rgb(89.453125%,89.453125%,89.453125%);fill-opacity:1;" d="M 28.199219 15.148438 L 28.199219 15.449219 L 0 15.449219 L 0 15.148438 Z M 28.199219 15.148438 "/>
<path style=" stroke:none;fill-rule:nonzero;fill:rgb(89.453125%,89.453125%,89.453125%);fill-opacity:1;" d="M 28.199219 15.949219 L 28.199219 16.25 L 0 16.25 L 0 15.949219 Z M 28.199219 15.949219 "/>
<path style=" stroke:none;fill-rule:nonzero;fill:rgb(89.453125%,89.453125%,89.453125%);fill-opacity:1;" d="M 28.199219 16.75 L 28.199219 17.050781 L 0 17.050781 L 0 16.75 Z M 28.199219 16.75 "/>
<path style=" stroke:none;fill-rule:nonzero;fill:rgb(89.453125%,89.453125%,89.453125%);fill-opacity:1;" d="M 28.199219 17.550781 L 28.199219 17.851563 L 0 17.851563 L 0 17.550781 Z M 28.199219 17.550781 "/>
<path style=" stroke:none;fill-rule:nonzero;fill:rgb(89.453125%,89.453125%,89.453125%);fill-opacity:1;" d="M 28.199219 18.351563 L 28.199219 18.652344 L 0 18.652344 L 0 18.351563 Z M 28.199219 18.351563 "/>
<path style=" stroke:none;fill-rule:nonzero;fill:rgb(89.453125%,89.453125%,89.453125%);fill-opacity:1;" d="M 28.199219 19.148438 L 28.199219 19.449219 L 0 19.449219 L 0 19.148438 Z M 28.199219 19.148438 "/>
<path style=" stroke:none;fill-rule:nonzero;fill:rgb(89.453125%,89.453125%,89.453125%);fill-opacity:1;" d="M 28.199219 19.949219 L 28.199219 20.25 L 0 20.25 L 0 19.949219 Z M 28.199219 19.949219 "/>
<path style=" stroke:none;fill-rule:nonzero;fill:rgb(89.453125%,89.453125%,89.453125%);fill-opacity:1;" d="M 28.199219 20.75 L 28.199219 21.050781 L 0 21.050781 L 0 20.75 Z M 28.199219 20.75 "/>
<path style=" stroke:none;fill-rule:nonzero;fill:rgb(89.453125%,89.453125%,89.453125%);fill-opacity:1;" d="M 28.199219 21.550781 L 28.199219 21.851563 L 0 21.851563 L 0 21.550781 Z M 28.199219 21.550781 "/>
<path style=" stroke:none;fill-rule:nonzero;fill:rgb(89.453125%,89.453125%,89.453125%);fill-opacity:1;" d="M 28.199219 22.351563 L 28.199219 22.652344 L 0 22.652344 L 0 22.351563 Z M 28.199219 22.351563 "/>
<path style=" stroke:none;fill-rule:nonzero;fill:rgb(89.453125%,89.453125%,89.453125%);fill-opacity:1;" d="M 28.199219 23.148438 L 28.199219 23.449219 L 0 23.449219 L 0 23.148438 Z M 28.199219 23.148438 "/>
<path style=" stroke:none;fill-rule:nonzero;fill:rgb(89.453125%,89.453125%,89.453125%);fill-opacity:1;" d="M 28.199219 23.949219 L 28.199219 24.25 L 0 24.25 L 0 23.949219 Z M 28.199219 23.949219 "/>
<path style=" stroke:none;fill-rule:nonzero;fill:rgb(89.453125%,89.453125%,89.453125%);fill-opacity:1;" d="M 28.199219 24.75 L 28.199219 25.050781 L 0 25.050781 L 0 24.75 Z M 28.199219 24.75 "/>
<path style=" stroke:none;fill-rule:nonzero;fill:rgb(89.453125%,89.453125%,89.453125%);fill-opacity:1;" d="M 28.199219 25.550781 L 28.199219 25.851563 L 0 25.851563 L 0 25.550781 Z M 28.199219 25.550781 "/>
<path style=" stroke:none;fill-rule:nonzero;fill:rgb(89.453125%,89.453125%,89.453125%);fill-opacity:1;" d="M 28.199219 26.351563 L 28.199219 26.652344 L 0 26.652344 L 0 26.351563 Z M 28.199219 26.351563 "/>
<path style=" stroke:none;fill-rule:nonzero;fill:rgb(19.53125%,19.53125%,19.53125%);fill-opacity:1;" d="M 1 1 L 27.199219 1 L 27.199219 27.199219 L 1 27.199219 Z M 1 1 "/>
<path style=" stroke:none;fill-rule:nonzero;fill:rgb(49.609375%,49.609375%,49.609375%);fill-opacity:1;" d="M 2.351563 26.199219 C 2.351563 26.667969 1.648438 26.667969 1.648438 26.199219 C 1.648438 25.734375 2.351563 25.734375 2.351563 26.199219 "/>
</g>
</svg>
