<?xml version="1.0" encoding="UTF-8"?>
<svg xmlns="http://www.w3.org/2000/svg" xmlns:xlink="http://www.w3.org/1999/xlink" width="22.6mm" height="22.6mm" viewBox="0 0 22.6 22.6" version="1.1">
<g id="surface336">
<path style=" stroke:none;fill-rule:nonzero;fill:rgb(89.453125%,89.453125%,89.453125%);fill-opacity:1;" d="M 1.550781 0 L 1.851563 0 L 1.851563 22.601563 L 1.550781 22.601563 Z M 1.550781 0 "/>
<path style=" stroke:none;fill-rule:nonzero;fill:rgb(89.453125%,89.453125%,89.453125%);fill-opacity:1;" d="M 2.351563 0 L 2.652344 0 L 2.652344 22.601563 L 2.351563 22.601563 Z M 2.351563 0 "/>
<path style=" stroke:none;fill-rule:nonzero;fill:rgb(89.453125%,89.453125%,89.453125%);fill-opacity:1;" d="M 3.148438 0 L 3.449219 0 L 3.449219 22.601563 L 3.148438 22.601563 Z M 3.148438 0 "/>
<path style=" stroke:none;fill-rule:nonzero;fill:rgb(89.453125%,89.453125%,89.453125%);fill-opacity:1;" d="M 3.949219 0 L 4.25 0 L 4.25 22.601563 L 3.949219 22.601563 Z M 3.949219 0 "/>
<path style=" stroke:none;fill-rule:nonzero;fill:rgb(89.453125%,89.453125%,89.453125%);fill-opacity:1;" d="M 4.75 0 L 5.050781 0 L 5.050781 22.601563 L 4.75 22.601563 Z M 4.75 0 "/>
<path style=" stroke:none;fill-rule:nonzero;fill:rgb(89.453125%,89.453125%,89.453125%);fill-opacity:1;" d="M 5.550781 0 L 5.851563 0 L 5.851563 22.601563 L 5.550781 22.601563 Z M 5.550781 0 "/>
<path style=" stroke:none;fill-rule:nonzero;fill:rgb(89.453125%,89.453125%,89.453125%);fill-opacity:1;" d="M 6.351563 0 L 6.652344 0 L 6.652344 22.601563 L 6.351563 22.601563 Z M 6.351563 0 "/>
<path style=" stroke:none;fill-rule:nonzero;fill:rgb(89.453125%,89.453125%,89.453125%);fill-opacity:1;" d="M 7.148438 0 L 7.449219 0 L 7.449219 22.601563 L 7.148438 22.601563 Z M 7.148438 0 "/>
<path style=" stroke:none;fill-rule:nonzero;fill:rgb(89.453125%,89.453125%,89.453125%);fill-opacity:1;" d="M 7.949219 0 L 8.25 0 L 8.25 22.601563 L 7.949219 22.601563 Z M 7.949219 0 "/>
<path style=" stroke:none;fill-rule:nonzero;fill:rgb(89.453125%,89.453125%,89.453125%);fill-opacity:1;" d="M 8.75 0 L 9.050781 0 L 9.050781 22.601563 L 8.75 22.601563 Z M 8.75 0 "/>
<path style=" stroke:none;fill-rule:nonzero;fill:rgb(89.453125%,89.453125%,89.453125%);fill-opacity:1;" d="M 9.550781 0 L 9.851563 0 L 9.851563 22.601563 L 9.550781 22.601563 Z M 9.550781 0 "/>
<path style=" stroke:none;fill-rule:nonzero;fill:rgb(89.453125%,89.453125%,89.453125%);fill-opacity:1;" d="M 10.351563 0 L 10.652344 0 L 10.652344 22.601563 L 10.351563 22.601563 Z M 10.351563 0 "/>
<path style=" stroke:none;fill-rule:nonzero;fill:rgb(89.453125%,89.453125%,89.453125%);fill-opacity:1;" d="M 11.148438 0 L 11.449219 0 L 11.449219 22.601563 L 11.148438 22.601563 Z M 11.148438 0 "/>
<path style=" stroke:none;fill-rule:nonzero;fill:rgb(89.453125%,89.453125%,89.453125%);fill-opacity:1;" d="M 11.949219 0 L 12.25 0 L 12.25 22.601563 L 11.949219 22.601563 Z M 11.949219 0 "/>
<path style=" stroke:none;fill-rule:nonzero;fill:rgb(89.453125%,89.453125%,89.453125%);fill-opacity:1;" d="M 12.75 0 L 13.050781 0 L 13.050781 22.601563 L 12.75 22.601563 Z M 12.75 0 "/>
<path style=" stroke:none;fill-rule:nonzero;fill:rgb(89.453125%,89.453125%,89.453125%);fill-opacity:1;" d="M 13.550781 0 L 13.851563 0 L 13.851563 22.601563 L 13.550781 22.601563 Z M 13.550781 0 "/>
<path style=" stroke:none;fill-rule:nonzero;fill:rgb(89.453125%,89.453125%,89.453125%);fill-opacity:1;" d="M 14.351563 0 L 14.652344 0 L 14.652344 22.601563 L 14.351563 22.601563 Z M 14.351563 0 "/>
<path style=" stroke:none;fill-rule:nonzero;fill:rgb(89.453125%,89.453125%,89.453125%);fill-opacity:1;" d="M 15.148438 0 L 15.449219 0 L 15.449219 22.601563 L 15.148438 22.601563 Z M 15.148438 0 "/>
<path style=" stroke:none;fill-rule:nonzero;fill:rgb(89.453125%,89.453125%,89.453125%);fill-opacity:1;" d="M 15.949219 0 L 16.25 0 L 16.25 22.601563 L 15.949219 22.601563 Z M 15.949219 0 "/>
<path style=" stroke:none;fill-rule:nonzero;fill:rgb(89.453125%,89.453125%,89.453125%);fill-opacity:1;" d="M 16.75 0 L 17.050781 0 L 17.050781 22.601563 L 16.75 22.601563 Z M 16.75 0 "/>
<path style=" stroke:none;fill-rule:nonzero;fill:rgb(89.453125%,89.453125%,89.453125%);fill-opacity:1;" d="M 17.550781 0 L 17.851563 0 L 17.851563 22.601563 L 17.550781 22.601563 Z M 17.550781 0 "/>
<path style=" stroke:none;fill-rule:nonzero;fill:rgb(89.453125%,89.453125%,89.453125%);fill-opacity:1;" d="M 18.351563 0 L 18.652344 0 L 18.652344 22.601563 L 18.351563 22.601563 Z M 18.351563 0 "/>
<path style=" stroke:none;fill-rule:nonzero;fill:rgb(89.453125%,89.453125%,89.453125%);fill-opacity:1;" d="M 19.148438 0 L 19.449219 0 L 19.449219 22.601563 L 19.148438 22.601563 Z M 19.148438 0 "/>
<path style=" stroke:none;fill-rule:nonzero;fill:rgb(89.453125%,89.453125%,89.453125%);fill-opacity:1;" d="M 19.949219 0 L 20.25 0 L 20.25 22.601563 L 19.949219 22.601563 Z M 19.949219 0 "/>
<path style=" stroke:none;fill-rule:nonzero;fill:rgb(89.453125%,89.453125%,89.453125%);fill-opacity:1;" d="M 20.75 0 L 21.050781 0 L 21.050781 22.601563 L 20.75 22.601563 Z M 20.75 0 "/>
<path style=" stroke:none;fill-rule:nonzero;fill:rgb(89.453125%,89.453125%,89.453125%);fill-opacity:1;" d="M 22.601563 1.550781 L 22.601563 1.851563 L 0 1.851563 L 0 1.550781 Z M 22.601563 1.550781 "/>
<path style=" stroke:none;fill-rule:nonzero;fill:rgb(89.453125%,89.453125%,89.453125%);fill-opacity:1;" d="M 22.601563 2.351563 L 22.601563 2.652344 L 0 2.652344 L 0 2.351563 Z M 22.601563 2.351563 "/>
<path style=" stroke:none;fill-rule:nonzero;fill:rgb(89.453125%,89.453125%,89.453125%);fill-opacity:1;" d="M 22.601563 3.148438 L 22.601563 3.449219 L 0 3.449219 L 0 3.148438 Z M 22.601563 3.148438 "/>
<path style=" stroke:none;fill-rule:nonzero;fill:rgb(89.453125%,89.453125%,89.453125%);fill-opacity:1;" d="M 22.601563 3.949219 L 22.601563 4.25 L 0 4.25 L 0 3.949219 Z M 22.601563 3.949219 "/>
<path style=" stroke:none;fill-rule:nonzero;fill:rgb(89.453125%,89.453125%,89.453125%);fill-opacity:1;" d="M 22.601563 4.75 L 22.601563 5.050781 L 0 5.050781 L 0 4.75 Z M 22.601563 4.75 "/>
<path style=" stroke:none;fill-rule:nonzero;fill:rgb(89.453125%,89.453125%,89.453125%);fill-opacity:1;" d="M 22.601563 5.550781 L 22.601563 5.851563 L 0 5.851563 L 0 5.550781 Z M 22.601563 5.550781 "/>
<path style=" stroke:none;fill-rule:nonzero;fill:rgb(89.453125%,89.453125%,89.453125%);fill-opacity:1;" d="M 22.601563 6.351563 L 22.601563 6.652344 L 0 6.652344 L 0 6.351563 Z M 22.601563 6.351563 "/>
<path style=" stroke:none;fill-rule:nonzero;fill:rgb(89.453125%,89.453125%,89.453125%);fill-opacity:1;" d="M 22.601563 7.148438 L 22.601563 7.449219 L 0 7.449219 L 0 7.148438 Z M 22.601563 7.148438 "/>
<path style=" stroke:none;fill-rule:nonzero;fill:rgb(89.453125%,89.453125%,89.453125%);fill-opacity:1;" d="M 22.601563 7.949219 L 22.601563 8.25 L 0 8.25 L 0 7.949219 Z M 22.601563 7.949219 "/>
<path style=" stroke:none;fill-rule:nonzero;fill:rgb(89.453125%,89.453125%,89.453125%);fill-opacity:1;" d="M 22.601563 8.75 L 22.601563 9.050781 L 0 9.050781 L 0 8.75 Z M 22.601563 8.75 "/>
<path style=" stroke:none;fill-rule:nonzero;fill:rgb(89.453125%,89.453125%,89.453125%);fill-opacity:1;" d="M 22.601563 9.550781 L 22.601563 9.851563 L 0 9.851563 L 0 9.550781 Z M 22.601563 9.550781 "/>
<path style=" stroke:none;fill-rule:nonzero;fill:rgb(89.453125%,89.453125%,89.453125%);fill-opacity:1;" d="M 22.601563 10.351563 L 22.601563 10.652344 L 0 10.652344 L 0 10.351563 Z M 22.601563 10.351563 "/>
<path style=" stroke:none;fill-rule:nonzero;fill:rgb(89.453125%,89.453125%,89.453125%);fill-opacity:1;" d="M 22.601563 11.148438 L 22.601563 11.449219 L 0 11.449219 L 0 11.148438 Z M 22.601563 11.148438 "/>
<path style=" stroke:none;fill-rule:nonzero;fill:rgb(89.453125%,89.453125%,89.453125%);fill-opacity:1;" d="M 22.601563 11.949219 L 22.601563 12.25 L 0 12.25 L 0 11.949219 Z M 22.601563 11.949219 "/>
<path style=" stroke:none;fill-rule:nonzero;fill:rgb(89.453125%,89.453125%,89.453125%);fill-opacity:1;" d="M 22.601563 12.75 L 22.601563 13.050781 L 0 13.050781 L 0 12.75 Z M 22.601563 12.75 "/>
<path style=" stroke:none;fill-rule:nonzero;fill:rgb(89.453125%,89.453125%,89.453125%);fill-opacity:1;" d="M 22.601563 13.550781 L 22.601563 13.851563 L 0 13.851563 L 0 13.550781 Z M 22.601563 13.550781 "/>
<path style=" stroke:none;fill-rule:nonzero;fill:rgb(89.453125%,89.453125%,89.453125%);fill-opacity:1;" d="M 22.601563 14.351563 L 22.601563 14.652344 L 0 14.652344 L 0 14.351563 Z M 22.601563 14.351563 "/>
<path style=" stroke:none;fill-rule:nonzero;fill:rgb(89.453125%,89.453125%,89.453125%);fill-opacity:1;" d="M 22.601563 15.148438 L 22.601563 15.449219 L 0 15.449219 L 0 15.148438 Z M 22.601563 15.148438 "/>
<path style=" stroke:none;fill-rule:nonzero;fill:rgb(89.453125%,89.453125%,89.453125%);fill-opacity:1;" d="M 22.601563 15.949219 L 22.601563 16.25 L 0 16.25 L 0 15.949219 Z M 22.601563 15.949219 "/>
<path style=" stroke:none;fill-rule:nonzero;fill:rgb(89.453125%,89.453125%,89.453125%);fill-opacity:1;" d="M 22.601563 16.75 L 22.601563 17.050781 L 0 17.050781 L 0 16.75 Z M 22.601563 16.75 "/>
<path style=" stroke:none;fill-rule:nonzero;fill:rgb(89.453125%,89.453125%,89.453125%);fill-opacity:1;" d="M 22.601563 17.550781 L 22.601563 17.851563 L 0 17.851563 L 0 17.550781 Z M 22.601563 17.550781 "/>
<path style=" stroke:none;fill-rule:nonzero;fill:rgb(89.453125%,89.453125%,89.453125%);fill-opacity:1;" d="M 22.601563 18.351563 L 22.601563 18.652344 L 0 18.652344 L 0 18.351563 Z M 22.601563 18.351563 "/>
<path style=" stroke:none;fill-rule:nonzero;fill:rgb(89.453125%,89.453125%,89.453125%);fill-opacity:1;" d="M 22.601563 19.148438 L 22.601563 19.449219 L 0 19.449219 L 0 19.148438 Z M 22.601563 19.148438 "/>
<path style=" stroke:none;fill-rule:nonzero;fill:rgb(89.453125%,89.453125%,89.453125%);fill-opacity:1;" d="M 22.601563 19.949219 L 22.601563 20.25 L 0 20.25 L 0 19.949219 Z M 22.601563 19.949219 "/>
<path style=" stroke:none;fill-rule:nonzero;fill:rgb(89.453125%,89.453125%,89.453125%);fill-opacity:1;" d="M 22.601563 20.75 L 22.601563 21.050781 L 0 21.050781 L 0 20.75 Z M 22.601563 20.75 "/>
<path style=" stroke:none;fill-rule:nonzero;fill:rgb(19.53125%,19.53125%,19.53125%);fill-opacity:1;" d="M 1 1 L 21.601563 1 L 21.601563 21.601563 L 1 21.601563 Z M 1 1 "/>
<path style=" stroke:none;fill-rule:nonzero;fill:rgb(49.609375%,49.609375%,49.609375%);fill-opacity:1;" d="M 2.351563 20.601563 C 2.351563 21.066406 1.648438 21.066406 1.648438 20.601563 C 1.648438 20.132813 2.351563 20.132813 2.351563 20.601563 "/>
</g>
</svg>
