<?xml version="1.0" encoding="UTF-8"?>
<svg xmlns="http://www.w3.org/2000/svg" xmlns:xlink="http://www.w3.org/1999/xlink" width="15.4mm" height="15.4mm" viewBox="0 0 15.4 15.4" version="1.1">
<g id="surface331">
<path style=" stroke:none;fill-rule:nonzero;fill:rgb(89.453125%,89.453125%,89.453125%);fill-opacity:1;" d="M 1.550781 0 L 1.851563 0 L 1.851563 15.398438 L 1.550781 15.398438 Z M 1.550781 0 "/>
<path style=" stroke:none;fill-rule:nonzero;fill:rgb(89.453125%,89.453125%,89.453125%);fill-opacity:1;" d="M 2.351563 0 L 2.652344 0 L 2.652344 15.398438 L 2.351563 15.398438 Z M 2.351563 0 "/>
<path style=" stroke:none;fill-rule:nonzero;fill:rgb(89.453125%,89.453125%,89.453125%);fill-opacity:1;" d="M 3.148438 0 L 3.449219 0 L 3.449219 15.398438 L 3.148438 15.398438 Z M 3.148438 0 "/>
<path style=" stroke:none;fill-rule:nonzero;fill:rgb(89.453125%,89.453125%,89.453125%);fill-opacity:1;" d="M 3.949219 0 L 4.25 0 L 4.25 15.398438 L 3.949219 15.398438 Z M 3.949219 0 "/>
<path style=" stroke:none;fill-rule:nonzero;fill:rgb(89.453125%,89.453125%,89.453125%);fill-opacity:1;" d="M 4.75 0 L 5.050781 0 L 5.050781 15.398438 L 4.75 15.398438 Z M 4.75 0 "/>
<path style=" stroke:none;fill-rule:nonzero;fill:rgb(89.453125%,89.453125%,89.453125%);fill-opacity:1;" d="M 5.550781 0 L 5.851563 0 L 5.851563 15.398438 L 5.550781 15.398438 Z M 5.550781 0 "/>
<path style=" stroke:none;fill-rule:nonzero;fill:rgb(89.453125%,89.453125%,89.453125%);fill-opacity:1;" d="M 6.351563 0 L 6.652344 0 L 6.652344 15.398438 L 6.351563 15.398438 Z M 6.351563 0 "/>
<path style=" stroke:none;fill-rule:nonzero;fill:rgb(89.453125%,89.453125%,89.453125%);fill-opacity:1;" d="M 7.148438 0 L 7.449219 0 L 7.449219 15.398438 L 7.148438 15.398438 Z M 7.148438 0 "/>
<path style=" stroke:none;fill-rule:nonzero;fill:rgb(89.453125%,89.453125%,89.453125%);fill-opacity:1;" d="M 7.949219 0 L 8.25 0 L 8.25 15.398438 L 7.949219 15.398438 Z M 7.949219 0 "/>
<path style=" stroke:none;fill-rule:nonzero;fill:rgb(89.453125%,89.453125%,89.453125%);fill-opacity:1;" d="M 8.75 0 L 9.050781 0 L 9.050781 15.398438 L 8.75 15.398438 Z M 8.75 0 "/>
<path style=" stroke:none;fill-rule:nonzero;fill:rgb(89.453125%,89.453125%,89.453125%);fill-opacity:1;" d="M 9.550781 0 L 9.851563 0 L 9.851563 15.398438 L 9.550781 15.398438 Z M 9.550781 0 "/>
<path style=" stroke:none;fill-rule:nonzero;fill:rgb(89.453125%,89.453125%,89.453125%);fill-opacity:1;" d="M 10.351563 0 L 10.652344 0 L 10.652344 15.398438 L 10.351563 15.398438 Z M 10.351563 0 "/>
<path style=" stroke:none;fill-rule:nonzero;fill:rgb(89.453125%,89.453125%,89.453125%);fill-opacity:1;" d="M 11.148438 0 L 11.449219 0 L 11.449219 15.398438 L 11.148438 15.398438 Z M 11.148438 0 "/>
<path style=" stroke:none;fill-rule:nonzero;fill:rgb(89.453125%,89.453125%,89.453125%);fill-opacity:1;" d="M 11.949219 0 L 12.25 0 L 12.25 15.398438 L 11.949219 15.398438 Z M 11.949219 0 "/>
<path style=" stroke:none;fill-rule:nonzero;fill:rgb(89.453125%,89.453125%,89.453125%);fill-opacity:1;" d="M 12.75 0 L 13.050781 0 L 13.050781 15.398438 L 12.75 15.398438 Z M 12.75 0 "/>
<path style=" stroke:none;fill-rule:nonzero;fill:rgb(89.453125%,89.453125%,89.453125%);fill-opacity:1;" d="M 13.550781 0 L 13.851563 0 L 13.851563 15.398438 L 13.550781 15.398438 Z M 13.550781 0 "/>
<path style=" stroke:none;fill-rule:nonzero;fill:rgb(89.453125%,89.453125%,89.453125%);fill-opacity:1;" d="M 15.398438 1.550781 L 15.398438 1.851563 L 0 1.851563 L 0 1.550781 Z M 15.398438 1.550781 "/>
<path style=" stroke:none;fill-rule:nonzero;fill:rgb(89.453125%,89.453125%,89.453125%);fill-opacity:1;" d="M 15.398438 2.351563 L 15.398438 2.652344 L 0 2.652344 L 0 2.351563 Z M 15.398438 2.351563 "/>
<path style=" stroke:none;fill-rule:nonzero;fill:rgb(89.453125%,89.453125%,89.453125%);fill-opacity:1;" d="M 15.398438 3.148438 L 15.398438 3.449219 L 0 3.449219 L 0 3.148438 Z M 15.398438 3.148438 "/>
<path style=" stroke:none;fill-rule:nonzero;fill:rgb(89.453125%,89.453125%,89.453125%);fill-opacity:1;" d="M 15.398438 3.949219 L 15.398438 4.25 L 0 4.25 L 0 3.949219 Z M 15.398438 3.949219 "/>
<path style=" stroke:none;fill-rule:nonzero;fill:rgb(89.453125%,89.453125%,89.453125%);fill-opacity:1;" d="M 15.398438 4.75 L 15.398438 5.050781 L 0 5.050781 L 0 4.75 Z M 15.398438 4.75 "/>
<path style=" stroke:none;fill-rule:nonzero;fill:rgb(89.453125%,89.453125%,89.453125%);fill-opacity:1;" d="M 15.398438 5.550781 L 15.398438 5.851563 L 0 5.851563 L 0 5.550781 Z M 15.398438 5.550781 "/>
<path style=" stroke:none;fill-rule:nonzero;fill:rgb(89.453125%,89.453125%,89.453125%);fill-opacity:1;" d="M 15.398438 6.351563 L 15.398438 6.652344 L 0 6.652344 L 0 6.351563 Z M 15.398438 6.351563 "/>
<path style=" stroke:none;fill-rule:nonzero;fill:rgb(89.453125%,89.453125%,89.453125%);fill-opacity:1;" d="M 15.398438 7.148438 L 15.398438 7.449219 L 0 7.449219 L 0 7.148438 Z M 15.398438 7.148438 "/>
<path style=" stroke:none;fill-rule:nonzero;fill:rgb(89.453125%,89.453125%,89.453125%);fill-opacity:1;" d="M 15.398438 7.949219 L 15.398438 8.25 L 0 8.25 L 0 7.949219 Z M 15.398438 7.949219 "/>
<path style=" stroke:none;fill-rule:nonzero;fill:rgb(89.453125%,89.453125%,89.453125%);fill-opacity:1;" d="M 15.398438 8.75 L 15.398438 9.050781 L 0 9.050781 L 0 8.75 Z M 15.398438 8.75 "/>
<path style=" stroke:none;fill-rule:nonzero;fill:rgb(89.453125%,89.453125%,89.453125%);fill-opacity:1;" d="M 15.398438 9.550781 L 15.398438 9.851563 L 0 9.851563 L 0 9.550781 Z M 15.398438 9.550781 "/>
<path style=" stroke:none;fill-rule:nonzero;fill:rgb(89.453125%,89.453125%,89.453125%);fill-opacity:1;" d="M 15.398438 10.351563 L 15.398438 10.652344 L 0 10.652344 L 0 10.351563 Z M 15.398438 10.351563 "/>
<path style=" stroke:none;fill-rule:nonzero;fill:rgb(89.453125%,89.453125%,89.453125%);fill-opacity:1;" d="M 15.398438 11.148438 L 15.398438 11.449219 L 0 11.449219 L 0 11.148438 Z M 15.398438 11.148438 "/>
<path style=" stroke:none;fill-rule:nonzero;fill:rgb(89.453125%,89.453125%,89.453125%);fill-opacity:1;" d="M 15.398438 11.949219 L 15.398438 12.25 L 0 12.25 L 0 11.949219 Z M 15.398438 11.949219 "/>
<path style=" stroke:none;fill-rule:nonzero;fill:rgb(89.453125%,89.453125%,89.453125%);fill-opacity:1;" d="M 15.398438 12.75 L 15.398438 13.050781 L 0 13.050781 L 0 12.75 Z M 15.398438 12.75 "/>
<path style=" stroke:none;fill-rule:nonzero;fill:rgb(89.453125%,89.453125%,89.453125%);fill-opacity:1;" d="M 15.398438 13.550781 L 15.398438 13.851563 L 0 13.851563 L 0 13.550781 Z M 15.398438 13.550781 "/>
<path style=" stroke:none;fill-rule:nonzero;fill:rgb(19.53125%,19.53125%,19.53125%);fill-opacity:1;" d="M 1 1 L 14.398438 1 L 14.398438 14.398438 L 1 14.398438 Z M 1 1 "/>
<path style=" stroke:none;fill-rule:nonzero;fill:rgb(49.609375%,49.609375%,49.609375%);fill-opacity:1;" d="M 2.351563 13.398438 C 2.351563 13.867188 1.648438 13.867188 1.648438 13.398438 C 1.648438 12.933594 2.351563 12.933594 2.351563 13.398438 "/>
</g>
</svg>
